<svg xmlns="http://www.w3.org/2000/svg" width="16" height="16" viewBox="64 64 896 960"><path fill="context-fill" fill-opacity="context-fill-opacity" d="M325 832H189.5q-25 0-47.75-10.25t-40-27.5-27.5-40T64 706.5v-517q0-25 10.25-47.75t27.5-40 40-27.5T189.5 64h645q25 0 47.75 10.25t40 27.5 27.5 40T960 189.5v517q0 26-10.5 48.75t-28 39.75-40.75 27T832 832H699l-163 181.5q-9.5 10.5-24 10.5t-24-10.5Zm571-128V192q0-13-5-24.75t-13.75-20.5-20.5-13.75-24.75-5H192q-13.5 0-25 5t-20.25 13.75T133 167t-5 25v512q0 13.5 5 25.25t13.5 20.25 20.25 13.5 25.25 5h147q7 0 13.25 2.5t10.75 8L512 944l149-165.5q4.5-5.5 10.75-8T685 768h147q13.5 0 25-5t20.25-13.75T891 729t5-25"/></svg>