<svg height="100%" viewBox="0 0 960 960" width="100%" xmlns="http://www.w3.org/2000/svg" xmlns:xlink="http://www.w3.org/1999/xlink">
  <path d="M0,480C0,436 5.75,393.583 17.25,352.75C28.75,311.917 44.9167,273.667 65.75,238C86.5833,202.333 111.583,169.917 140.75,140.75C169.917,111.583 202.333,86.5834 238,65.75C273.667,44.9167 311.917,28.75 352.75,17.25C393.583,5.75 436,0 480,0C524,0 566.417,5.75 607.25,17.25C648.083,28.75 686.25,44.9167 721.75,65.75C757.25,86.5834 789.667,111.667 819,141C848.333,170.333 873.417,202.75 894.25,238.25C915.083,273.75 931.25,311.917 942.75,352.75C954.25,393.583 960,436 960,480C960,524 954.25,566.417 942.75,607.25C931.25,648.083 915.083,686.333 894.25,722C873.417,757.667 848.417,790.083 819.25,819.25C790.083,848.417 757.667,873.417 722,894.25C686.333,915.083 648.083,931.25 607.25,942.75C566.417,954.25 524,960 480,960C435.667,960 393.083,954.25 352.25,942.75C311.417,931.25 273.25,915.083 237.75,894.25C202.25,873.417 169.917,848.417 140.75,819.25C111.583,790.083 86.5833,757.75 65.75,722.25C44.9167,686.75 28.75,648.5 17.25,607.5C5.75,566.5 0,524 0,480ZM896,480C896,441.667 891,404.833 881,369.5C871,334.167 857,301.083 839,270.25C821,239.417 799.333,211.333 774,186C748.667,160.667 720.583,139 689.75,121C658.917,103 625.833,89.0001 590.5,79C555.167,69.0001 518.333,64.0001 480,64C441.667,64.0001 404.833,69.0001 369.5,79C334.167,89.0001 301.083,103 270.25,121C239.417,139 211.333,160.667 186,186C160.667,211.333 139,239.417 121,270.25C103,301.083 89,334.167 79,369.5C69,404.833 64,441.667 64,480C64,518.333 69,555.167 79,590.5C89,625.833 103,658.917 121,689.75C139,720.583 160.667,748.667 186,774C211.333,799.333 239.417,821 270.25,839C301.083,857 334.167,871 369.5,881C404.833,891 441.667,896 480,896C518.333,896 555.167,891 590.5,881C625.833,871 658.917,857 689.75,839C720.583,821 748.667,799.333 774,774C799.333,748.667 821,720.583 839,689.75C857,658.917 871,625.833 881,590.5C891,555.167 896,518.333 896,480ZM448,512L288,512C279.333,512 271.833,508.833 265.5,502.5C259.167,496.167 256,488.667 256,480C256,471.333 259.167,463.833 265.5,457.5C271.833,451.167 279.333,448 288,448L448,448L448,288C448,279.333 451.167,271.833 457.5,265.5C463.833,259.167 471.333,256 480,256C488.667,256 496.167,259.167 502.5,265.5C508.833,271.833 512,279.333 512,288L512,448L672,448C680.667,448 688.167,451.167 694.5,457.5C700.833,463.833 704,471.333 704,480C704,488.667 700.833,496.167 694.5,502.5C688.167,508.833 680.667,512 672,512L512,512L512,672C512,680.667 508.833,688.167 502.5,694.5C496.167,700.833 488.667,704 480,704C471.333,704 463.833,700.833 457.5,694.5C451.167,688.167 448,680.667 448,672Z" fill="context-fill" fill-opacity="context-fill-opacity">
  </path>
</svg>