<svg xmlns="http://www.w3.org/2000/svg" width="16" height="16" fill="none" viewBox="0 0 16 16"><g clip-path="url(#a)"><path fill="context-fill" fill-opacity="context-fill-opacity" d="M7.497 4.467a.44.44 0 0 0-.16-.34.53.53 0 0 0-.36-.14.46.46 0 0 0-.34.14.46.46 0 0 0-.139.34v1.998H4.5a.48.48 0 0 0-.38.16.53.53 0 0 0-.14.36q0 .2.14.34.14.139.38.14h1.998v1.997q-.04.24.12.38a.53.53 0 0 0 .72 0 .48.48 0 0 0 .159-.38V7.464h1.998a.46.46 0 0 0 .34-.14.46.46 0 0 0 .14-.34.53.53 0 0 0-.14-.36.48.48 0 0 0-.38-.159H7.497zM2.502-.009q-1.039 0-1.778.74t-.74 1.738v8.991q0 1.04.74 1.778.74.74 1.738.74h9.031q1 0 1.738-.74.74-.738.74-1.778V2.47q0-.999-.74-1.738a2.42 2.42 0 0 0-1.778-.74zM.983 2.47q0-.6.44-1.039A1.42 1.42 0 0 1 2.462.99h9.031q.6 0 1.04.44.438.44.439 1.079v8.951q0 .639-.44 1.08a1.42 1.42 0 0 1-1.039.439H2.502q-.64 0-1.079-.44a1.42 1.42 0 0 1-.44-1.039zM5.5 15.976a3.45 3.45 0 0 1-2.478-1h9.471q1 0 1.738-.739.74-.738.74-1.778V3.03q.999 1.039.999 2.437v6.993q0 1.479-1.02 2.498a3.35 3.35 0 0 1-2.457 1.019z"/></g><defs><clipPath id="a"><path fill="#fff" d="M0 0h16v16H0z"/></clipPath></defs></svg>