<svg xmlns="http://www.w3.org/2000/svg" width="16" height="16" fill="none" viewBox="0 0 16 16"><g clip-path="url(#a)"><path fill="context-fill" fill-opacity="context-fill-opacity" d="M3.615 16q-.72 0-1.38-.293a3.8 3.8 0 0 1-1.153-.789 3.8 3.8 0 0 1-.789-1.154A3.36 3.36 0 0 1 0 12.384V3.616q0-.72.293-1.38.294-.658.789-1.153.494-.495 1.154-.789Q2.895 0 3.616 0h8.769q.72 0 1.38.293.658.294 1.153.789.495.494.789 1.154.293.659.293 1.38v8.769q0 .72-.293 1.38-.294.658-.789 1.153t-1.154.789-1.38.293zm8.74-1.23q.481 0 .919-.198a2.57 2.57 0 0 0 1.298-1.298 2.2 2.2 0 0 0 .197-.918V3.644q0-.48-.197-.918a2.57 2.57 0 0 0-1.298-1.298 2.2 2.2 0 0 0-.918-.197H3.644q-.48 0-.918.197a2.57 2.57 0 0 0-1.298 1.298 2.2 2.2 0 0 0-.197.918v8.712q0 .48.197.918a2.57 2.57 0 0 0 1.298 1.298q.438.197.918.197zm-4.97-6.155H4.308a.6.6 0 0 1-.433-.182A.6.6 0 0 1 3.692 8q0-.25.183-.433a.6.6 0 0 1 .433-.182h3.077V4.308q0-.25.182-.433A.6.6 0 0 1 8 3.692q.25 0 .433.183a.6.6 0 0 1 .182.433v3.077h3.077q.25 0 .433.182a.6.6 0 0 1 .183.433q0 .25-.183.433a.6.6 0 0 1-.433.182H8.615v3.077q0 .25-.182.433a.6.6 0 0 1-.433.183.6.6 0 0 1-.433-.183.6.6 0 0 1-.182-.433z"/></g><defs><clipPath id="a"><path fill="#fff" d="M0 0h16v16H0z"/></clipPath></defs></svg>