<svg xmlns="http://www.w3.org/2000/svg" width="16" height="16" fill="none" viewBox="0 0 16 16"><g clip-path="url(#a)"><path fill="context-fill" fill-opacity="context-fill-opacity" d="M0 8q0-1.1.288-2.12a8.2 8.2 0 0 1 .808-1.913 7.96 7.96 0 0 1 2.87-2.871A8.2 8.2 0 0 1 5.88.287 7.8 7.8 0 0 1 8 0q1.1 0 2.12.288 1.022.286 1.91.808a8 8 0 0 1 1.62 1.254 8.04 8.04 0 0 1 2.063 3.53Q16 6.9 16 8t-.287 2.12a8.2 8.2 0 0 1-.809 1.913 7.96 7.96 0 0 1-2.87 2.871 8.2 8.2 0 0 1-1.913.809A7.8 7.8 0 0 1 8 16a7.8 7.8 0 0 1-2.13-.287 8.012 8.012 0 0 1-3.525-2.058 8 8 0 0 1-2.057-3.53A7.8 7.8 0 0 1 0 8m14.933 0a6.7 6.7 0 0 0-.25-1.842 7 7 0 0 0-.7-1.654A7 7 0 0 0 12.9 3.1a7 7 0 0 0-1.404-1.083 7 7 0 0 0-1.654-.7A6.7 6.7 0 0 0 8 1.067a6.7 6.7 0 0 0-1.842.25q-.883.25-1.654.7T3.1 3.1 2.017 4.504a7 7 0 0 0-.7 1.654A6.7 6.7 0 0 0 1.067 8q0 .959.25 1.842a7 7 0 0 0 .7 1.654q.45.771 1.083 1.404t1.404 1.083a7 7 0 0 0 1.654.7 6.7 6.7 0 0 0 1.842.25 6.7 6.7 0 0 0 1.842-.25q.883-.25 1.654-.7T12.9 12.9t1.083-1.404.7-1.654A6.7 6.7 0 0 0 14.933 8m-7.466.533H4.8a.51.51 0 0 1-.375-.158A.51.51 0 0 1 4.267 8q0-.217.158-.375a.51.51 0 0 1 .375-.158h2.667V4.8q0-.217.158-.375A.51.51 0 0 1 8 4.267q.217 0 .375.158t.158.375v2.667H11.2q.217 0 .375.158.159.158.158.375 0 .217-.158.375a.51.51 0 0 1-.375.158H8.533V11.2q0 .217-.158.375a.51.51 0 0 1-.375.158.51.51 0 0 1-.375-.158.51.51 0 0 1-.158-.375z"/></g><defs><clipPath id="a"><path fill="#fff" d="M0 0h16v16H0z"/></clipPath></defs></svg>