<svg height="100%" viewBox="103 195 820 820" width="100%" xmlns="http://www.w3.org/2000/svg" xmlns:xlink="http://www.w3.org/1999/xlink">
  <path d="M487.424,423.936C487.424,417.109 484.693,411.307 479.232,406.528C473.771,401.749 467.627,399.36 460.8,399.36C453.973,399.36 448.171,401.749 443.392,406.528C438.613,411.307 436.224,417.109 436.224,423.936L436.224,526.336L333.824,526.336C325.632,526.336 319.147,529.067 314.368,534.528C309.589,539.989 307.2,546.133 307.2,552.96C307.2,559.787 309.589,565.589 314.368,570.368C319.147,575.147 325.632,577.536 333.824,577.536L436.224,577.536L436.224,679.936C434.859,688.128 436.907,694.613 442.368,699.392C447.829,704.171 453.973,706.56 460.8,706.56C467.627,706.56 473.771,704.171 479.232,699.392C484.693,694.613 487.424,688.128 487.424,679.936L487.424,577.536L589.824,577.536C596.651,577.536 602.453,575.147 607.232,570.368C612.011,565.589 614.4,559.787 614.4,552.96C614.4,546.133 612.011,539.989 607.232,534.528C602.453,529.067 595.968,526.336 587.776,526.336L487.424,526.336ZM231.424,194.56C195.925,194.56 165.547,207.189 140.288,232.448C115.029,257.707 102.4,287.403 102.4,321.536L102.4,782.336C102.4,817.835 115.029,848.213 140.288,873.472C165.547,898.731 195.243,911.36 229.376,911.36L692.224,911.36C726.357,911.36 756.053,898.731 781.312,873.472C806.571,848.213 819.2,817.835 819.2,782.336L819.2,321.536C819.2,287.403 806.571,257.707 781.312,232.448C756.053,207.189 725.675,194.56 690.176,194.56ZM153.6,321.536C153.6,301.056 161.109,283.307 176.128,268.288C191.147,253.269 208.896,245.76 229.376,245.76L692.224,245.76C712.704,245.76 730.453,253.269 745.472,268.288C760.491,283.307 768,301.739 768,323.584L768,782.336C768,804.181 760.491,822.613 745.472,837.632C730.453,852.651 712.704,860.16 692.224,860.16L231.424,860.16C209.579,860.16 191.147,852.651 176.128,837.632C161.109,822.613 153.6,804.864 153.6,784.384ZM385.024,1013.76C335.872,1013.76 293.547,996.693 258.048,962.56L743.424,962.56C777.557,962.56 807.253,949.931 832.512,924.672C857.771,899.413 870.4,869.035 870.4,833.536L870.4,350.208C904.533,385.707 921.6,427.349 921.6,475.136L921.6,833.536C921.6,884.053 904.192,926.72 869.376,961.536C834.56,996.352 792.576,1013.76 743.424,1013.76Z" fill="context-fill" fill-opacity="context-fill-opacity">
  </path>
</svg>