<svg width="16" height="16" viewBox="0 0 16 16" fill="none" xmlns="http://www.w3.org/2000/svg">
<g clip-path="url(#clip0_326_5)">
<path d="M2.44704 13.9921C2.2379 13.9921 2.04182 13.9529 1.85881 13.8745C1.6758 13.7961 1.51633 13.6889 1.38038 13.5529C1.24443 13.417 1.13724 13.2575 1.05881 13.0745C0.980378 12.8915 0.941162 12.6954 0.941162 12.4863V2.44704C0.941162 2.2379 0.980378 2.04182 1.05881 1.85881C1.13724 1.6758 1.24443 1.51633 1.38038 1.38038C1.51633 1.24443 1.6758 1.13724 1.85881 1.05881C2.04182 0.980379 2.2379 0.941164 2.44704 0.941162H12.4863C12.6954 0.941164 12.8915 0.980379 13.0745 1.05881C13.2575 1.13724 13.417 1.24443 13.5529 1.38038C13.6889 1.51633 13.7961 1.6758 13.8745 1.85881C13.9529 2.04182 13.9921 2.2379 13.9921 2.44704V6.28234C13.6732 6.12548 13.3385 5.99999 12.9882 5.90587V2.44704C12.9882 2.31109 12.9385 2.19344 12.8392 2.0941C12.7399 1.99476 12.6222 1.94508 12.4863 1.94508H7.96861V6.90195C7.56599 7.21045 7.21045 7.56599 6.90195 7.96861H1.94508V12.4863C1.94508 12.6222 1.99476 12.7399 2.0941 12.8392C2.19344 12.9385 2.31109 12.9882 2.44704 12.9882H5.90587C5.99999 13.3385 6.12548 13.6732 6.28234 13.9921H2.44704ZM1.94508 6.96469H6.96469V1.94508H2.44704C2.31109 1.94508 2.19344 1.99476 2.0941 2.0941C1.99476 2.19344 1.94508 2.31109 1.94508 2.44704V6.96469ZM6.96469 11.4823C6.96469 10.8601 7.08364 10.2745 7.32155 9.72548C7.55947 9.17646 7.88234 8.69803 8.29018 8.29018C8.69803 7.88234 9.17646 7.55947 9.72548 7.32155C10.2745 7.08364 10.8601 6.96469 11.4823 6.96469C11.8954 6.96469 12.2941 7.01829 12.6784 7.12548C13.0627 7.23266 13.4222 7.3843 13.7568 7.58038C14.0915 7.77646 14.3974 8.01305 14.6745 8.29018C14.9516 8.56731 15.1882 8.87319 15.3843 9.20783C15.5804 9.54246 15.7321 9.90195 15.8392 10.2863C15.9463 10.6706 16 11.0693 16 11.4823C16 12.1046 15.8811 12.6902 15.6431 13.2392C15.4052 13.7882 15.0823 14.2667 14.6745 14.6745C14.2667 15.0823 13.7882 15.4052 13.2392 15.6431C12.6902 15.8811 12.1046 16 11.4823 16C10.8549 16 10.2667 15.8823 9.71763 15.647C9.16861 15.4118 8.69018 15.0902 8.28234 14.6823C7.8745 14.2745 7.55293 13.7961 7.31763 13.247C7.08234 12.698 6.96469 12.1098 6.96469 11.4823ZM9.4745 14.0314C9.62614 14.0314 9.75423 13.9791 9.85881 13.8745L11.4823 12.2431L13.1059 13.8745C13.1529 13.9216 13.2118 13.9595 13.2823 13.9882C13.3529 14.017 13.4222 14.0314 13.4902 14.0314C13.6418 14.0314 13.7699 13.9791 13.8745 13.8745C13.9791 13.7699 14.0314 13.6418 14.0314 13.4902C14.0314 13.3385 13.9791 13.2104 13.8745 13.1059L12.2431 11.4823L13.8745 9.85881C13.9791 9.75423 14.0314 9.62614 14.0314 9.4745C14.0314 9.32286 13.9791 9.19476 13.8745 9.09018C13.7699 8.9856 13.6418 8.93332 13.4902 8.93332C13.3385 8.93332 13.2104 8.9856 13.1059 9.09018L11.4823 10.7216L9.85881 9.09018C9.75423 8.9856 9.62614 8.93332 9.4745 8.93332C9.32286 8.93332 9.19476 8.9856 9.09018 9.09018C8.9856 9.19476 8.93332 9.32286 8.93332 9.4745C8.93332 9.54246 8.9477 9.61175 8.97646 9.68234C9.00521 9.75293 9.04312 9.81175 9.09018 9.85881L10.7216 11.4823L9.09018 13.1059C8.9856 13.2104 8.93332 13.3385 8.93332 13.4902C8.93332 13.6418 8.9856 13.7699 9.09018 13.8745C9.19476 13.9791 9.32286 14.0314 9.4745 14.0314Z" fill="context-fill" fill-opacity="context-fill-opacity"/>
</g>
<defs>
<clipPath id="clip0_326_5">
<rect width="16" height="16"/>
</clipPath>
</defs>
</svg>
