<svg xmlns="http://www.w3.org/2000/svg" width="1024" height="1024" fill="none" viewBox="0 0 1024 1024"><path fill="context-fill" fill-opacity="context-fill-opacity" d="M960 320q0 18.5-7.5 36.75T932 388L807.5 512.5q18.5 1.5 34.75 9.5t28.25 20.75 18.75 29.75T896 608v256q0 20-7.5 37.5T868 932t-30.5 20.5T800 960H160q-20 0-37.5-7.5T92 932t-20.5-30.5T64 864V224q0-20 7.5-37.5T92 156t30.5-20.5T160 128h256q18.5 0 35.5 6.75t29.75 18.75T502 181.75t9.5 34.75L636 92q13-13 31-20.5t37-7.5 37 7.5T772 92l160 160q13 13 20.5 31t7.5 37m-64 0q0-13-9.5-22.5l-160-160Q717 128 704 128t-22.5 9.5l-160 160Q512 307 512 320t9.5 22.5l160 160Q691 512 704 512t22.5-9.5l160-160Q896 333 896 320M448 512V224q0-13-9.5-22.5T416 192H160q-13 0-22.5 9.5T128 224v288zm152 0-88-88v88zM448 896V576H128v288q0 13 9.5 22.5T160 896zm384-288q0-13-9.5-22.5T800 576H512v320h288q13 0 22.5-9.5T832 864z"/></svg>