<svg height="100%" viewBox="51 2 972 971" width="100%" xmlns="http://www.w3.org/2000/svg" xmlns:xlink="http://www.w3.org/1999/xlink">
  <path d="M1023,256C1023,273.667 1019.67,290.583 1013,306.75C1006.33,322.917 996.667,337.333 984,350L872,462C886.333,463.667 899.667,467.833 912,474.5C924.333,481.167 935,489.667 944,500C953,510.333 960.083,522 965.25,535C970.417,548 973,561.667 973,576L973,860C973,875 969.917,889.333 963.75,903C957.583,916.667 949.333,928.667 939,939C928.667,949.333 916.667,957.583 903,963.75C889.333,969.917 875,973 860,973L164,973C149,973 134.667,969.917 121,963.75C107.333,957.583 95.3333,949.333 85,939C74.6667,928.667 66.4167,916.667 60.25,903C54.0833,889.333 51,875 51,860L51,164C51,149 54.0833,134.667 60.25,121C66.4167,107.333 74.6667,95.3334 85,85C95.3333,74.6667 107.333,66.4167 121,60.25C134.667,54.0834 149,51 164,51L448,51C462.333,51 476,53.5834 489,58.75C502,63.9167 513.667,71 524,80C534.333,89 542.833,99.6667 549.5,112C556.167,124.333 560.333,137.667 562,152L674,40C686.333,27.6667 700.667,18.25 717,11.75C733.333,5.25 750.333,2 768,2C785.667,2 802.667,5.25 819,11.75C835.333,18.25 849.667,27.6667 862,40L984,162C996.667,174.667 1006.33,189.083 1013,205.25C1019.67,221.417 1023,238.333 1023,256ZM946.5,256C946.5,240.333 941,227 930,216L808,94C802.667,88.6667 796.5,84.6667 789.5,82C782.5,79.3334 775.333,78 768,78C760.667,78 753.5,79.3334 746.5,82C739.5,84.6667 733.333,88.6667 728,94L606,216C595,227 589.5,240.333 589.5,256C589.5,271.667 595,285 606,296L728,418C733.667,423.667 739.833,427.667 746.5,430C753.167,432.333 760.333,433.5 768,433.5C775.333,433.5 782.5,432.25 789.5,429.75C796.5,427.25 802.667,423.333 808,418L930,296C941,285 946.5,271.667 946.5,256ZM166.5,128C155.833,128 146.75,131.75 139.25,139.25C131.75,146.75 128,155.833 128,166.5L128,461L486.5,461L486.5,166.5C486.5,155.833 482.75,146.75 475.25,139.25C467.75,131.75 458.667,128 448,128ZM663,461L563,361L563,461ZM486.5,896L486.5,537.5L128,537.5L128,857.5C128,868.167 131.75,877.25 139.25,884.75C146.75,892.25 155.833,896 166.5,896ZM896,576C896,565.333 892.25,556.25 884.75,548.75C877.25,541.25 868.167,537.5 857.5,537.5L563,537.5L563,896L857.5,896C868.167,896 877.25,892.25 884.75,884.75C892.25,877.25 896,868.167 896,857.5Z" fill="context-fill" fill-opacity="context-fill-opacity">
  </path>
</svg>