<svg xmlns="http://www.w3.org/2000/svg" width="16" height="16" fill="none" viewBox="0 0 16 16"><g clip-path="url(#a)"><path fill="context-fill" fill-opacity="context-fill-opacity" d="M16 8q0 1.101-.285 2.125a8 8 0 0 1-.809 1.91 8 8 0 0 1-1.254 1.617 8 8 0 0 1-1.617 1.254A7.9 7.9 0 0 1 8 16a7.92 7.92 0 0 1-4.035-1.094 8 8 0 0 1-1.617-1.254 8 8 0 0 1-1.254-1.617A7.9 7.9 0 0 1 0 8q0-1.101.285-2.125.285-1.023.809-1.91a8 8 0 0 1 1.254-1.617 8 8 0 0 1 1.617-1.254A7.9 7.9 0 0 1 8 0q.867 0 1.7.18.832.18 1.597.527A8 8 0 0 1 14 2.711V.5a.48.48 0 0 1 .148-.352A.48.48 0 0 1 14.5 0a.48.48 0 0 1 .352.148A.48.48 0 0 1 15 .5v4a.48.48 0 0 1-.148.352A.48.48 0 0 1 14.5 5h-4a.48.48 0 0 1-.352-.148A.48.48 0 0 1 10 4.5a.48.48 0 0 1 .148-.352A.48.48 0 0 1 10.5 4h3.25a7.05 7.05 0 0 0-2.508-2.207 7.02 7.02 0 0 0-5.105-.543 7 7 0 0 0-3.086 1.8q-.638.638-1.094 1.415a7 7 0 0 0-.707 1.672A6.9 6.9 0 0 0 1 8q0 .969.25 1.863a7 7 0 0 0 3.215 4.18q.777.457 1.672.707T8 15q.944 0 1.832-.238a6.8 6.8 0 0 0 1.664-.692 7 7 0 0 0 1.426-1.097q.648-.645 1.133-1.465A6.86 6.86 0 0 0 15 8a.48.48 0 0 1 .148-.352.48.48 0 0 1 .352-.148.48.48 0 0 1 .352.148A.48.48 0 0 1 16 8m-3.86 0q0 .344-.175.637a1.24 1.24 0 0 1-.473.457l-3.64 1.992a1.24 1.24 0 0 1-.602.148 1.23 1.23 0 0 1-.887-.363A1.24 1.24 0 0 1 6 9.984V6.016q0-.258.098-.489a1.24 1.24 0 0 1 .664-.668q.23-.1.488-.101.329 0 .602.156l3.64 1.992A1.24 1.24 0 0 1 12.141 8m-1 0a.23.23 0 0 0-.124-.219L7.367 5.797a.23.23 0 0 0-.117-.031.24.24 0 0 0-.18.07.24.24 0 0 0-.07.18v3.968q0 .11.07.18t.18.07q.062 0 .117-.03l3.649-1.985A.23.23 0 0 0 11.14 8"/></g><defs><clipPath id="a"><path fill="#fff" d="M0 0h16v16H0z"/></clipPath></defs></svg>