<svg xmlns="http://www.w3.org/2000/svg" viewBox="0 0 1024 1024"><path fill="context-fill" fill-opacity="context-fill-opacity" d="M512 77 374.5 214.5Q365 224 352 224t-22.5-9.5T320 192t9.5-22.5l160-160Q499 0 512 0t22.5 9.5l160 160Q704 179 704 192t-9.5 22.5T672 224t-22.5-9.5ZM0 512q0-13 9.5-22.5l160-160Q179 320 192 320t22.5 9.5T224 352t-9.5 22.5L77.5 512l137 137.5Q224 659 224 672t-9.5 22.5T192 704t-22.5-9.5l-160-160Q0 525 0 512m800 160q0-13 9.5-22.5L947 512 809.5 374.5Q800 365 800 352t9.5-22.5T832 320t22.5 9.5l160 160c6.33 6.333 9.5 13.833 9.5 22.5s-3.17 16.167-9.5 22.5l-160 160Q845 704 832 704t-22.5-9.5T800 672M432 512q0-16.5 6.5-31t17.25-25.25T481 438.5t31-6.5 31 6.5 25.25 17.25T585.5 481t6.5 31-6.5 31-17.25 25.25T543 585.5t-31 6.5-31-6.5-25.25-17.25T438.5 543t-6.5-31M320 832q0-13 9.5-22.5T352 800t22.5 9.5l137.5 137 137.5-137Q659 800 672 800t22.5 9.5T704 832t-9.5 22.5l-160 160c-6.333 6.33-13.833 9.5-22.5 9.5s-16.167-3.17-22.5-9.5l-160-160Q320 845 320 832"/></svg>