<svg width="17" height="17" viewBox="0 0 17 17" fill="none" xmlns="http://www.w3.org/2000/svg">
<path d="M7.03069 1.78644C6.98179 1.78378 6.93283 1.79077 6.88663 1.80702C6.84042 1.82328 6.79787 1.84847 6.7614 1.88117L1.65614 6.45905C1.57986 6.5288 1.51895 6.61368 1.47726 6.70827C1.43559 6.80286 1.41406 6.90508 1.41406 7.00845C1.41406 7.11182 1.43559 7.21405 1.47726 7.30863C1.51895 7.40321 1.57986 7.48809 1.65614 7.55784L6.7614 12.1357C6.79797 12.1685 6.84061 12.1937 6.88693 12.2099C6.93324 12.2261 6.9823 12.2329 7.0313 12.2302C7.08028 12.2275 7.12825 12.2151 7.17243 12.1938C7.21661 12.1724 7.25616 12.1426 7.28879 12.1059C7.32142 12.0694 7.34652 12.0267 7.36267 11.9805C7.37883 11.9343 7.38571 11.8853 7.38295 11.8364C7.38018 11.7875 7.36779 11.7396 7.34653 11.6954C7.32525 11.6514 7.2955 11.6119 7.25895 11.5793L2.57813 7.38105H12.6037C12.7026 7.38105 12.7975 7.34175 12.8674 7.27181C12.9373 7.20187 12.9767 7.107 12.9767 7.00807C12.9767 6.90915 12.9373 6.81428 12.8674 6.74434C12.7975 6.67439 12.7026 6.6351 12.6037 6.6351H2.57738L7.2597 2.43765C7.29629 2.40497 7.32609 2.36539 7.34736 2.32117C7.36864 2.27696 7.38098 2.22899 7.38368 2.17999C7.38638 2.13101 7.3794 2.08196 7.36312 2.03567C7.34683 1.9894 7.32157 1.94678 7.28879 1.91026C7.25605 1.87364 7.21639 1.84385 7.1721 1.8226C7.1278 1.80136 7.07975 1.78907 7.03069 1.78644Z" fill="context-fill" fill-opacity="context-fill-opacity"/>
</svg>
