<svg xmlns="http://www.w3.org/2000/svg" width="16" height="16" viewBox="137 64 750 896"><path fill="context-fill" fill-opacity="context-fill-opacity" d="M887 867q0 19.5-7.25 36.25T860 932.75t-29.25 20T794.5 960h-565q-19.5 0-36.25-7.25t-29.25-20-19.75-29.5T137 867q0-26.5 13.5-48.5L370 462q14-23.5 14-50V128q-4 0-8.25.25t-8.75.25q-8.5 0-16.75-1t-15-4.25-11-9.75T320 96q0-13 9.5-22.5T352 64h320q13 0 22.5 9.5T704 96q0 11-4.25 17.5t-11 9.75-15 4.25-16.75 1q-4.5 0-8.75-.25T640 128v284q0 27 14.5 50l219 356.5q13.5 22 13.5 48.5M374.5 576h275L600 495.5q-24-39-24-83.5V128H448v284q0 23.5-6 43.5t-18 40ZM823 867q0-8-4-15L689 640H335L205 852q-4 7-4 15 0 11.5 8.25 20.25T229.5 896h565q12.5 0 20.5-8.5t8-20.5"/></svg>