<svg xmlns="http://www.w3.org/2000/svg" width="16" height="16" fill="none" viewBox="0 0 16 16"><path fill="context-fill" fill-opacity="context-fill-opacity" d="M15 8a6.8 6.8 0 0 1-.252 1.863 7.014 7.014 0 0 1-3.216 4.178 7 7 0 0 1-1.673.707A6.9 6.9 0 0 1 8 15a6.97 6.97 0 0 1-6.752-5.133A7 7 0 0 1 1 8q0-.97.248-1.863a6.966 6.966 0 0 1 3.216-4.185 7 7 0 0 1 1.673-.704A7 7 0 0 1 8 1q.962 0 1.856.252a7.1 7.1 0 0 1 1.673.707 6.97 6.97 0 0 1 2.512 2.512q.456.78.707 1.673Q15 7.038 15 8M1.933 8q0 1.095.376 2.107.375 1.013 1.083 1.845l8.56-8.56a6.1 6.1 0 0 0-1.845-1.083A6 6 0 0 0 8 1.933 6.02 6.02 0 0 0 3.709 3.71a6 6 0 0 0-.948 1.225A6 6 0 0 0 1.933 8m12.134 0q0-1.095-.376-2.107a6.1 6.1 0 0 0-1.083-1.845l-8.56 8.56a6.1 6.1 0 0 0 1.845 1.083q1.013.376 2.107.376.838 0 1.615-.215a6.03 6.03 0 0 0 3.628-2.785A6.1 6.1 0 0 0 14.067 8"/></svg>