<svg xmlns="http://www.w3.org/2000/svg" width="16" height="16" viewBox="124 0 761 1024"><path fill="context-fill" fill-opacity="context-fill-opacity" d="M194 953.5q0-9.5 2-17L272.5 640H192q-14 0-26.5-5.5t-21.75-14.75T129 598t-5.5-26.5q0-9 2.5-18L266.5 47q5.5-21 23-34t39-13H675q13.5 0 25 5.25t20.25 14T734 39.75t5 24.75q0 11-3.5 21L653 320h162.5q14 0 26.25 5.5a72.5 72.5 0 0 1 21.75 15 72.5 72.5 0 0 1 15 21.75q5.5 12.25 5.5 26.25 0 28.5-19 48l-551 566c-6.667 6.67-14.25 11.83-22.75 15.5s-17.583 5.5-27.25 5.5-18.667-1.83-27-5.5-15.75-8.75-22.25-15.25Q205 993 199.5 980.5t-5.5-27m626.5-565q0-2-1.75-3.25T815.5 384H608q-13 0-22.5-9.25T576 352.5q0-2.5.5-5.5t1.5-5.5L675 64H328.5q-2 7-9 32a63602 63602 0 0 0-17.25 61.75Q292 194.5 279.5 239.25t-25.25 90.25-24.75 88.75-21.25 77-15 54.5-5.75 21.75q0 4.5 4.5 4.5h121.5q13.5 0 22.75 9.25T345.5 608q0 3-1 8L258 952.5v1.5q0 5.5 6.5 5.5 2 0 3.5-1.5l551-566q1.5-1.5 1.5-3.5"/></svg>