<svg xmlns="http://www.w3.org/2000/svg" width="16" height="16" fill="none" viewBox="0 0 16 16"><g clip-path="url(#a)"><path fill="context-fill" fill-opacity="context-fill-opacity" d="M15.852.148q.147.14.148.352a.48.48 0 0 1-.148.352l-5.266 5.265A4.26 4.26 0 0 1 11.5 8.75q0 1.132-.555 2.098a4.24 4.24 0 0 1-1.492 1.535L7.43 15.758a.5.5 0 0 1-.176.176.5.5 0 0 1-.246.066.5.5 0 0 1-.36-.148l-6.5-6.5A.5.5 0 0 1 0 8.992q0-.132.066-.246a.5.5 0 0 1 .176-.176l3.375-2.023a4.24 4.24 0 0 1 1.535-1.492A4.14 4.14 0 0 1 7.25 4.5q.726 0 1.402.238.676.239 1.23.676L15.149.148A.48.48 0 0 1 15.5 0q.21 0 .352.148M9.117 11.414a3.3 3.3 0 0 0 1.012-1.152q.37-.699.371-1.512 0-.884-.437-1.629a3.27 3.27 0 0 0-1.184-1.184A3.16 3.16 0 0 0 7.25 5.5q-.813 0-1.512.371T4.586 6.883zM1.305 9.102l5.593 5.593 1.54-2.562-4.57-4.57z"/></g><defs><clipPath id="a"><path d="M0 0h16v16H0z"/></clipPath></defs></svg>