<svg height="100%" viewBox="0 0 1024 1024" width="100%" xmlns="http://www.w3.org/2000/svg" xmlns:xlink="http://www.w3.org/1999/xlink">
  <path d="M1014.5,9.5C1020.83,15.5 1024,23 1024,32C1024,40.6667 1020.83,48.1667 1014.5,54.5L677.5,391.5C696.167,415.167 710.583,441.417 720.75,470.25C730.917,499.083 736,529 736,560C736,608.333 724.167,653.083 700.5,694.25C676.833,735.417 645,768.167 605,792.5L475.5,1008.5C472.833,1013.17 469.083,1016.92 464.25,1019.75C459.417,1022.58 454.167,1024 448.5,1024C439.5,1024 431.833,1020.83 425.5,1014.5L9.5,598.5C3.16667,592.167 0,584.5 0,575.5C0,569.833 1.41667,564.583 4.25,559.75C7.08333,554.917 10.8333,551.167 15.5,548.5L231.5,419C255.833,379 288.583,347.167 329.75,323.5C370.917,299.833 415.667,288 464,288C495,288 524.917,293.083 553.75,303.25C582.583,313.417 608.833,327.833 632.5,346.5L969.5,9.5C975.833,3.16669 983.333,0 992,0C1001,0 1008.5,3.16669 1014.5,9.5ZM583.5,730.5C610.833,711.167 632.417,686.583 648.25,656.75C664.083,626.917 672,594.667 672,560C672,522.333 662.667,487.583 644,455.75C625.333,423.917 600.083,398.667 568.25,380C536.417,361.333 501.667,352 464,352C429.333,352 397.083,359.917 367.25,375.75C337.417,391.583 312.833,413.167 293.5,440.5ZM83.5,582.5L441.5,940.5L540,776.5L247.5,484Z" fill="context-fill" fill-opacity="context-fill-opacity">
  </path>
</svg>