<svg xmlns="http://www.w3.org/2000/svg" width="16" height="16" viewBox="0 0 1024 960"><path fill="context-fill" fill-opacity="context-fill-opacity" d="M125.5 960q-25 0-47.75-10.25t-40-27.5-27.5-40T0 834.5v-581q0-26 10.5-48.75t28-39.75 40.75-27T128 128h140l37.5-75q6-12 15.25-21.75t20.5-16.75 24-10.75T391.5 0h241q13.5 0 26.25 3.75t24 10.75 20.5 16.75A89.7 89.7 0 0 1 718.5 53l37.5 75h142.5q25 0 47.75 10.25t40 27.5c11.5 11.5 20.67 24.833 27.5 40S1024 236.833 1024 253.5v581c0 16.667-3.42 32.583-10.25 47.75s-16 28.5-27.5 40q-17.25 17.25-40 27.5T898.5 960ZM896 896q13.5 0 25-5t20.25-13.75T955 857t5-25V256q0-13-5-24.75t-13.75-20.5-20.5-13.75-24.75-5H736q-9 0-16.75-4.75T707.5 174.5l-46.5-93q-4-8-11.75-12.75T632.5 64h-241q-9 0-16.75 4.75T363 81.5l-46.5 93q-4 8-11.75 12.75T288 192H128q-13.5 0-25 5t-20.25 13.75T69 231t-5 25v576q0 13.5 5 25.25t13.5 20.25 20.25 13.5 25.25 5ZM256 507q0-50.5 20.25-96T331 331t80-54.75T507 256q55.5 0 103.25 20T693 331t55 82.75T768 517q0 52-20.75 97.75T691.5 694.5 610 748.25 512 768q-54.5 0-101.25-20.5t-81.25-56-54-83T256 507m448 1q0-39-15.5-73.25T646.75 375t-61.25-40.25T512 320q-40 0-75 15t-61 41-41 61-15 75 15 75 41 61 61 41 75 15q41 0 76.25-15.25t61-42 40.25-62.5T704 508"/></svg>