<svg xmlns="http://www.w3.org/2000/svg" width="16" height="16" viewBox="0 192 1024 640"><path fill="context-fill" fill-opacity="context-fill-opacity" d="M898.5 192q25 0 47.75 10.25t40 27.5c11.5 11.5 20.67 24.833 27.5 40S1024 300.833 1024 317.5v389c0 16.667-3.42 32.583-10.25 47.75s-16 28.5-27.5 40q-17.25 17.25-40 27.5T898.5 832h-773q-25 0-47.75-10.25t-40-27.5-27.5-40T0 706.5v-389q0-25 10.25-47.75t27.5-40 40-27.5T125.5 192ZM128 256q-13.5 0-25 5t-20.25 13.75T69 295t-5 25v64h896v-64q0-13-5-24.75t-13.75-20.5-20.5-13.75-24.75-5Zm768 512q13.5 0 25-5t20.25-13.75T955 729t5-25V448H64v256q0 13.5 5 25.25t13.5 20.25 20.25 13.5 25.25 5Zm-32-128q13 0 22.5 9.5T896 672t-9.5 22.5T864 704H736q-13 0-22.5-9.5T704 672t9.5-22.5T736 640Z"/></svg>