<svg height="16" viewBox="192 64 576 896" width="16" xmlns="http://www.w3.org/2000/svg" xmlns:xlink="http://www.w3.org/1999/xlink">
  <path d="M192,512C192,495.667 195.333,480.5 202,466.5C208.667,452.5 218.167,440.167 230.5,429.5L635,83.5C650,70.5001 667.5,64.0001 687.5,64C698.5,64.0001 708.833,66.0001 718.5,70C728.167,74.0001 736.667,79.5834 744,86.75C751.333,93.9167 757.167,102.25 761.5,111.75C765.833,121.25 768,131.5 768,142.5L768,881.5C768,892.5 765.833,902.75 761.5,912.25C757.167,921.75 751.333,930.083 744,937.25C736.667,944.417 728.167,950 718.5,954C708.833,958 698.5,960 687.5,960C667.5,960 650,953.5 635,940.5L230.5,594.5C218.167,583.833 208.667,571.5 202,557.5C195.333,543.5 192,528.333 192,512Z" fill="context-fill" fill-opacity="context-fill-opacity">
  </path>
</svg>