<svg height="100%" viewBox="256 384 448 320" width="100%" xmlns="http://www.w3.org/2000/svg" xmlns:xlink="http://www.w3.org/1999/xlink">
  <path d="M256,544C256,535.333 259.167,527.833 265.5,521.5C271.833,515.167 279.333,512 288,512C296.667,512 304.167,515.167 310.5,521.5L416,626.5L649.5,393.5C655.833,387.167 663.333,384 672,384C680.667,384 688.167,387.167 694.5,393.5C700.833,399.833 704,407.333 704,416C704,424.667 700.833,432.167 694.5,438.5L438.5,694.5C432.167,700.833 424.667,704 416,704C407.333,704 399.833,700.833 393.5,694.5L265.5,566.5C259.167,560.167 256,552.667 256,544Z" fill="context-fill" fill-opacity="context-fill-opacity">
  </path>
</svg>