<svg xmlns="http://www.w3.org/2000/svg" width="16" height="16" fill="none" viewBox="0 0 16 16"><g clip-path="url(#a)"><path fill="context-fill" fill-opacity="context-fill-opacity" d="m8 9.133-6.633 6.633A.77.77 0 0 1 .805 16a.78.78 0 0 1-.575-.23.78.78 0 0 1-.23-.575q0-.328.234-.562L6.867 8 .234 1.367A.78.78 0 0 1 0 .797.8.8 0 0 1 .234.23.83.83 0 0 1 .804 0q.33 0 .563.234L8 6.867 14.633.234a.78.78 0 0 1 .57-.234q.164 0 .309.063a.8.8 0 0 1 .425.425Q16 .634 16 .797a.78.78 0 0 1-.234.57L9.133 8l6.633 6.633a.77.77 0 0 1 .234.562q0 .165-.062.313a.8.8 0 0 1-.168.258.796.796 0 0 1-.566.234.78.78 0 0 1-.571-.234z"/></g><defs><clipPath id="a"><path d="M0 0h16v16H0z"/></clipPath></defs></svg>