<svg height="16" viewBox="64 64 896 896" width="16" xmlns="http://www.w3.org/2000/svg" xmlns:xlink="http://www.w3.org/1999/xlink">
  <path d="M864,64C877,64.0001 889.333,66.5001 901,71.5C912.667,76.5001 922.917,83.4167 931.75,92.25C940.583,101.083 947.5,111.333 952.5,123C957.5,134.667 960,147 960,160L960,544C960,557 957.5,569.333 952.5,581C947.5,592.667 940.583,602.917 931.75,611.75C922.917,620.583 912.667,627.5 901,632.5C889.333,637.5 877,640 864,640L704,640L704,704L721,704C726.667,704 732.25,704.333 737.75,705C743.25,705.667 748.25,707.083 752.75,709.25C757.25,711.417 760.917,714.583 763.75,718.75C766.583,722.917 768,728.667 768,736C768,744.667 764.833,752.167 758.5,758.5C752.167,764.833 744.667,768 736,768L576,768L576,704L640,704L640,640L576,640L576,576L864,576C872.667,576 880.167,572.833 886.5,566.5C892.833,560.167 896,552.667 896,544L896,160C896,151.333 892.833,143.833 886.5,137.5C880.167,131.167 872.667,128 864,128L288,128C279.333,128 271.833,131.167 265.5,137.5C259.167,143.833 256,151.333 256,160L256,256L192,256L192,160C192,147 194.5,134.667 199.5,123C204.5,111.333 211.417,101.083 220.25,92.25C229.083,83.4167 239.333,76.5001 251,71.5C262.667,66.5001 275,64.0001 288,64ZM416,320C429,320 441.333,322.5 453,327.5C464.667,332.5 474.917,339.417 483.75,348.25C492.583,357.083 499.5,367.333 504.5,379C509.5,390.667 512,403 512,416L512,864C512,877 509.5,889.333 504.5,901C499.5,912.667 492.583,922.917 483.75,931.75C474.917,940.583 464.667,947.5 453,952.5C441.333,957.5 429,960 416,960L160,960C147,960 134.667,957.5 123,952.5C111.333,947.5 101.083,940.583 92.25,931.75C83.4167,922.917 76.5,912.667 71.5,901C66.5,889.333 64,877 64,864L64,416C64,403 66.5,390.667 71.5,379C76.5,367.333 83.4167,357.083 92.25,348.25C101.083,339.417 111.333,332.5 123,327.5C134.667,322.5 147,320 160,320ZM448,416C448,407.333 444.833,399.833 438.5,393.5C432.167,387.167 424.667,384 416,384L160,384C151.333,384 143.833,387.167 137.5,393.5C131.167,399.833 128,407.333 128,416L128,864C128,872.667 131.167,880.167 137.5,886.5C143.833,892.833 151.333,896 160,896L416,896C424.667,896 432.167,892.833 438.5,886.5C444.833,880.167 448,872.667 448,864ZM352,768C360.667,768 368.167,771.167 374.5,777.5C380.833,783.833 384,791.333 384,800C384,808.667 380.833,816.167 374.5,822.5C368.167,828.833 360.667,832 352,832L224,832C215.333,832 207.833,828.833 201.5,822.5C195.167,816.167 192,808.667 192,800C192,791.333 195.167,783.833 201.5,777.5C207.833,771.167 215.333,768 224,768Z" fill="context-fill" fill-opacity="context-fill-opacity">
  </path>
</svg>