<svg xmlns="http://www.w3.org/2000/svg" width="16" height="16" viewBox="64 64 896 896"><path fill="context-fill" fill-opacity="context-fill-opacity" d="M864 64q19.5 0 37 7.5t30.75 20.75T952.5 123t7.5 37v384q0 19.5-7.5 37t-20.75 30.75T901 632.5t-37 7.5H704v64h17q8.5 0 16.75 1t15 4.25 11 9.5T768 736q0 13-9.5 22.5T736 768H576v-64h64v-64h-64v-64h288q13 0 22.5-9.5T896 544V160q0-13-9.5-22.5T864 128H288q-13 0-22.5 9.5T256 160v96h-64v-96q0-19.5 7.5-37t20.75-30.75T251 71.5t37-7.5ZM416 320q19.5 0 37 7.5t30.75 20.75T504.5 379t7.5 37v448q0 19.5-7.5 37t-20.75 30.75T453 952.5t-37 7.5H160q-19.5 0-37-7.5t-30.75-20.75T71.5 901 64 864V416q0-19.5 7.5-37t20.75-30.75T123 327.5t37-7.5Zm32 96q0-13-9.5-22.5T416 384H160q-13 0-22.5 9.5T128 416v448q0 13 9.5 22.5T160 896h256q13 0 22.5-9.5T448 864Zm-96 352q13 0 22.5 9.5T384 800t-9.5 22.5T352 832H224q-13 0-22.5-9.5T192 800t9.5-22.5T224 768Z"/></svg>