<svg xmlns="http://www.w3.org/2000/svg" width="16" height="16" fill="none" viewBox="0 0 16 16"><path fill="context-fill" fill-opacity="context-fill-opacity" d="M12.063 1q.585 0 1.12.238.536.24.938.64.403.404.64.938.24.535.239 1.122v8.124q0 .587-.238 1.122-.24.534-.64.937-.405.403-.938.64-.535.24-1.121.239H3.937q-.586 0-1.12-.238a3.1 3.1 0 0 1-.938-.64 3.1 3.1 0 0 1-.64-.938A2.7 2.7 0 0 1 1 12.063V3.937q0-.586.238-1.12a3.1 3.1 0 0 1 .64-.938 3.1 3.1 0 0 1 .938-.64Q3.351.998 3.938 1zM2 12.04q0 .39.16.745a2.1 2.1 0 0 0 1.055 1.055q.356.16.746.16h8.078q.391 0 .746-.16a2.1 2.1 0 0 0 1.055-1.055q.16-.356.16-.746V5H2zM4.5 7a.48.48 0 0 1 .352.148l2 2A.48.48 0 0 1 7 9.5a.48.48 0 0 1-.148.352l-2 2A.48.48 0 0 1 4.5 12a.48.48 0 0 1-.352-.148A.48.48 0 0 1 4 11.5a.48.48 0 0 1 .148-.352L5.797 9.5 4.148 7.852A.48.48 0 0 1 4 7.5a.48.48 0 0 1 .148-.352A.48.48 0 0 1 4.5 7m7 4a.48.48 0 0 1 .352.148.48.48 0 0 1 .148.352.48.48 0 0 1-.148.352.48.48 0 0 1-.352.148h-4a.48.48 0 0 1-.352-.148A.48.48 0 0 1 7 11.5a.48.48 0 0 1 .148-.352A.48.48 0 0 1 7.5 11zM3.96 2q-.39 0-.745.16A2.1 2.1 0 0 0 2.16 3.215Q2 3.57 2 3.96V4h12v-.04q0-.39-.16-.745a2.1 2.1 0 0 0-1.055-1.055A1.8 1.8 0 0 0 12.04 2z"/></svg>