<svg xmlns="http://www.w3.org/2000/svg" width="16" height="16" viewBox="64 0 896 1024"><path fill="context-fill" fill-opacity="context-fill-opacity" d="M256 251q0-52 20.75-97.75t56-79.75 81.5-53.75T512 0q53 0 99.75 20t81.5 54.75 54.75 81.5T768 256t-20 99.75-54.75 81.5-81.5 54.75T512 512q-54.5 0-101.25-20.5t-81.25-56-54-83T256 251m448 1q0-39-15.5-73.25T646.75 119 585.5 78.75 512 64q-40 0-75 15t-61 41-41 61-15 75 15 75 41 61 61 41 75 15q41 0 76.25-15.25t61-42 40.25-62.5T704 252M64 704q0-25.5 10-48.75t27-40.75 39.75-28T189.5 576H832q25.5 0 48.75 10t40.75 27 28 39.75T960 701.5q0 61.5-19 109.5t-51.5 83.75-76.25 60.5-93.5 40c-33.167 10.17-67.5 17.5-103 22Q563.5 1024 512 1024q-49.5 0-98.5-5.25A577.3 577.3 0 0 1 317 1000q-54-15.5-100.25-41.5t-80.25-62.75-53.25-84.5T64 704m832 0q0-13-5-24.75t-13.75-20.5-20.5-13.75-24.75-5H192q-13.5 0-25 5t-20.25 13.75T133 679t-5 25q0 51.5 17 90.25t46 67.25 67.25 47.5 81 30.25 87.25 16T512 960t85.5-4.75 87.25-16 81-30.25T833 861.5t46-67.5 17-90"/></svg>