<svg xmlns="http://www.w3.org/2000/svg" width="14" height="14" fill="none" viewBox="0 0 14 14"><g clip-path="url(#a)"><path fill="context-fill" fill-opacity="context-fill-opacity" d="M7.396 10.556q-.438 0-.833-.177a2.3 2.3 0 0 1-.691-.473 2.3 2.3 0 0 1-.473-.69 2 2 0 0 1-.177-.834v-5.43q0-.438.177-.834t.473-.69a2.3 2.3 0 0 1 .69-.473q.396-.177.834-.177h3.653q.438 0 .833.177.396.177.69.472.297.295.473.691.177.396.177.833v5.43q0 .439-.177.834a2.3 2.3 0 0 1-.472.691 2.3 2.3 0 0 1-.691.473 2 2 0 0 1-.833.177zM11 9.666q.27 0 .514-.104a1.35 1.35 0 0 0 .715-.715q.105-.243.104-.514V3q0-.27-.104-.514a1.35 1.35 0 0 0-.715-.715A1.3 1.3 0 0 0 11 1.667H7.444q-.27 0-.513.104a1.35 1.35 0 0 0-.716.715A1.3 1.3 0 0 0 6.111 3v5.333q0 .27.104.514a1.35 1.35 0 0 0 .716.716q.243.104.513.104zm-8.049 3.556q-.437 0-.833-.177a2.3 2.3 0 0 1-.69-.472 2.3 2.3 0 0 1-.473-.691 2 2 0 0 1-.177-.833v-5.43q0-.439.177-.834a2.3 2.3 0 0 1 .472-.691 2.3 2.3 0 0 1 .691-.472q.396-.178.833-.178h1.382v.89H3q-.27 0-.514.104a1.35 1.35 0 0 0-.715.715 1.3 1.3 0 0 0-.104.514V11q0 .27.104.514a1.35 1.35 0 0 0 .715.715q.243.105.514.104h3.556a1.33 1.33 0 0 0 1.062-.524q.125-.163.194-.365h.924q-.076.382-.281.709a2.27 2.27 0 0 1-1.15.934q-.36.135-.75.135z"/></g><defs><clipPath id="a"><path d="M0 0h14v14H0z"/></clipPath></defs></svg>