<svg xmlns="http://www.w3.org/2000/svg" width="16" height="16" fill="none" viewBox="0 0 16 16"><g clip-path="url(#a)"><path fill="context-fill" fill-opacity="context-fill-opacity" d="M3.88.94C4.072.394 4.59 0 5.2 0H8c.61 0 1.128.393 1.32.94h1.48c.773 0 1.4.633 1.4 1.412v6.116h-.933V2.352c0-.26-.21-.47-.467-.47H9.32c-.192.548-.71.94-1.32.94H5.2c-.61 0-1.128-.392-1.32-.94H2.4a.47.47 0 0 0-.467.47v11.291c0 .26.21.47.467.47h2.572q.178.506.469.942H2.4c-.773 0-1.4-.632-1.4-1.412V2.353C1 1.572 1.627.94 2.4.94zm1.32 0a.47.47 0 0 0-.467.471c0 .26.21.47.467.47H8c.258 0 .467-.21.467-.47S8.257.941 8 .941zM15 12.703c0-1.818-1.463-3.293-3.267-3.293l-.084.008a.47.47 0 0 0-.382.463c0 .26.209.47.466.47l.154.005c1.217.08 2.18 1.1 2.18 2.347 0 1.3-1.045 2.353-2.334 2.353l-.002.004-.084.008a.47.47 0 0 0-.38.465c0 .26.21.47.469.468v-.004l.178-.005c1.72-.094 3.086-1.53 3.086-3.289M9.4 9.88c0-.26-.209-.47-.467-.47l-.179.004c-1.72.094-3.087 1.53-3.087 3.288 0 1.82 1.462 3.294 3.266 3.294l.084-.008a.47.47 0 0 0 .383-.463c0-.26-.209-.47-.467-.47l-.153-.005a2.345 2.345 0 0 1-2.18-2.348c0-1.299 1.045-2.352 2.333-2.352l.084-.008A.47.47 0 0 0 9.4 9.88m2.333 2.354-2.8-.002-.083.008a.47.47 0 0 0-.383.462c0 .26.208.47.466.47l2.8.003.084-.008a.47.47 0 0 0 .383-.462c0-.26-.209-.47-.466-.47"/></g><defs><clipPath id="a"><path d="M0 0h16v16H0z"/></clipPath></defs></svg>