<svg xmlns="http://www.w3.org/2000/svg" width="16" height="16" viewBox="0 0 16 16"><path fill="context-fill" fill-opacity="context-fill-opacity" d="M3.88.941C4.072.393 4.59 0 5.2 0H8c.61 0 1.128.393 1.32.941h1.48c.773 0 1.4.632 1.4 1.412v4.235h-.933V2.353c0-.26-.21-.47-.467-.47H9.32c-.192.548-.71.94-1.32.94H5.2c-.61 0-1.128-.392-1.32-.94H2.4a.47.47 0 0 0-.467.47v11.294c0 .26.21.47.467.47h3.3c.047.333.143.65.281.942H2.4c-.773 0-1.4-.632-1.4-1.412V2.353C1 1.573 1.627.94 2.4.94zm1.32 0a.47.47 0 0 0-.467.47c0 .26.21.471.467.471H8c.258 0 .467-.21.467-.47S8.257.942 8 .942zm1.4 8.941c0-1.3 1.045-2.353 2.333-2.353h3.734A2.343 2.343 0 0 1 15 9.882v3.765c0 .48-.142.926-.387 1.298l-2.823-2.847a1.39 1.39 0 0 0-1.98 0l-2.823 2.847a2.36 2.36 0 0 1-.387-1.298zm6.533.236a.703.703 0 0 0-.7-.706c-.386 0-.7.316-.7.706s.314.705.7.705c.387 0 .7-.316.7-.705M7.647 15.61c.368.247.81.39 1.286.39h3.734c.475 0 .918-.143 1.287-.39l-2.824-2.847a.464.464 0 0 0-.66 0z"/></svg>