<svg xmlns="http://www.w3.org/2000/svg" width="16" height="16" viewBox="32 0 960 1024"><path fill="context-fill" fill-opacity="context-fill-opacity" d="M992 160q0 11-4.25 17.5t-11.25 9.75-15.5 4.25-17.5 1q-5 0-10-.25t-9-.25l-83 718.5q-3 24-14 44.75t-28 36q-17 15.255-39 24c-14.667 5.83-30 8.75-46 8.75h-405c-16 0-31.333-2.92-46-8.75q-22-8.745-39-24-17-15.25-28-36t-14-44.75L99.5 192q-5 0-10 .25t-10 .25q-8.5 0-17-1T47.25 187t-11-10T32 160q0-13 9.5-22.5T64 128h291q5-27.5 19.75-51t36-40.75T458 9.5 512 0t54 9.5 47.25 26.75 36 40.75T669 128h291q13 0 22.5 9.5T992 160m-570.5-32h181q-5-14.5-14-26.25t-21-20.25-26-13T512 64t-29.5 4.5-26 13-21 20.25-14 26.25M860 192H164l82 711.5q3 25 20.75 40.75T309.5 960h405q12 0 23-4.25T757 944t14-18 7-22.5ZM384 736V416q0-13 9.5-22.5T416 384t22.5 9.5T448 416v320q0 13-9.5 22.5T416 768t-22.5-9.5T384 736m192 0V416q0-13 9.5-22.5T608 384t22.5 9.5T640 416v320q0 13-9.5 22.5T608 768t-22.5-9.5T576 736"/></svg>