<svg height="100%" viewBox="0 0 1024 1024" width="100%" xmlns="http://www.w3.org/2000/svg" xmlns:xlink="http://www.w3.org/1999/xlink">
  <path d="M448,896L448,832L640,832L640,704L448,704L448,640L896,640C905,640 913.333,638.333 921,635C928.667,631.667 935.417,627.083 941.25,621.25C947.083,615.417 951.667,608.667 955,601C958.333,593.333 960,585 960,576L960,128C960,119.333 958.333,111.083 955,103.25C951.667,95.4167 947.083,88.5834 941.25,82.75C935.417,76.9167 928.583,72.3334 920.75,69C912.917,65.6667 904.667,64.0001 896,64L256,64C247,64.0001 238.667,65.6667 231,69C223.333,72.3334 216.583,76.9167 210.75,82.75C204.917,88.5834 200.333,95.3334 197,103C193.667,110.667 192,119 192,128L192,320L128,320L128,125.5C128,108.833 131.417,92.9167 138.25,77.75C145.083,62.5834 154.25,49.2501 165.75,37.75C177.25,26.2501 190.583,17.0834 205.75,10.25C220.917,3.41669 236.833,0 253.5,0L898.5,0C915.167,0 931.083,3.41669 946.25,10.25C961.417,17.0834 974.75,26.2501 986.25,37.75C997.75,49.2501 1006.92,62.5834 1013.75,77.75C1020.58,92.9167 1024,108.833 1024,125.5L1024,578.5C1024,595.833 1020.5,612.083 1013.5,627.25C1006.5,642.417 997.167,655.667 985.5,667C973.833,678.333 960.25,687.333 944.75,694C929.25,700.667 913,704 896,704L704,704L704,832L800,832C808.667,832 816.167,835.167 822.5,841.5C828.833,847.833 832,855.333 832,864C832,872.667 828.833,880.167 822.5,886.5C816.167,892.833 808.667,896 800,896ZM96,1024C83,1024 70.6667,1021.5 59,1016.5C47.3333,1011.5 37.0833,1004.58 28.25,995.75C19.4167,986.917 12.5,976.667 7.5,965C2.5,953.333 0,941 0,928L0,480C0,467 2.5,454.667 7.5,443C12.5,431.333 19.4167,421.083 28.25,412.25C37.0833,403.417 47.3333,396.5 59,391.5C70.6667,386.5 83,384 96,384L288,384C301,384 313.333,386.5 325,391.5C336.667,396.5 346.917,403.417 355.75,412.25C364.583,421.083 371.5,431.333 376.5,443C381.5,454.667 384,467 384,480L384,928C384,941 381.5,953.333 376.5,965C371.5,976.667 364.583,986.917 355.75,995.75C346.917,1004.58 336.667,1011.5 325,1016.5C313.333,1021.5 301,1024 288,1024ZM288,960C296.667,960 304.167,956.833 310.5,950.5C316.833,944.167 320,936.667 320,928L320,480C320,471.333 316.833,463.833 310.5,457.5C304.167,451.167 296.667,448 288,448L96,448C87.3333,448 79.8333,451.167 73.5,457.5C67.1667,463.833 64,471.333 64,480L64,928C64,936.667 67.1667,944.167 73.5,950.5C79.8333,956.833 87.3333,960 96,960ZM160,896C151.333,896 143.833,892.833 137.5,886.5C131.167,880.167 128,872.667 128,864C128,855.333 131.167,847.833 137.5,841.5C143.833,835.167 151.333,832 160,832L224,832C232.667,832 240.167,835.167 246.5,841.5C252.833,847.833 256,855.333 256,864C256,872.667 252.833,880.167 246.5,886.5C240.167,892.833 232.667,896 224,896Z" fill="context-fill" fill-opacity="context-fill-opacity">
  </path>
</svg>