<svg xmlns="http://www.w3.org/2000/svg" width="16" height="16" viewBox="0 0 1024 1024"><path fill="context-fill" fill-opacity="context-fill-opacity" d="M448 896v-64h192V704H448v-64h448q13.5 0 25-5t20.25-13.75T955 601t5-25V128q0-13-5-24.75t-13.75-20.5T920.75 69 896 64H256q-13.5 0-25 5t-20.25 13.75T197 103t-5 25v192h-64V125.5q0-25 10.25-47.75t27.5-40 40-27.5T253.5 0h645q25 0 47.75 10.25t40 27.5c11.5 11.5 20.67 24.833 27.5 40S1024 108.833 1024 125.5v453q0 26-10.5 48.75t-28 39.75-40.75 27T896 704H704v128h96q13 0 22.5 9.5T832 864t-9.5 22.5T800 896ZM96 1024q-19.5 0-37-7.5c-11.667-5-21.917-11.92-30.75-20.75Q15 982.5 7.5 965T0 928V480q0-19.5 7.5-37t20.75-30.75T59 391.5t37-7.5h192q19.5 0 37 7.5t30.75 20.75T376.5 443t7.5 37v448q0 19.5-7.5 37t-20.75 30.75c-8.833 8.83-19.083 15.75-30.75 20.75q-17.5 7.5-37 7.5Zm192-64q13 0 22.5-9.5T320 928V480q0-13-9.5-22.5T288 448H96q-13 0-22.5 9.5T64 480v448q0 13 9.5 22.5T96 960Zm-128-64q-13 0-22.5-9.5T128 864t9.5-22.5T160 832h64q13 0 22.5 9.5T256 864t-9.5 22.5T224 896Z"/></svg>