<svg xmlns="http://www.w3.org/2000/svg" width="16" height="16" fill="none" viewBox="0 0 16 16"><g clip-path="url(#a)"><path fill="context-fill" fill-opacity="context-fill-opacity" d="M4.5 6q.305 0 .578.117a1.52 1.52 0 0 1 .805.805Q6 7.195 6 7.5v7q0 .305-.117.578a1.52 1.52 0 0 1-.805.805A1.5 1.5 0 0 1 4.5 16h-3q-.305 0-.578-.117a1.52 1.52 0 0 1-.805-.805A1.5 1.5 0 0 1 0 14.5v-7q0-.305.117-.578a1.52 1.52 0 0 1 .805-.805Q1.195 6 1.5 6zm-2 7a.48.48 0 0 0-.352.148A.48.48 0 0 0 2 13.5q0 .203.148.352A.48.48 0 0 0 2.5 14h1a.48.48 0 0 0 .352-.148A.48.48 0 0 0 4 13.5a.48.48 0 0 0-.148-.352A.48.48 0 0 0 3.5 13zM14.04 0q.39 0 .745.16a2.1 2.1 0 0 1 1.055 1.055q.16.356.16.746v7.078q0 .406-.164.762a2.06 2.06 0 0 1-1.074 1.043A1.9 1.9 0 0 1 14 11h-3v2h1.5a.48.48 0 0 1 .352.148.48.48 0 0 1 .148.352.48.48 0 0 1-.148.352.48.48 0 0 1-.352.148H7v-1h3v-2H7v-1h7a.97.97 0 0 0 .707-.293q.137-.137.215-.316A1 1 0 0 0 15 9V2a1.004 1.004 0 0 0-1-1H4a.97.97 0 0 0-.707.293A.97.97 0 0 0 3 2v3H2V1.96q0-.39.16-.745A2.1 2.1 0 0 1 3.215.16Q3.57 0 3.96 0z"/></g><defs><clipPath id="a"><path d="M0 0h16v16H0z"/></clipPath></defs></svg>