<svg xmlns="http://www.w3.org/2000/svg" width="16" height="16" viewBox="128 0 768 1024"><path fill="context-fill" fill-opacity="context-fill-opacity" d="M192 896q0 13.5 5 25.25t13.5 20.25 20.25 13.5 25.25 5h608q13 0 22.5 9.5T896 992q0 13.005-9.5 22.5c-6.333 6.33-13.833 9.5-22.5 9.5H253.5c-16.667 0-32.583-3.42-47.75-10.25s-28.5-16-40-27.5q-17.25-17.25-27.5-40T128 898.5v-773q0-25 10.25-47.75t27.5-40 40-27.5T253.5 0h517q25 0 47.75 10.25t40 27.5 27.5 40T896 125.5V832q0 13.5-5 25t-13.75 20.25T857 891t-25 5Zm0-64h640V128q0-13-5-24.75t-13.75-20.5T792.75 69 768 64H256q-13.5 0-25 5t-20.25 13.75T197 103t-5 25Zm512-704q13 0 24.75 5t20.5 13.75 13.75 20.5 5 24.75v64q0 13.5-5 25t-13.75 20.25T729 315t-25 5H320q-13.5 0-25.25-5t-20.25-13.5-13.5-20.25-5-25.25v-64q0-13.5 5-25t13.75-20.25T295 133t25-5ZM320 256h384v-64H320Z"/></svg>