<svg xmlns="http://www.w3.org/2000/svg" width="16" height="16" viewBox="0 128 1024 768"><path fill="context-fill" fill-opacity="context-fill-opacity" d="M188 896q-37.5 0-71.75-15.25t-60-41-41-60T0 708V316q0-37.5 15.25-71.75t41-60 60-41T188 128h648q37.5 0 71.75 15.25t60 41 41 60C1018.92 267.083 1024 291 1024 316v392c0 25-5.08 48.917-15.25 71.75q-15.25 34.25-41 60t-60 41T836 896Zm132-64V192H189.5q-25 0-47.75 10.25t-40 27.5-27.5 40T64 317.5v389q0 25 10.25 47.75t27.5 40 40 27.5T189.5 832Zm514.5 0q25 0 47.75-10.25t40-27.5 27.5-40T960 706.5v-389q0-25-10.25-47.75t-27.5-40-40-27.5T834.5 192H384v640Z"/></svg>