<svg xmlns="http://www.w3.org/2000/svg" width="16" height="16" viewBox="128 0 768 1024"><path fill="context-fill" fill-opacity="context-fill-opacity" d="M896 392v504q0 26.5-10 49.75t-27.5 40.75c-11.667 11.667-25.25 20.83-40.75 27.5s-32.083 10-49.75 10H256c-17.667 0-34.25-3.33-49.75-10s-29.083-15.833-40.75-27.5Q148 969 138 945.75T128 896V128q0-26.5 10-49.75t27.5-40.75T206.25 10 256 0h248q25.5 0 49 9.75t41.5 27.75l264 264q18 18 27.75 41.5t9.75 49m-64 0v-4q0-2-.5-4H640q-26.5 0-49.75-10t-40.75-27.5-27.5-40.75T512 256V64.5a16.4 16.4 0 0 0-4-.5H256q-13.5 0-25 5t-20.25 13.75T197 103t-5 25v768q0 13.5 5 25.25t13.5 20.25 20.25 13.5 25.25 5h512q13.5 0 25-5t20.25-13.75T827 921t5-25Zm-45-72L576 109v147q0 13.5 5 25.25t13.5 20.25 20.25 13.5 25.25 5Z"/></svg>