<svg xmlns="http://www.w3.org/2000/svg" width="16" height="16" fill="context-fill" fill-opacity="context-fill-opacity" viewBox="0 0 16 16"><path d="M3.294 9q0-.203.14-.352a.44.44 0 0 1 .33-.148.44.44 0 0 1 .332.148l3.433 3.641V.5q0-.203.14-.352A.44.44 0 0 1 8 0a.44.44 0 0 1 .33.148q.14.15.14.352v11.79l3.434-3.642a.44.44 0 0 1 .662 0q.14.15.14.352a.5.5 0 0 1-.14.352l-4.213 4.476a.7.7 0 0 1-.162.133A.4.4 0 0 1 8 14a.45.45 0 0 1-.199-.04.8.8 0 0 1-.154-.132L3.434 9.352A.5.5 0 0 1 3.294 9m9.412 6a.44.44 0 0 1 .33.148q.14.15.14.352a.5.5 0 0 1-.14.352.44.44 0 0 1-.33.148H3.294a.44.44 0 0 1-.33-.148.5.5 0 0 1-.14-.352q0-.203.14-.352a.44.44 0 0 1 .33-.148z"/></svg>