<svg xmlns="http://www.w3.org/2000/svg" width="16" height="16" viewBox="0 0 16 16"><g clip-path="url(#a)"><path fill="context-fill" fill-opacity="context-fill-opacity" d="M0 9.712q0-.048.016-.128.25-.934.656-1.787a9 9 0 0 1 .962-1.586q.556-.732 1.243-1.324A8 8 0 0 1 4.37 3.873a7.6 7.6 0 0 1 1.719-.648A8 8 0 0 1 8 3q1.16 0 2.233.33a8.2 8.2 0 0 1 2.008.926 8.66 8.66 0 0 1 2.994 3.276q.081.151.21.45.128.297.253.628.125.33.213.631.09.303.089.455 0 .21-.153.362a.5.5 0 0 1-.362.153q-.21 0-.314-.108a1 1 0 0 1-.185-.286 1.5 1.5 0 0 1-.12-.338l-.033-.145a3 3 0 0 0-.08-.298 6.2 6.2 0 0 0-.504-1.159 7.6 7.6 0 0 0-.704-1.054 7.6 7.6 0 0 0-1.143-1.18A7.007 7.007 0 0 0 7.92 4.03q-.998.001-1.923.299a7.1 7.1 0 0 0-1.73.825A7.6 7.6 0 0 0 2.8 6.408a8 8 0 0 0-1.119 1.59 6 6 0 0 0-.153.314q-.097.21-.193.443a6 6 0 0 0-.165.442q-.068.21-.068.314 0 .12-.045.246a.8.8 0 0 1-.12.225.7.7 0 0 1-.185.169.44.44 0 0 1-.238.068.5.5 0 0 1-.362-.145A.48.48 0 0 1 0 9.712m4.394-.08q0-.725.294-1.368a3.7 3.7 0 0 1 1.936-1.892A3.4 3.4 0 0 1 8 6.091q.742 0 1.396.285.657.286 1.147.777.491.491.777 1.147.285.656.286 1.396 0 .741-.286 1.397t-.777 1.146-1.147.777q-.655.286-1.396.286-.765 0-1.425-.29a3.6 3.6 0 0 1-1.142-.789 3.7 3.7 0 0 1-1.039-2.591m6.182.008q0-.523-.21-.982a2.6 2.6 0 0 0-1.384-1.34A2.5 2.5 0 0 0 8 7.12q-.54 0-1.006.2a2.6 2.6 0 0 0-1.368 1.37 2.5 2.5 0 0 0-.201 1.005q0 .54.2 1.006a2.6 2.6 0 0 0 1.369 1.368q.467.202 1.006.202.555 0 1.026-.206.471-.204.813-.563a2.67 2.67 0 0 0 .736-1.863"/></g><defs><clipPath id="a"><path d="M0 3h16v10.302H0z"/></clipPath></defs></svg>