<svg width="16" height="16" viewBox="0 0 16 16" fill="none" xmlns="http://www.w3.org/2000/svg">
<g clip-path="url(#clip0_416_7)">
<path d="M15.9842 2.52935C15.9842 2.86764 15.9195 3.19271 15.7899 3.50458C15.6604 3.81644 15.4767 4.0913 15.2389 4.32915L13.5818 5.98624L13.6135 6.02588C13.7615 6.18974 13.8725 6.35492 13.9465 6.52142C14.0205 6.68793 14.0575 6.88218 14.0575 7.10418C14.0575 7.30504 14.0192 7.4993 13.9425 7.68693C13.8659 7.87457 13.7562 8.03976 13.6135 8.18248L12.5114 9.28456C12.3687 9.42199 12.2035 9.53034 12.0159 9.60963C11.8282 9.68892 11.634 9.72856 11.4331 9.72856C11.2481 9.72856 11.0671 9.69553 10.89 9.62945C10.7129 9.56338 10.5557 9.46692 10.4183 9.34006L5.85929 13.899C5.73243 14.0259 5.595 14.1316 5.447 14.2162C5.29901 14.3007 5.1444 14.3708 4.98318 14.4263C4.82195 14.4818 4.65678 14.5254 4.48764 14.5571C4.31849 14.5888 4.1467 14.6179 3.97227 14.6443C3.75027 14.676 3.52562 14.7342 3.29834 14.8187C3.07106 14.9033 2.84641 15.0011 2.6244 15.1121C2.4024 15.2231 2.18568 15.342 1.97426 15.4689C1.76283 15.5958 1.56197 15.7173 1.37168 15.8336C1.28711 15.8864 1.20914 15.9248 1.13778 15.9486C1.06643 15.9724 0.980532 15.9843 0.880103 15.9843C0.763817 15.9843 0.654137 15.9617 0.551064 15.9169C0.447992 15.872 0.358134 15.8111 0.281491 15.7345C0.204848 15.6579 0.14406 15.568 0.0991317 15.4649C0.0542033 15.3619 0.0317383 15.2522 0.0317383 15.1359C0.0317383 15.0408 0.0436312 14.9549 0.0674172 14.8782C0.0912031 14.8016 0.129525 14.721 0.182382 14.6364C0.303956 14.4408 0.42817 14.2386 0.555029 14.0298C0.681887 13.8211 0.799496 13.607 0.907853 13.3876C1.01621 13.1683 1.11135 12.9463 1.19328 12.7216C1.27521 12.497 1.33204 12.2657 1.36375 12.0279C1.38489 11.8534 1.41264 11.6817 1.447 11.5125C1.48136 11.3434 1.52497 11.1782 1.57782 11.017C1.63068 10.8557 1.6994 10.7011 1.78397 10.5531C1.86854 10.4051 1.97426 10.2677 2.10111 10.1408L6.66008 5.58188C6.52794 5.43916 6.43015 5.28191 6.36672 5.11013C6.30329 4.93834 6.27158 4.7573 6.27158 4.56701C6.27158 4.36615 6.30991 4.1719 6.38655 3.98426C6.46318 3.79662 6.57287 3.63143 6.71558 3.48872L7.81767 2.38664C7.96038 2.24392 8.12557 2.13424 8.31321 2.0576C8.50084 1.98096 8.6951 1.94263 8.89596 1.94263C9.32939 1.94263 9.69411 2.09593 9.99011 2.40249L11.6551 0.73748C11.893 0.499621 12.1665 0.315941 12.4757 0.186439C12.785 0.0569387 13.1087 -0.0078125 13.447 -0.0078125C13.7959 -0.0078125 14.1236 0.0595819 14.4302 0.194368C14.7367 0.329156 15.005 0.511515 15.2349 0.741444C15.4648 0.971376 15.6472 1.23963 15.782 1.5462C15.9168 1.85277 15.9842 2.18049 15.9842 2.52935ZM14.9693 2.52935C14.9693 2.31793 14.9297 2.11971 14.8504 1.9347C14.7711 1.7497 14.6627 1.58981 14.5253 1.45502C14.3879 1.32024 14.2267 1.2132 14.0416 1.13391C13.8566 1.05463 13.6584 1.01498 13.447 1.01498C13.2461 1.01498 13.0519 1.0533 12.8642 1.12995C12.6766 1.20659 12.5114 1.31627 12.3687 1.45899L10.7116 3.11607L12.8603 5.27266L14.5253 3.60765C14.668 3.46493 14.7777 3.29975 14.8543 3.11211C14.931 2.92447 14.9693 2.73022 14.9693 2.52935ZM13.0426 7.10418C13.0426 6.96674 12.9924 6.84782 12.892 6.74739L9.25275 3.10814C9.15233 3.00772 9.0334 2.9575 8.89596 2.9575C8.75853 2.9575 8.6396 3.00772 8.53917 3.10814L7.43709 4.21023C7.33667 4.31065 7.28645 4.42958 7.28645 4.56701C7.28645 4.70445 7.33667 4.82338 7.43709 4.9238L10.775 8.26969C10.8226 8.31726 10.8702 8.36615 10.9178 8.41637C10.9653 8.46659 11.0156 8.51416 11.0684 8.55909C11.1213 8.60401 11.1768 8.64102 11.2349 8.67009C11.2931 8.69915 11.3591 8.71369 11.4331 8.71369C11.5706 8.71369 11.6895 8.66347 11.7899 8.56305L12.892 7.46097C12.9924 7.36054 13.0426 7.24161 13.0426 7.10418ZM9.70468 8.62648L7.37366 6.29546L2.81469 10.8544C2.73012 10.939 2.66273 11.0328 2.61251 11.1359C2.56229 11.239 2.52133 11.3473 2.48962 11.461C2.4579 11.5746 2.43412 11.6909 2.41826 11.8098C2.4024 11.9288 2.38655 12.0437 2.37069 12.1547C2.31254 12.5987 2.18701 13.0295 1.99408 13.4471C1.80114 13.8647 1.59368 14.2637 1.37168 14.6443C1.75753 14.417 2.15265 14.2096 2.55701 14.0219C2.96137 13.8343 3.3882 13.7061 3.83749 13.6374C3.93791 13.6215 4.04891 13.603 4.17049 13.5819C4.29207 13.5607 4.41231 13.5343 4.53124 13.5026C4.65017 13.4709 4.76249 13.4299 4.86821 13.3797C4.97393 13.3295 5.06643 13.2647 5.14571 13.1854L9.70468 8.62648Z" fill="context-fill" fill-opacity="context-fill-opacity"/>
</g>
<defs>
<clipPath id="clip0_416_7">
<rect width="16" height="16"/>
</clipPath>
</defs>
</svg>
