<svg xmlns="http://www.w3.org/2000/svg" width="16" height="16" fill="none" viewBox="0 0 16 16"><path fill="context-fill" fill-opacity="context-fill-opacity" d="M0 2.5q0-.312.117-.586a1.5 1.5 0 0 1 .797-.797Q1.188 1 1.5 1h13q.313 0 .586.117a1.5 1.5 0 0 1 .797.797Q16 2.188 16 2.5q0 .641-.469 1.086L10.47 8.414a1.832 1.832 0 0 0-.344.492Q10 9.18 10 9.5v6a.48.48 0 0 1-.148.352.48.48 0 0 1-.625.062l-3-2A.47.47 0 0 1 6 13.5v-4q0-.312-.117-.594a1.4 1.4 0 0 0-.153-.261 2 2 0 0 0-.199-.23L.47 3.584A1.44 1.44 0 0 1 0 2.5m15-.008a.47.47 0 0 0-.148-.347A.49.49 0 0 0 14.5 2h-13a.49.49 0 0 0-.352.145.47.47 0 0 0-.148.347.47.47 0 0 0 .156.367l5.07 4.829q.367.351.57.828Q7 8.992 7 9.5v3.734l2 1.329V9.5q0-.508.203-.984a2.5 2.5 0 0 1 .57-.828l5.07-4.829A.47.47 0 0 0 15 2.492"/></svg>