<svg xmlns="http://www.w3.org/2000/svg" width="16" height="16" viewBox="128 0 768 1024"><path fill="context-fill" fill-opacity="context-fill-opacity" d="M128 624q0-51.5 12.25-101.5T177.5 427q4-7 8.25-14.5t9.25-14q5.5-7 11.5-10.75T222 384q8 0 15.5 4t11.5 11l66.5 108.5q4.5 7.5 12.25 11.75t16.75 4.25q17 0 26.75-12.5t9.75-28.5q0-7-1.75-12.75A126 126 0 0 0 375 458q-20.5-44-33.5-86.75t-13-92.25q0-63 21.25-110.5t58.5-81.5 87.25-55T602.5.5q2-.5 5.5-.5 11.5 0 20.5 7.5Q640 17.5 640 32q0 75 25.5 143.25T736 302.5q27.5 36 55.75 72.75t51.5 76 38 82T896 624q0 53.5-13.25 104T845 823t-59 81.25-77.25 63.5-92.5 41.5C583.083 1019.08 548.333 1024 512 1024c-36.667 0-71.5-4.92-104.5-14.75q-49.5-14.75-92.25-41.5T238 904.25 179 823t-37.75-95T128 624m704-3.5q0-38.5-14.75-76.25t-37-73.25a784 784 0 0 0-48-68.25Q706.5 370 684.5 340.5q-45-59.5-72.5-127.25T577.5 71Q537 81 503.25 98.5t-58.5 43.25-38.5 60T392.5 280q0 40 10.75 76.5t28.25 72q6.5 13 9.75 26.5t3.25 28q0 21-7.25 40.25t-20.5 33.5-31.5 22.75T345 588q-26.5 0-48.25-12.25T261 541a1307 1307 0 0 1-19.25-30.75A7817 7817 0 0 0 223 479.5q-31 69-31 144.5 0 45 11 87.25t31.25 79.5 49 68.5 64.25 53.5 77 34.75T512 960q70 0 128.75-27.75T742 857.75t66.25-108.25 23.75-129"/></svg>