<svg xmlns="http://www.w3.org/2000/svg" width="16" height="16" viewBox="0 64 1024 896"><path fill="context-fill" fill-opacity="context-fill-opacity" d="M986.5 229.5q18 18 27.75 41.5t9.75 49v512q0 25.5-9.75 49t-27.75 41.5-41.5 27.75-49 9.75H128q-25.5 0-49-9.75T37.5 922.5 9.75 881 0 832V192q0-25.5 9.75-49t27.75-41.5T79 73.75 128 64h240q30.5 0 57 13.5Q452 91 470.5 115l57.5 77h368q25.5 0 49 9.75t41.5 27.75M128 128q-26.5 0-45.25 18.75T64 192v64h323q19.5 0 35.5-10.5L466 216l-47-62.5q-9-12-22.5-18.75T368 128Zm832 192q0-26.5-18.75-45.25T896 256H522l-64 42.5Q426 320 387 320H64v512q0 26.5 18.75 45.25T128 896h768q26.5 0 45.25-18.75T960 832Z"/></svg>