<svg height="16" viewBox="0 64 1024 896" width="16" xmlns="http://www.w3.org/2000/svg" xmlns:xlink="http://www.w3.org/1999/xlink">
  <path d="M986.5,229.5C998.5,241.5 1007.75,255.333 1014.25,271C1020.75,286.667 1024,303 1024,320L1024,832C1024,849 1020.75,865.333 1014.25,881C1007.75,896.667 998.5,910.5 986.5,922.5C974.5,934.5 960.667,943.75 945,950.25C929.333,956.75 913,960 896,960L128,960C111,960 94.6667,956.75 79,950.25C63.3333,943.75 49.5,934.5 37.5,922.5C25.5,910.5 16.25,896.667 9.75,881C3.25,865.333 0,849 0,832L0,192C0,175 3.25,158.667 9.75,143C16.25,127.333 25.5,113.5 37.5,101.5C49.5,89.5001 63.3333,80.2501 79,73.75C94.6667,67.2501 111,64.0001 128,64L368,64C388.333,64.0001 407.333,68.5001 425,77.5C443,86.5001 458.167,99.0001 470.5,115L528,192L896,192C913,192 929.333,195.25 945,201.75C960.667,208.25 974.5,217.5 986.5,229.5ZM128,128C110.333,128 95.25,134.25 82.75,146.75C70.25,159.25 64,174.333 64,192L64,256L387,256C400,256 411.833,252.5 422.5,245.5L466,216L419,153.5C413,145.5 405.5,139.25 396.5,134.75C387.5,130.25 378,128 368,128ZM960,320C960,302.333 953.75,287.25 941.25,274.75C928.75,262.25 913.667,256 896,256L522,256L458,298.5C436.667,312.833 413,320 387,320L64,320L64,832C64,849.667 70.25,864.75 82.75,877.25C95.25,889.75 110.333,896 128,896L896,896C913.667,896 928.75,889.75 941.25,877.25C953.75,864.75 960,849.667 960,832Z" fill="context-fill" fill-opacity="context-fill-opacity">
  </path>
</svg>