<svg xmlns="http://www.w3.org/2000/svg" width="16" height="16" fill="none" viewBox="0 0 16 16"><g clip-path="url(#a)"><path fill="context-fill" fill-opacity="context-fill-opacity" d="M12 3a1 1 0 0 0 1 1h2a.5.5 0 0 1 0 1h-2a2 2 0 0 1-2-2V1a.5.5 0 0 1 1 0zM4 13a1 1 0 0 0-1-1H1a.5.5 0 0 1 0-1h2a2 2 0 0 1 2 2v2a.5.5 0 0 1-1 0zm8 0a1 1 0 0 1 1-1h2a.5.5 0 0 0 0-1h-2a2 2 0 0 0-2 2v2a.5.5 0 0 0 1 0zM3 4a1 1 0 0 0 1-1V1a.5.5 0 0 1 1 0v2a2 2 0 0 1-2 2H1a.5.5 0 0 1 0-1z"/></g><defs><clipPath id="a"><path d="M0 0h16v16H0z"/></clipPath></defs></svg>