<svg xmlns="http://www.w3.org/2000/svg" width="16" height="16" fill="none" viewBox="0 0 16 16"><path fill="context-fill" fill-opacity="context-fill-opacity" d="M1 3a2 2 0 0 1 2-2h2a.5.5 0 0 1 0 1H3a1 1 0 0 0-1 1v2a.5.5 0 0 1-1 0zm9.5-1.5A.5.5 0 0 1 11 1h2a2 2 0 0 1 2 2v2a.5.5 0 0 1-1 0V3a1 1 0 0 0-1-1h-2a.5.5 0 0 1-.5-.5m-9 9a.5.5 0 0 1 .5.5v2a1 1 0 0 0 1 1h2a.5.5 0 0 1 0 1H3a2 2 0 0 1-2-2v-2a.5.5 0 0 1 .5-.5m13 0a.5.5 0 0 1 .5.5v2a2 2 0 0 1-2 2h-2a.5.5 0 0 1 0-1h2a1 1 0 0 0 1-1v-2a.5.5 0 0 1 .5-.5"/></svg>