<svg xmlns="http://www.w3.org/2000/svg" width="16" height="16" viewBox="0 0 1024 1024"><path fill="context-fill" fill-opacity="context-fill-opacity" d="M1024 512c0 47.333-6.08 92.75-18.25 136.25q-18.25 65.25-51.5 122.25t-80 103.75-103.75 80-122.5 51.5c-43.667 12.17-89 18.25-136 18.25-47.333 0-92.75-6.08-136.25-18.25q-65.25-18.25-122.25-51.5t-103.75-80-80-103.75T18.25 648 0 512t18.25-136 51.5-122.5 80-103.75 103.75-80T376 18.25 512 0t136 18.25 122.5 51.5 103.75 80 80 103.75 51.5 122.5c12.17 43.667 18.25 89 18.25 136M339.5 320h345q-4-19.5-11.5-46t-18.5-55-25.25-56.25-32-49.75-39-35.5T512 64t-46.25 13.5-39 35.5-32 49.75T369.5 219 351 274t-11.5 46M107 320h167a738.7 738.7 0 0 1 33.25-121Q329 140 365.5 88.5q-42 13-80.5 36T213.25 178a497.5 497.5 0 0 0-60.5 66.5Q125.5 280.5 107 320M658.5 88.5Q695 140 716.75 199A738.7 738.7 0 0 1 750 320h167q-19-39.5-46-75.5T810.75 178 739 124.5t-80.5-36M264 640a757 757 0 0 1-6.25-63.75A1167 1167 0 0 1 256 512q0-32.5 1.75-64.25A757 757 0 0 1 264 384H82.5q-9 31.5-13.75 63.25T64 512t4.75 64.75T82.5 640Zm432 0q4.5-32 6.25-63.75A1167 1167 0 0 0 704 512q0-32.5-1.75-64.25A757 757 0 0 0 696 384H328a757 757 0 0 0-6.25 63.75A1167 1167 0 0 0 320 512q0 32.5 1.75 64.25A757 757 0 0 0 328 640Zm245.5-256H760q4.5 32 6.25 63.75A1167 1167 0 0 1 768 512q0 32.5-1.75 64.25A757 757 0 0 1 760 640h181.5q9-31.5 13.75-63.25T960 512t-4.75-64.75T941.5 384m-576 551.5Q329 884 307.25 825A738.7 738.7 0 0 1 274 704H107q18.5 39 45.5 75.25a458 458 0 0 0 60.5 66.5 468.8 468.8 0 0 0 72 53.5q38.5 23.25 80.5 36.25m319-231.5h-345q4 19.5 11.5 46t18.5 55 25.25 56.25 32 49.75 39 35.5T512 960t46.25-13.5 39-35.5 32-49.75T654.5 805t18.5-55 11.5-46m232.5 0H750a738.7 738.7 0 0 1-33.25 121Q695 884 658.5 935.5q42-13 80.5-36t71.75-53.5A484.7 484.7 0 0 0 871 779.5q27-36 46-75.5"/></svg>