<svg xmlns="http://www.w3.org/2000/svg" width="16" height="16" viewBox="0 128 1024 704"><path fill="context-fill" fill-opacity="context-fill-opacity" d="M32 192q-13 0-22.5-9.5T0 160t9.5-22.5T32 128h960q13.005 0 22.5 9.5c6.33 6.333 9.5 13.833 9.5 22.5s-3.17 16.167-9.5 22.5q-9.495 9.5-22.5 9.5Zm0 320q-13 0-22.5-9.5T0 480t9.5-22.5T32 448h960q13.005 0 22.5 9.5c6.33 6.333 9.5 13.833 9.5 22.5s-3.17 16.167-9.5 22.5q-9.495 9.5-22.5 9.5Zm0 320q-13 0-22.5-9.5T0 800t9.5-22.5T32 768h960q13.005 0 22.5 9.5c6.33 6.333 9.5 13.833 9.5 22.5s-3.17 16.167-9.5 22.5q-9.495 9.5-22.5 9.5Z"/></svg>