<svg xmlns="http://www.w3.org/2000/svg" width="16" height="16" viewBox="0 320 1024 384"><path fill="context-fill" fill-opacity="context-fill-opacity" d="M125.5 704q-25 0-47.75-10.25t-40-27.5-27.5-40T0 578.5v-133q0-25 10.25-47.75t27.5-40 40-27.5T125.5 320h773q25 0 47.75 10.25t40 27.5c11.5 11.5 20.67 24.833 27.5 40S1024 428.833 1024 445.5v133c0 16.667-3.42 32.583-10.25 47.75s-16 28.5-27.5 40q-17.25 17.25-40 27.5T898.5 704ZM896 640q13.5 0 25-5t20.25-13.75T955 601t5-25V448q0-13-5-24.75t-13.75-20.5-20.5-13.75-24.75-5H128q-13.5 0-25 5t-20.25 13.75T69 423t-5 25v128q0 13.5 5 25.25t13.5 20.25 20.25 13.5 25.25 5ZM736 496q0-20 14-34t34-14 34 14 14 34-14 34-34 14-34-14-14-34"/></svg>