<svg xmlns="http://www.w3.org/2000/svg" width="16" height="16" fill="none" viewBox="0 0 16 16"><path fill="context-fill" fill-opacity="context-fill-opacity" d="M14.5 2q.313 0 .586.117a1.5 1.5 0 0 1 .797.797Q16 3.188 16 3.5v9q0 .313-.117.586a1.5 1.5 0 0 1-.797.797A1.5 1.5 0 0 1 14.5 14h-13q-.312 0-.586-.117a1.5 1.5 0 0 1-.797-.797A1.5 1.5 0 0 1 0 12.5v-9q0-.312.117-.586a1.5 1.5 0 0 1 .797-.797Q1.188 2 1.5 2zM1 9q.313 0 .496-.012.183-.011.309-.011.039 0 .129.003.09.005.183.036.094.03.184.109.09.078.191.223.102.144.258.379l1.078-5.188a.575.575 0 0 1 .57-.46q.18 0 .329.097a.53.53 0 0 1 .21.27L6.345 8q.149 0 .261-.008A1.791 1.791 0 0 1 7 8q.125.016.254.086a.54.54 0 0 1 .215.234L8.312 10h.79l1.187-5.016a.57.57 0 0 1 .563-.445q.21 0 .37.125a.53.53 0 0 1 .2.328l.726 3.39.43-.53a.6.6 0 0 1 .445-.211q.095 0 .372.086.276.085.593.199a62 62 0 0 1 1.012.37V3.5a.48.48 0 0 0-.148-.352A.48.48 0 0 0 14.5 3h-13a.48.48 0 0 0-.352.148A.48.48 0 0 0 1 3.5zm0 3.5q0 .203.148.352A.48.48 0 0 0 1.5 13h13a.48.48 0 0 0 .352-.148A.48.48 0 0 0 15 12.5V9.352l-1.836-.641-.797.976a.55.55 0 0 1-.445.211.6.6 0 0 1-.367-.125.52.52 0 0 1-.203-.328l-.516-2.422L10 10.555a.57.57 0 0 1-.203.32.56.56 0 0 1-.36.125h-1.39a.55.55 0 0 1-.3-.086.6.6 0 0 1-.216-.234L6.688 9q-.157 0-.274.008a1.803 1.803 0 0 1-.426-.012.7.7 0 0 1-.27-.101.5.5 0 0 1-.202-.262l-.993-2.516-.992 4.797a.54.54 0 0 1-.203.332.59.59 0 0 1-.64.063.6.6 0 0 1-.211-.192L1.734 10H1z"/></svg>