<svg xmlns="http://www.w3.org/2000/svg" width="16" height="16" viewBox="256 64 512 896"><path fill="context-fill" fill-opacity="context-fill-opacity" d="M704 316q0-39-15.5-73.25T646.75 183t-61.25-40.25T512 128q-40 0-75 15t-61 41-41 61-15 75q0 13-9.5 22.5T288 352q-16 0-24-11.25T256 315q0-52 20.75-97.75t56-79.75 81.5-53.75T512 64t97.75 19.75 81.5 53.75 56 79.75T768 315q0 40.5-8.5 70.75T735 441t-38.75 47.5-51.25 48a3163 3163 0 0 1-28.5 25.25q-14 12.25-27 26.25-16.5 18-25.5 34.75t-13.5 34-5.5 36.75-1 42.5q0 13-9.5 22.5T512 768q-11 0-17.25-4t-9.5-10.75T481 738t-1-17v-17q0-39.5 9.5-69.75t25.25-54.5 36-44a976 976 0 0 1 41.25-38q21-18.25 41-36.25t35.75-39.25 25.5-47T704 316M464 912q0-20 14-34t34-14 34 14 14 34-14 34-34 14-34-14-14-34"/></svg>