<svg xmlns="http://www.w3.org/2000/svg" width="16" height="16" viewBox="64 0 896 1024"><path fill="context-fill" fill-opacity="context-fill-opacity" d="M288 1024c-9 0-16.583-3.08-22.75-9.25S256 1001 256 992V576q-26.5 0-49.5-9.75t-40.25-26.75-27.5-40-10.75-49q-.5-6-.5-12v-12q0-12 .25-24t.25-24q-14.5-5-26.25-14t-20.25-21-13-26T64 288V32q0-13 9.5-22.5T96 0t22.5 9.5T128 32v256q0 13 9.5 22.5T160 320h704q13 0 22.5-9.5T896 288V32q0-13 9.5-22.5T928 0t22.5 9.5T960 32v256q0 15.5-4.5 29.5t-13 26-20.25 21-26.25 14v72q0 24-10.25 46.75T858.5 537.5t-39.25 28T772.5 576H768v132.5q0 18-5 35.25T748.75 776t-22.25 27-29.5 20l-394.5 197.5c-4.333 2.33-9.167 3.5-14.5 3.5m480-512q13.5 0 25-5t20.25-13.75T827 473t5-25v-64H192v64q0 13.5 5 25.25t13.5 20.25 20.25 13.5 25.25 5Zm-64 196.5V576H320v364l348.5-174q16.5-8.5 26-23.75t9.5-33.75"/></svg>