<svg xmlns="http://www.w3.org/2000/svg" width="16" height="16" viewBox="0 0 16 16"><path fill="context-fill" fill-opacity="context-fill-opacity" fill-rule="evenodd" d="M12.85 10c1.74 0 3.15 1.342 3.15 2.998 0 1.6-1.318 2.908-2.975 2.994l-.173.004V16a.44.44 0 0 1-.452-.426.435.435 0 0 1 .367-.423l.08-.008.003-.004c1.243 0 2.25-.958 2.25-2.141 0-1.135-.928-2.064-2.102-2.137l-.148-.005a.44.44 0 0 1-.45-.428c0-.21.16-.385.37-.421zm-2.7 0a.44.44 0 0 1 .45.428c0 .21-.16.385-.37.422l-.08.007c-1.243 0-2.25.958-2.25 2.141 0 1.135.928 2.064 2.102 2.137l.148.004a.44.44 0 0 1 .45.429c0 .21-.16.385-.37.421l-.08.007c-1.74 0-3.15-1.342-3.15-2.998 0-1.6 1.318-2.908 2.977-2.993zm0 2.57 2.7.002a.44.44 0 0 1 .45.428c0 .21-.16.385-.37.421l-.08.007-2.7-.002a.44.44 0 0 1-.45-.428c0-.21.16-.385.37-.421z" clip-rule="evenodd"/><path fill="context-fill" fill-opacity="context-fill-opacity" d="M12 1a3 3 0 0 1 3 3v5.536a4 4 0 0 0-1-.41V4a2 2 0 0 0-2-2H4a2 2 0 0 0-2 2v8c0 .373.102.722.28 1.02l4.668-4.588a1.5 1.5 0 0 1 2.104 0l.594.584c-.402.035-.787.13-1.147.276l-.148-.146a.5.5 0 0 0-.702 0l-4.66 4.58A2 2 0 0 0 4 14h2.126c.091.355.231.69.41 1H4a3 3 0 0 1-3-3V4a3 3 0 0 1 3-3zm-1.5 3a1.5 1.5 0 1 1 0 3 1.5 1.5 0 0 1 0-3m0 1a.5.5 0 1 0 0 1 .5.5 0 0 0 0-1"/></svg>