<svg xmlns="http://www.w3.org/2000/svg" width="16" height="16" fill="none" viewBox="0 0 16 16"><g clip-path="url(#a)"><path fill="context-fill" fill-opacity="context-fill-opacity" d="M1.063 2.667A2.667 2.667 0 0 1 3.73 0h9.603A2.667 2.667 0 0 1 16 2.667v9.603a2.667 2.667 0 0 1-2.667 2.667H10.31c.158-.332.268-.69.322-1.067h2.7a1.6 1.6 0 0 0 1.601-1.6V4.268H7.998a1.6 1.6 0 0 1-1.6-1.6V1.066H3.73a1.6 1.6 0 0 0-1.6 1.6v2.706a3.7 3.7 0 0 0-1.067.323zm13.87.534v-.534a1.6 1.6 0 0 0-1.6-1.6H7.464v1.6c0 .295.24.534.534.534zM0 9.069a2.667 2.667 0 0 1 2.667-2.667h4.268a2.667 2.667 0 0 1 2.667 2.667v4.268c0 .543-.162 1.05-.441 1.47L5.933 11.58a1.6 1.6 0 0 0-2.263 0L.442 14.808A2.66 2.66 0 0 1 0 13.337zm7.469.267a.8.8 0 1 0-1.6 0 .8.8 0 0 0 1.6 0m-6.273 6.226c.422.28.928.442 1.471.442h4.268c.544 0 1.05-.162 1.471-.442l-3.228-3.227a.533.533 0 0 0-.754 0z"/></g><defs><clipPath id="a"><path d="M0 0h16v16H0z"/></clipPath></defs></svg>