<svg xmlns="http://www.w3.org/2000/svg" width="16" height="16" viewBox="0 128 1024 704"><path fill="context-fill" fill-opacity="context-fill-opacity" d="M1024 160v640c0 8.667-3.17 16.167-9.5 22.5q-9.495 9.5-22.5 9.5-13 0-22.5-9.5T960 800V160q0-13 9.5-22.5T992 128q13.005 0 22.5 9.5c6.33 6.333 9.5 13.833 9.5 22.5M896 480q0 7.5-2.75 13T885 504L598.5 790.5Q589 800 576 800t-22.5-9.5T544 768t9.5-22.5l233-233.5H32q-13 0-22.5-9.5T0 480t9.5-22.5T32 448h754.5l-233-233.5Q544 205 544 192t9.5-22.5T576 160t22.5 9.5L885 456q5.5 5.5 8.25 11t2.75 13"/></svg>