<svg xmlns="http://www.w3.org/2000/svg" width="16" height="16" viewBox="0 0 16 16"><g clip-path="url(#a)"><path fill="context-fill" fill-opacity="context-fill-opacity" d="M8.598 7.01a.5.5 0 0 1 .256.136l5 5a.497.497 0 0 1-.43.848l-2.943-.453-1.57 2.246A.5.5 0 0 1 8 14.5v-7a.5.5 0 0 1 .598-.49M14 1a2 2 0 0 1 2 2v7a2 2 0 0 1-1.164 1.82 1.5 1.5 0 0 0-.276-.38l-.445-.446A1 1 0 0 0 15 10V3a1 1 0 0 0-1-1H2a1 1 0 0 0-1 1v7a1 1 0 0 0 1 1h5v1H2a2 2 0 0 1-2-2V3a2 2 0 0 1 2-2z"/></g><defs><clipPath id="a"><path d="M0 0h16v16H0z"/></clipPath></defs></svg>