<svg xmlns="http://www.w3.org/2000/svg" width="16" height="16" fill="none" viewBox="0 0 16 16"><g clip-path="url(#a)"><path fill="context-fill" fill-opacity="context-fill-opacity" d="M1.5 16q-.305 0-.578-.117a1.52 1.52 0 0 1-.805-.805A1.5 1.5 0 0 1 0 14.5v-1.586a1.5 1.5 0 0 1 .438-1.062l4.406-4.399a.9.9 0 0 0 .21-.332 1.1 1.1 0 0 0 .048-.613q-.04-.25-.07-.5a4 4 0 0 1-.032-.5q0-.727.203-1.418.204-.692.574-1.3a6.2 6.2 0 0 1 .88-1.126 5.6 5.6 0 0 1 1.12-.883A5.8 5.8 0 0 1 9.078.207Q9.766 0 10.492 0a5.48 5.48 0 0 1 3.895 1.613q.504.504.863 1.114.36.61.555 1.316T16 5.508a5.44 5.44 0 0 1-1.613 3.883q-.504.5-1.114.859A5.43 5.43 0 0 1 10.5 11q-.774 0-1.5-.21v.015q0 .405-.11.644a.85.85 0 0 1-.296.364q-.187.124-.438.16a4 4 0 0 1-.539.035q-.148 0-.304-.004L7 12v1a.97.97 0 0 1-.297.71A.96.96 0 0 1 6 14H5v.5q0 .305-.117.578a1.52 1.52 0 0 1-.805.805A1.5 1.5 0 0 1 3.5 16zm2-1a.5.5 0 0 0 .273-.066.4.4 0 0 0 .149-.168.7.7 0 0 0 .058-.23q.012-.13.012-.263v-.125q0-.234.063-.441.062-.208.187-.363A.92.92 0 0 1 5 13h1v-1q0-.414.29-.703A.97.97 0 0 1 7 11h1v-.922q0-.21.145-.355a.48.48 0 0 1 .355-.145q.102 0 .203.04.243.085.457.155t.422.122A3.7 3.7 0 0 0 10.5 10q.618 0 1.191-.16a4.5 4.5 0 0 0 1.989-1.156 4.4 4.4 0 0 0 1.16-1.985q.16-.575.16-1.191a4.44 4.44 0 0 0-.613-2.274 4.6 4.6 0 0 0-.703-.914 4.4 4.4 0 0 0-1.985-1.16A4.4 4.4 0 0 0 10.5 1h-.164q-.226 0-.453.04-.226.038-.453.1-.705.196-1.328.622-.625.425-1.09 1.011-.465.587-.739 1.286A3.9 3.9 0 0 0 6 5.5q0 .273.047.54l.031.155q.047.266.047.54 0 .398-.148.769a1.9 1.9 0 0 1-.43.652l-4.399 4.406a.48.48 0 0 0-.148.352V14.5q0 .203.148.352A.48.48 0 0 0 1.5 15zM11 4a.97.97 0 0 1 .293-.707q.137-.137.316-.215A1 1 0 0 1 12 3q.203 0 .387.078a1.003 1.003 0 0 1 .535 1.313 1.02 1.02 0 0 1-.531.53A1 1 0 0 1 12 5a1 1 0 0 1-.922-.605A1 1 0 0 1 11 4"/></g><defs><clipPath id="a"><path d="M0 0h16v16H0z"/></clipPath></defs></svg>