<svg xmlns="http://www.w3.org/2000/svg" width="16" height="16" viewBox="0 0 1024 960"><path fill="context-fill" fill-opacity="context-fill-opacity" d="M233 628q-50.5-13.5-93-43.25T66.25 514.5 17.5 425 0 324q0-44.5 11.25-86T43 160.5 92.5 95A322 322 0 0 1 157 44.25Q192.5 23 233.75 11.5T320 0q66.5 0 124.75 25T546.5 93.5 615 195.25 640 320h-64q0-16-2-32a270 270 0 0 0-6-32H445.5a2053 2053 0 0 1 1.75 32q.75 16 .75 32 0 32.5-2.75 63.5a1765 1765 0 0 1-6.75 63v1.5h-172a470 470 0 0 0 5.75 28.25A621 621 0 0 0 279.5 504l-.5.5a24830 24830 0 0 1-23 61.75Q244.5 597 233 628m33.5-436h107q-2-10.5-6.5-30.25t-11.25-40T340 85t-19.5-21h-1Q309 68.5 300 85t-15.75 36.75-11.25 40-6.5 30.25M98 192h103.5q9-58.5 30.5-112.5Q189.5 95 155 124t-57 68m444 0q-22.5-39-57-68t-77-44.5q21.5 54 30.5 112.5ZM72 256a270 270 0 0 0-6 32 258 258 0 0 0-2 32q0 16 2 32a270 270 0 0 0 6 32h122.5a2053 2053 0 0 1-1.75-32 683 683 0 0 1 0-64 2053 2053 0 0 1 1.75-32Zm309.5 0h-123a2053 2053 0 0 0-1.75 32 683 683 0 0 0 0 64 2053 2053 0 0 0 1.75 32h123a2053 2053 0 0 0 1.75-32 683 683 0 0 0 0-64 2053 2053 0 0 0-1.75-32M1024 416v96c0 8.667-3.17 16.167-9.5 22.5q-9.495 9.5-22.5 9.5-13 0-22.5-9.5T960 512v-64H576v64q0 13-9.5 22.5T544 544t-22.5-9.5T512 512v-96q0-13 9.5-22.5T544 384h192q0-4-.25-8.25a149 149 0 0 1-.25-8.75q0-8.5 1-16.75t4.25-15 9.75-11T768 320t17.25 4.25 9.5 11 4.25 15 1 16.75v17h192q13.005 0 22.5 9.5c6.33 6.333 9.5 13.833 9.5 22.5M98.5 448q22.5 39 57 67.75T232 560.5q-21.5-54-30.5-112.5ZM1024 672c0 8.667-3.17 16.167-9.5 22.5q-9.495 9.5-22.5 9.5H832v128q0 13.5-5 25t-13.75 20.25T793 891t-25 5h-32q-13 0-22.5-9.5T704 864q0-11 4.25-17.25t11-9.5 15-4.25 16.75-1h17V704H608q-13 0-22.5-9.5T576 672t9.5-22.5T608 640h160q0-6.5 4.25-15.5t10.25-18 12-17T804 576H672q-13 0-22.5-9.5T640 544t9.5-22.5T672 512h192q13 0 22.5 9.5T896 544q0 9.5-5.5 17.5l-52 78.5H992q13.005 0 22.5 9.5c6.33 6.333 9.5 13.833 9.5 22.5M560 928q0 13.5-9.25 22.75T528 960q-10 0-18.25-5.75T498 939l-40-107H310l-40 107q-3.5 9.5-11.75 15.25T240 960q-13 0-22.5-9.5T208 928q0-7 2-11.5l48-127Q282.5 725 306.25 661T354 532.5q3.5-9.5 12-14t18-4.5q10 0 18 4.5t12 14Q438 597 461.5 661A7687 7687 0 0 0 510 789.5l48 127q2 4.5 2 11.5M384 635l-50 133h100Z"/></svg>