<svg xmlns="http://www.w3.org/2000/svg" width="16" height="16" fill="none" viewBox="0 0 16 16"><g clip-path="url(#a)"><path fill="context-fill" fill-opacity="context-fill-opacity" d="M1 5.5V3.938q0-.586.238-1.122a3.1 3.1 0 0 1 .64-.937 3.1 3.1 0 0 1 .938-.64Q3.351.998 3.938 1H5.5a.48.48 0 0 1 .352.148A.48.48 0 0 1 6 1.5a.48.48 0 0 1-.148.352A.48.48 0 0 1 5.5 2H3.96q-.405 0-.76.164a2.06 2.06 0 0 0-1.044 1.074A1.9 1.9 0 0 0 2 4v1.5a.48.48 0 0 1-.148.352A.48.48 0 0 1 1.5 6a.48.48 0 0 1-.352-.148A.48.48 0 0 1 1 5.5m13-1.54q0-.405-.164-.76a2.06 2.06 0 0 0-1.074-1.044A1.9 1.9 0 0 0 12 2h-1.5a.48.48 0 0 1-.352-.148A.48.48 0 0 1 10 1.5a.48.48 0 0 1 .148-.352A.48.48 0 0 1 10.5 1h1.563q.585 0 1.12.238.536.24.938.64.403.404.64.938.24.535.239 1.122V5.5a.48.48 0 0 1-.148.352A.48.48 0 0 1 14.5 6a.48.48 0 0 1-.352-.148A.48.48 0 0 1 14 5.5zM3.75 4.5q0-.312.219-.531A.72.72 0 0 1 4.5 3.75q.312 0 .531.219a.72.72 0 0 1 .219.531.72.72 0 0 1-.219.531.72.72 0 0 1-.531.219.72.72 0 0 1-.531-.219.72.72 0 0 1-.219-.531M6 8v-.04q0-.405.164-.76a2.06 2.06 0 0 1 1.074-1.044Q7.601 6 8 6q.406 0 .773.16t.637.43.43.637Q10 7.593 10 8q0 .414-.16.777t-.43.633-.637.43Q8.407 10 8 10q-.414 0-.777-.16a2.1 2.1 0 0 1-.633-.43q-.27-.27-.43-.633A1.9 1.9 0 0 1 6 8m3 0a1.004 1.004 0 0 0-1.39-.922 1.02 1.02 0 0 0-.532.531A1 1 0 0 0 7 8a1 1 0 0 0 .29.71A1 1 0 0 0 8 9a.97.97 0 0 0 .707-.293q.137-.137.215-.316A1 1 0 0 0 9 8m-5.062 7q-.586 0-1.122-.238a3.1 3.1 0 0 1-.937-.64 3.1 3.1 0 0 1-.64-.938A2.7 2.7 0 0 1 1 12.063V10.5a.48.48 0 0 1 .148-.352A.48.48 0 0 1 1.5 10a.48.48 0 0 1 .352.148A.48.48 0 0 1 2 10.5v1.54q0 .405.164.76a2.06 2.06 0 0 0 1.074 1.044Q3.601 14 4 14h1.5a.48.48 0 0 1 .352.148A.48.48 0 0 1 6 14.5a.48.48 0 0 1-.148.352A.48.48 0 0 1 5.5 15zM10 14.5a.48.48 0 0 1 .148-.352A.48.48 0 0 1 10.5 14h1.54q.405 0 .76-.164a2.06 2.06 0 0 0 1.044-1.074A1.9 1.9 0 0 0 14 12v-1.5a.48.48 0 0 1 .148-.352A.48.48 0 0 1 14.5 10a.48.48 0 0 1 .352.148.48.48 0 0 1 .148.352v1.563q0 .585-.238 1.12-.24.536-.64.938-.405.403-.938.64-.535.24-1.121.239H10.5a.48.48 0 0 1-.352-.148A.48.48 0 0 1 10 14.5"/></g><defs><clipPath id="a"><path d="M1 1h14v14H1z"/></clipPath></defs></svg>