<svg xmlns="http://www.w3.org/2000/svg" width="16" height="16" viewBox="64 2 896 1023"><path fill="context-fill" fill-opacity="context-fill-opacity" d="M64 447.5q0-62 16-119.25t45-107T195 131t90.75-69.25 107-44.5T512 1.5t119.5 15.75 107.25 44.5 90.5 69.25T899 221.25 944 328t16 119.5q0 45.5-8.75 89.25t-26 84.5T883 699t-57.5 69l-224 219.5c-12 11.667-25.667 20.67-41 27S529 1024 512 1024s-33.167-3.17-48.5-9.5-29-15.333-41-27L198.5 768q-65-64-99.75-146.75T64 447.5m448 512q26 0 45-18l224-219q55.5-54.5 85.25-126t29.75-149q0-53-13.75-102.25T843.5 253.5t-60-77.25-77.5-59.5-91.75-38.25T512 65 409.75 78.5 318 117a390.8 390.8 0 0 0-77.5 59.75q-35 34.75-60 77.25t-38.75 91.75T128 448q0 38.5 7.75 76.25t22.5 72.75 36.25 66.75 49 58.75l223.5 219q9 9 20.5 13.5t24.5 4.5M320 448v-4q0-39 15.5-73.25t42-59.75 61.25-40.25T512 256q40 0 75 15t61 41 41 61 15 75-15 75-41 61-61 41-75 15-75-15-61-41-41-61-15-75m320 0v-2.5q0-26-10.5-48.75t-28-39.75-40.75-27T512 320q-26.5 0-49.75 10.25t-40.5 27.5-27.5 40.75T384 448q0 26.5 10.25 49.75t27.5 40.5 40.5 27.5T512 576q26 0 49.5-10.25t40.75-27.5 27.5-40.5T640 448"/></svg>