<svg xmlns="http://www.w3.org/2000/svg" width="16" height="16" viewBox="128 0 768 1024"><path fill="context-fill" fill-opacity="context-fill-opacity" d="M896 512v384q0 26.5-10 49.75t-27.5 40.75c-11.667 11.667-25.25 20.83-40.75 27.5s-32.083 10-49.75 10H256c-17.667 0-34.25-3.33-49.75-10s-29.083-15.833-40.75-27.5Q148 969 138 945.75T128 896V512q0-26.5 10-49.75t27.5-40.75 40.75-27.5T256 384V256q0-53 20-99.75t54.75-81.5T412.25 20 512 0t99.75 20 81.5 54.75 54.75 81.5T768 256v128q26.5 0 49.75 10t40.75 27.5 27.5 40.75T896 512M320 384h384V256q0-40-15-75t-41-61-61-41-75-15-75 15-61 41-41 61-15 75Zm512 128q0-13-5-24.75t-13.75-20.5-20.5-13.75-24.75-5H256q-13.5 0-25 5t-20.25 13.75T197 487t-5 25v384q0 13.5 5 25.25t13.5 20.25 20.25 13.5 25.25 5h512q13.5 0 25-5t20.25-13.75T827 921t5-25ZM576 704q0 13.5-5 25t-13.75 20.25T537 763t-25 5-25.25-5-20.25-13.5-13.5-20.25-5-25.25 5-25 13.75-20.25T487 645t25-5q13 0 24.75 5t20.5 13.75 13.75 20.5 5 24.75"/></svg>