<svg xmlns="http://www.w3.org/2000/svg" width="16" height="16" viewBox="64 64 960 896"><path fill="context-fill" fill-opacity="context-fill-opacity" d="M64 859.5v-695q0-12 7.5-20.75T91 133l448-68.5q2-.5 5.5-.5 13.5 0 22.5 9.25T576 96v352h331l-64-56q-11-9.5-11-24 0-13 9.5-22.5T864 336q12 0 21.5 8L1013 456c7.33 6.667 11 14.667 11 24 0 9.667-3.67 17.667-11 24L885.5 616q-9.5 8-21.5 8-13 0-22.5-9.5T832 592q0-14 11-24l64-56H576v416q0 13-8.75 22.5T545 960q-4 0-6-.5L91 891q-12-2-19.5-10.75T64 859.5M640 384V128h32q13 0 22.5 9.5T704 160v224ZM128 832l384 59V133.5L128 192Zm240-288q0-20 14-34t34-14 34 14 14 34-14 34-34 14-34-14-14-34m272 352V576h64v288q0 13-9.5 22.5T672 896Z"/></svg>