<svg xmlns="http://www.w3.org/2000/svg" width="16" height="16" fill="none" viewBox="0 0 16 16"><path fill="context-fill" fill-opacity="context-fill-opacity" d="M14.25 3.094q.313 0 .531.219a.72.72 0 0 1 .219.53v8.196q0 .406-.164.762a2.06 2.06 0 0 1-1.074 1.043A1.9 1.9 0 0 1 13 14q-.414 0-.777-.16a2.1 2.1 0 0 1-.633-.43q-.27-.27-.43-.633A1.9 1.9 0 0 1 11 12q0-.399.156-.762a2.06 2.06 0 0 1 1.043-1.074q.356-.164.762-.164.28 0 .539.063.258.062.5.203v-3.57L9 8.358v4.68q0 .406-.164.762a2.06 2.06 0 0 1-1.074 1.043A1.9 1.9 0 0 1 7 15q-.414 0-.777-.16a2.1 2.1 0 0 1-.633-.43q-.27-.27-.43-.633A1.9 1.9 0 0 1 5 13v-.04q0-.39.16-.745a2.1 2.1 0 0 1 1.055-1.055Q6.57 11 6.96 11q.28 0 .539.063.258.062.5.203V5.68q0-.25.145-.442a.77.77 0 0 1 .37-.27l5.5-1.835a.7.7 0 0 1 .235-.04M9.5 1q.305 0 .578.117a1.52 1.52 0 0 1 .805.805Q11 2.195 11 2.5v.586l-1 .336V2.5a.48.48 0 0 0-.148-.352A.48.48 0 0 0 9.5 2h-7a.48.48 0 0 0-.352.148A.48.48 0 0 0 2 2.5v7q0 .203.148.352A.48.48 0 0 0 2.5 10h3.398Q6 10 6 10.102q0 .07-.062.093a5 5 0 0 0-.633.332 2.4 2.4 0 0 0-.54.473H2.5q-.305 0-.578-.117a1.52 1.52 0 0 1-.805-.805A1.5 1.5 0 0 1 1 9.5v-7q0-.305.117-.578a1.52 1.52 0 0 1 .805-.805Q2.195 1 2.5 1zM4 9H3V8h1zm0-2H3V5h1zm0-3H3V3h1zm5 0H8V3h1z"/></svg>