<svg xmlns="http://www.w3.org/2000/svg" width="16" height="16" viewBox="160 0 704 1024"><path fill="context-fill" fill-opacity="context-fill-opacity" d="M320 188q0-39 15.5-73.25T377.25 55t61.25-40.25T512 0t73.5 14.75T646.75 55t41.75 59.75T704 188v328q0 37.5-15.25 71.75t-41 60-60 41T516 704q-39.5 0-75-14.25t-62.5-39.5-42.75-59.5T320 516Zm189.5 452q26 0 49.75-9.5T601 604t28.5-40 10.5-49.5V192q0-25.5-10-48.75t-27-40.75-39.75-28T514.5 64t-49.75 9.75-41.75 26.5T394.5 140 384 189.5V512q0 25.5 10 48.75t27 40.75 39.75 28T509.5 640M544 862.5V992q0 13.005-9.5 22.5c-6.333 6.33-13.833 9.5-22.5 9.5s-16.167-3.17-22.5-9.5q-9.5-9.495-9.5-22.5V862.5q-68-6.5-126.5-36.25T252 749.5t-67.5-108T160 512q0-13 9.5-22.5T192 480t22.5 9.5T224 512q0 38 9.75 74.75t28.75 69.75q19.5 33 46.5 59.75t59.25 45.25T437 790t75 10 75-10 68.75-28.5 59-45 46.25-60q19.5-33 29.25-69.5t9.75-75q0-13 9.5-22.5T832 480t22.5 9.5T864 512q0 45.5-11.25 88t-31.5 80T772 749a366 366 0 0 1-64.5 55.5q-35.5 24-77 39t-86.5 19"/></svg>