<svg xmlns="http://www.w3.org/2000/svg" width="16" height="16" viewBox="82 3 938 1021"><path fill="context-fill" fill-opacity="context-fill-opacity" d="M81.5 780.5q0-14.5 6.75-22t18.25-14q14-7.5 30-12.25T167 721.5a910 910 0 0 0 86-39.5q42-22 79.5-50.5 47-35.5 82.5-79.75t59.25-94.5T510 351.5t12-114q0-48.5-7.75-94.75A2840 2840 0 0 0 497 49.5a64 64 0 0 1-.75-4.5q-.25-2-.25-4.5 0-16 11-27t27-11q28.5 0 58.75 5.25t60 14.5A594 594 0 0 1 711 43.75Q739.5 56 764 70q59 34 106.5 81.75T951 257t50.75 122.75c11.83 43.5 17.75 87.917 17.75 133.25 0 47-6.08 92.25-18.25 135.75Q983 714 949.5 770.75T869.5 874 766 953.75t-122.25 51.5c-43.5 12.17-88.75 18.25-135.75 18.25-40 0-80.333-5.08-121-15.25Q326 993 270.5 964.5T167.75 895 88 802.5q-6.5-10-6.5-22M508 959q61.5 0 118.75-16t107-44.75 90.5-69.5 70-90.25 45.25-106.75 16-118.75q0-56-13.25-108.5t-38-99.5-59.5-87-78-70.75T673 96.5t-106-27a1097 1097 0 0 1 13.75 83.25Q586 194.5 586 237q0 73-16.75 141.5t-50.75 133q-29 55-67.5 97.75t-84.25 76.5-98 59.75T160.5 793q31.5 39.5 70.75 70.5t84 52.25 93.5 32.25T508 959"/></svg>