<svg height="100%" viewBox="0 151 960 723" width="100%" xmlns="http://www.w3.org/2000/svg" xmlns:xlink="http://www.w3.org/1999/xlink">
  <path d="M211,704L96,704C83,704 70.6667,701.5 59,696.5C47.3333,691.5 37.0833,684.583 28.25,675.75C19.4167,666.917 12.5,656.667 7.5,645C2.5,633.333 0,621 0,608L0,416C0,403 2.5,390.667 7.5,379C12.5,367.333 19.4167,357.083 28.25,348.25C37.0833,339.417 47.3333,332.5 59,327.5C70.6667,322.5 83,320 96,320L211,320L366,164.5C370.667,159.833 375.917,156.417 381.75,154.25C387.583,152.083 393.667,151 400,151C413.667,151 425.083,155.5 434.25,164.5C443.417,173.5 448,184.833 448,198.5L448,825.5C448,832.167 446.75,838.333 444.25,844C441.75,849.667 438.25,854.75 433.75,859.25C429.25,863.75 424.083,867.25 418.25,869.75C412.417,872.25 406.333,873.5 400,873.5C386.667,873.5 375.333,868.833 366,859.5ZM384,786.5L384,237L246.5,374.5C240.167,380.833 232.667,384 224,384L96,384C87.3333,384 79.8333,387.167 73.5,393.5C67.1667,399.833 64,407.333 64,416L64,608C64,616.667 67.1667,624.167 73.5,630.5C79.8333,636.833 87.3333,640 96,640L224,640C232.667,640 240.167,643.167 246.5,649.5ZM768,557L630.5,694.5C624.167,700.833 616.667,704 608,704C599.333,704 591.833,700.833 585.5,694.5C579.167,688.167 576,680.667 576,672C576,663.333 579.167,655.833 585.5,649.5L723,512L585.5,374.5C579.167,368.167 576,360.667 576,352C576,343.333 579.167,335.833 585.5,329.5C591.833,323.167 599.333,320 608,320C616.667,320 624.167,323.167 630.5,329.5L768,466.5L905.5,329.5C911.833,323.167 919.333,320 928,320C936.667,320 944.167,323.167 950.5,329.5C956.833,335.833 960,343.333 960,352C960,360.667 956.833,368.167 950.5,374.5L813.5,512L950.5,649.5C956.833,655.833 960,663.333 960,672C960,680.667 956.833,688.167 950.5,694.5C944.167,700.833 936.667,704 928,704C919.333,704 911.833,700.833 905.5,694.5Z" fill="context-fill" fill-opacity="context-fill-opacity">
  </path>
</svg>