<svg xmlns="http://www.w3.org/2000/svg" width="16" height="16" viewBox="0 151 960 723"><path fill="context-fill" fill-opacity="context-fill-opacity" d="M211 704H96q-19.5 0-37-7.5t-30.75-20.75T7.5 645 0 608V416q0-19.5 7.5-37t20.75-30.75T59 327.5t37-7.5h115l155-155.5q7-7 15.75-10.25T400 151q20.5 0 34.25 13.5t13.75 34v627q0 10-3.75 18.5t-10.5 15.25-15.5 10.5A45.9 45.9 0 0 1 400 873.5q-20 0-34-14Zm173 82.5V237L246.5 374.5Q237 384 224 384H96q-13 0-22.5 9.5T64 416v192q0 13 9.5 22.5T96 640h128q13 0 22.5 9.5ZM768 557 630.5 694.5Q621 704 608 704t-22.5-9.5T576 672t9.5-22.5L723 512 585.5 374.5Q576 365 576 352t9.5-22.5T608 320t22.5 9.5l137.5 137 137.5-137Q915 320 928 320t22.5 9.5T960 352t-9.5 22.5L813.5 512l137 137.5Q960 659 960 672t-9.5 22.5T928 704t-22.5-9.5Z"/></svg>