<svg width="16" height="16" viewBox="0 0 16 16" fill="none" xmlns="http://www.w3.org/2000/svg">
<path d="M3.94534 15C3.53909 15 3.15628 14.9193 2.79691 14.7578C2.43753 14.5964 2.12503 14.3789 1.85941 14.1055C1.59378 13.8321 1.38414 13.513 1.2305 13.1485C1.07685 12.7839 1.00003 12.4011 1.00003 12V3.94534C1.00003 3.53909 1.08076 3.15628 1.24222 2.79691C1.40368 2.43753 1.62112 2.12503 1.89456 1.85941C2.168 1.59378 2.48701 1.38415 2.85159 1.2305C3.21617 1.07685 3.59898 1.00003 4.00003 1.00003H12.0547C12.461 1.00003 12.8438 1.08076 13.2032 1.24222C13.5625 1.40368 13.875 1.62112 14.1407 1.89456C14.4063 2.168 14.6159 2.48701 14.7696 2.85159C14.9232 3.21617 15 3.59898 15 4.00003V8.37503C15 8.92711 14.8047 9.39847 14.4141 9.78909L9.78909 14.4141C9.39847 14.8047 8.92711 15 8.37503 15H3.94534ZM4.00003 14H8.00003V10.9453C8.00003 10.5547 8.07425 10.1862 8.22269 9.83987C8.37112 9.49351 8.57425 9.18883 8.83206 8.92581C9.08987 8.6628 9.38936 8.44925 9.7305 8.28519C10.0716 8.12112 10.4349 8.02867 10.8203 8.00784C10.836 8.00784 10.8516 8.00784 10.8672 8.00784L10.9532 8.00003H14V4.00003C14 3.72398 13.948 3.46487 13.8438 3.22269C13.7396 2.9805 13.5964 2.76826 13.4141 2.58597C13.2318 2.40367 13.0196 2.26045 12.7774 2.15628C12.5352 2.05211 12.2761 2.00003 12 2.00003H4.00003C3.72398 2.00003 3.46487 2.05211 3.22269 2.15628C2.9805 2.26045 2.76826 2.40367 2.58597 2.58597C2.40367 2.76826 2.26045 2.9805 2.15628 3.22269C2.05211 3.46487 2.00003 3.72398 2.00003 4.00003V12C2.00003 12.2761 2.05211 12.5352 2.15628 12.7774C2.26045 13.0196 2.40367 13.2318 2.58597 13.4141C2.76826 13.5964 2.9805 13.7396 3.22269 13.8438C3.46487 13.948 3.72398 14 4.00003 14ZM9.00003 13.7813C9.01045 13.7709 9.08726 13.6966 9.2305 13.5586C9.37373 13.4206 9.55733 13.2409 9.78128 13.0196C10.0052 12.7982 10.2578 12.5469 10.5391 12.2657L12.2657 10.5391C12.5469 10.2578 12.7982 10.0052 13.0196 9.78128C13.2409 9.55733 13.4206 9.37373 13.5586 9.2305C13.6966 9.08726 13.7709 9.01045 13.7813 9.00003H11C10.724 9.00003 10.4649 9.05211 10.2227 9.15628C9.9805 9.26045 9.76826 9.40367 9.58597 9.58597C9.40367 9.76826 9.26045 9.9805 9.15628 10.2227C9.05211 10.4649 9.00003 10.724 9.00003 11V13.7813Z" fill="context-fill" fill-opacity="context-fill-opacity"/>
</svg>
