<svg xmlns="http://www.w3.org/2000/svg" width="16" height="16" viewBox="0 64 1010 896"><path fill="context-fill" fill-opacity="context-fill-opacity" d="M156.5 960q-31.5 0-60-12.75t-49.75-34-34-49.75T0 803.5v-583q0-31.5 12.75-60t34-49.75 49.75-34 60-12.75H352q34.5 0 59.25 10.75T456 103.5t37 41 35 47.5h274.5q31 0 59.5 12.5t50 33.75 34.5 49.25 13.5 59q23.5 18.5 36.5 45c8.67 17.667 13 36.5 13 56.5v8.75c0 2.833-.33 5.75-1 8.75L959 822q-4 28.5-18 53.75t-35 44-47.5 29.5T803 960Zm734-639.5q-5-14.5-14-26.25t-21-20.25a100.7 100.7 0 0 0-26-13.25Q815.5 256 800 256H496l-67-89.5q-13.5-18-34-28.25T352 128H160q-19.5 0-37 7.5t-30.75 20.75T71.5 187 64 224v576q0 3 .25 5.75t.25 5.75L145 422q4.5-22 16.25-40.75t28.5-32.25 37.5-21.25T270.5 320h615.75q1.75 0 4.25.5m-90 575.5q18 0 34.25-6.25t29-17.5 21-26.25 10.75-33L945 457q.5-2.5.5-4.5V448q0-13-5-24.75t-13.5-20.5T907 389t-25-5H270.5q-11.5 0-21.75 3.75T230 398.25t-14.5 16.25-8 20.5L115 884.5q21.5 11.5 45 11.5Z"/></svg>