<svg xmlns="http://www.w3.org/2000/svg" width="16" height="16" viewBox="64 64 896 896"><path fill="context-fill" fill-opacity="context-fill-opacity" d="M448 544q0-13 9.5-22.5L851 128H544q-13 0-22.5-9.5T512 96t9.5-22.5T544 64h384q13 0 22.5 9.5T960 96v384q0 13-9.5 22.5T928 512t-22.5-9.5T896 480V173.5l-393.5 393q-5 4.5-10.25 7T480 576q-13 0-22.5-9.5T448 544M252 960q-37.5 0-71.75-15.25t-60-41-41-60T64 772V316q0-37.5 15.25-71.75t41-60 60-41T252 128h164q13 0 22.5 9.5T448 160t-9.5 22.5T416 192H253.5q-25 0-47.75 10.25t-40 27.5-27.5 40T128 317.5v453q0 25 10.25 47.75t27.5 40 40 27.5T253.5 896h453q26 0 48.75-10.5t39.75-28 27-40.75T832 768V608q0-13 9.5-22.5T864 576t22.5 9.5T896 608v164q0 37.5-15.25 71.75t-41 60-60 41T708 960Z"/></svg>