<svg xmlns="http://www.w3.org/2000/svg" width="16" height="16" fill="none" viewBox="0 0 16 16"><path fill="context-fill" fill-opacity="context-fill-opacity" d="M5.854 6.146a.5.5 0 0 0-.708 0l-.646.647-.646-.647a.5.5 0 1 0-.708.708l.647.646-.647.646a.5.5 0 0 0 .708.708l.646-.647.646.647a.5.5 0 0 0 .708-.708L5.207 7.5l.647-.646a.5.5 0 0 0 0-.708m3.292 0a.5.5 0 0 1 .708.708l-.647.646.647.646a.5.5 0 0 1-.708.708L8.5 8.207l-.646.647a.5.5 0 0 1-.708-.708l.647-.646-.647-.646a.5.5 0 1 1 .708-.708l.646.647zM11.5 8a.5.5 0 0 0 0 1h2a.5.5 0 0 0 0-1zM2.75 2A2.75 2.75 0 0 0 0 4.75v5.5A2.75 2.75 0 0 0 2.75 13h10.5A2.75 2.75 0 0 0 16 10.25v-5.5A2.75 2.75 0 0 0 13.25 2zM1 4.75C1 3.784 1.784 3 2.75 3h10.5c.966 0 1.75.784 1.75 1.75v5.5A1.75 1.75 0 0 1 13.25 12H2.75A1.75 1.75 0 0 1 1 10.25z"/></svg>