<svg xmlns="http://www.w3.org/2000/svg" width="16" height="16" viewBox="64 64 896 896"><path fill="context-fill" fill-opacity="context-fill-opacity" d="M160 960q-19.5 0-37-7.5t-30.75-20.75T71.5 901 64 864V160q0-19.5 7.5-37t20.75-30.75T123 71.5t37-7.5h128q19.5 0 37 7.5t30.75 20.75T376.5 123t7.5 37v704q0 19.5-7.5 37t-20.75 30.75T325 952.5t-37 7.5Zm576 0q-19.5 0-37-7.5t-30.75-20.75T647.5 901t-7.5-37V160q0-19.5 7.5-37t20.75-30.75T699 71.5t37-7.5h128q19.5 0 37 7.5t30.75 20.75T952.5 123t7.5 37v704q0 19.5-7.5 37t-20.75 30.75T901 952.5t-37 7.5Zm-448-64q13 0 22.5-9.5T320 864V160q0-13-9.5-22.5T288 128H160q-13 0-22.5 9.5T128 160v704q0 13 9.5 22.5T160 896Zm576 0q13 0 22.5-9.5T896 864V160q0-13-9.5-22.5T864 128H736q-13 0-22.5 9.5T704 160v704q0 13 9.5 22.5T736 896Z"/></svg>