<svg xmlns="http://www.w3.org/2000/svg" width="16" height="16" fill="none" viewBox="0 0 16 16"><g clip-path="url(#a)"><path fill="context-fill" fill-opacity="context-fill-opacity" d="M1.703 15.894q-.346 0-.656-.133a1.73 1.73 0 0 1-.914-.914A1.65 1.65 0 0 1 0 14.191V1.703q0-.346.133-.656a1.72 1.72 0 0 1 .914-.914Q1.357 0 1.703 0h2.27q.346 0 .657.133a1.72 1.72 0 0 1 .913.914q.133.31.133.656V14.19q0 .346-.133.656a1.72 1.72 0 0 1-.913.914 1.65 1.65 0 0 1-.657.133zm10.217 0q-.346 0-.656-.133a1.73 1.73 0 0 1-.914-.914 1.65 1.65 0 0 1-.133-.656V1.703q0-.346.133-.656a1.72 1.72 0 0 1 .914-.914Q11.574 0 11.92 0h2.27q.346 0 .657.133a1.72 1.72 0 0 1 .914.914q.132.31.133.656V14.19q0 .346-.133.656a1.73 1.73 0 0 1-.914.914 1.65 1.65 0 0 1-.656.133z"/></g><defs><clipPath id="a"><path d="M0 0h15.894v15.894H0z"/></clipPath></defs></svg>