<svg xmlns="http://www.w3.org/2000/svg" width="16" height="16" viewBox="192 0 640 1024"><path fill="context-fill" fill-opacity="context-fill-opacity" d="M317.5 1024c-16.667 0-32.583-3.42-47.75-10.25s-28.5-16-40-27.5q-17.25-17.25-27.5-40T192 898.5v-773q0-25 10.25-47.75t27.5-40 40-27.5T317.5 0h389q25 0 47.75 10.25t40 27.5 27.5 40T832 125.5v773q0 25-10.25 47.75t-27.5 40c-11.5 11.5-24.833 20.67-40 27.5S723.167 1024 706.5 1024ZM704 960q13.5 0 25-5t20.25-13.75T763 921t5-25V128q0-13-5-24.75t-13.75-20.5T728.75 69 704 64H320q-13.5 0-25 5t-20.25 13.75T261 103t-5 25v768q0 13.5 5 25.25t13.5 20.25 20.25 13.5 25.25 5ZM448 832q-13 0-22.5-9.5T416 800t9.5-22.5T448 768h128q13 0 22.5 9.5T608 800t-9.5 22.5T576 832Z"/></svg>