<svg xmlns="http://www.w3.org/2000/svg" width="18" height="18" fill="none" viewBox="0 0 18 18"><path fill="context-fill" fill-opacity="context-fill-opacity" d="M1 4.75A2.75 2.75 0 0 1 3.75 2h10.5A2.75 2.75 0 0 1 17 4.75V9h-1V4.75A1.75 1.75 0 0 0 14.25 3H3.75A1.75 1.75 0 0 0 2 4.75v6.5c0 .966.784 1.75 1.75 1.75H8v1H3.75A2.75 2.75 0 0 1 1 11.25zM10.5 10A1.5 1.5 0 0 0 9 11.5v4a1.5 1.5 0 0 0 1.5 1.5h6a1.5 1.5 0 0 0 1.5-1.5v-4a1.5 1.5 0 0 0-1.5-1.5zM3.646 4.646a.5.5 0 0 1 .708 0L7 7.293V5.5a.5.5 0 0 1 1 0v3a.5.5 0 0 1-.5.5h-3a.5.5 0 0 1 0-1h1.793L3.646 5.354a.5.5 0 0 1 0-.708"/></svg>