<svg xmlns="http://www.w3.org/2000/svg" width="18" height="18" fill="none" viewBox="0 0 18 18"><path fill="context-fill" fill-opacity="context-fill-opacity" d="M7.5 8A1.5 1.5 0 0 0 9 6.5v-4A1.5 1.5 0 0 0 7.5 1h-6A1.5 1.5 0 0 0 0 2.5v4a1.5 1.5 0 0 0 1 1.415l.019.006c.15.051.313.079.481.079zm6.75-3H10V4h4.25A2.75 2.75 0 0 1 17 6.75v6.5A2.75 2.75 0 0 1 14.25 16H3.75A2.75 2.75 0 0 1 1 13.25v-4.3q.243.05.5.05H2v4.25c0 .966.784 1.75 1.75 1.75h10.5A1.75 1.75 0 0 0 16 13.25v-6.5A1.75 1.75 0 0 0 14.25 5M13 11.293l-2.646-2.647a.5.5 0 0 0-.708.708L12.293 12H10.5a.5.5 0 0 0 0 1h3a.5.5 0 0 0 .5-.497V9.5a.5.5 0 0 0-1 0z"/></svg>