<svg xmlns="http://www.w3.org/2000/svg" width="15" height="16" fill="none" viewBox="0 0 15 16"><g clip-path="url(#a)"><path fill="context-fill" fill-opacity="context-fill-opacity" d="M1.712 16a1.7 1.7 0 0 1-.665-.133 1.8 1.8 0 0 1-.546-.364A1.67 1.67 0 0 1 0 14.297V1.703q0-.355.133-.665a1.7 1.7 0 0 1 .905-.905 1.75 1.75 0 0 1 1.09-.08q.214.054.4.16l11.3 6.297A1.69 1.69 0 0 1 14.695 8q0 .48-.226.87t-.643.62l-11.29 6.297a1.6 1.6 0 0 1-.4.16 1.8 1.8 0 0 1-.425.053"/></g><defs><clipPath id="a"><path d="M0 0h14.705v16H0z"/></clipPath></defs></svg>