<svg xmlns="http://www.w3.org/2000/svg" width="16" height="16" viewBox="128 61 829 902"><path fill="context-fill" fill-opacity="context-fill-opacity" d="M224.5 963q-20 0-37.5-7.5T156.25 935t-20.75-30.5T128 867V157q0-20 7.5-37.5T156 89t30.5-20.5T224 61q12 0 24 3t22.5 9l637 355q23 13 36 35.5t13 48.5q0 26.5-12.75 48.75T907.5 596L271 951q-10.5 6-22.5 9t-24 3m668-451q0-8.5-4.5-16.25T876 484L239.5 129q-7-4-15.5-4-13 0-22.5 9.5T192 157v710q0 13 9.5 22.5T224 899q8.5 0 15.5-4L876 540q7.5-4 12-11.75t4.5-16.25"/></svg>