<svg xmlns="http://www.w3.org/2000/svg" width="16" height="16" viewBox="-1 14 1009 1011"><path fill="context-fill" fill-opacity="context-fill-opacity" d="M183.5 501.5q-9 0-21.5-4.75t-25.25-11.5T112.5 471t-18-13.5q-8-7-12.5-16.5t-4.5-20q0-8 3-16.25t6.25-16.5 6.25-16 3-14.75q0-4-2.75-6.25A17.2 17.2 0 0 0 87 348l-46-8q-15.5-2.5-24-10.75T4.25 309.5t-5-24.75T-1.5 259q0-20.5 3-40l.5-.5q2-14 9.75-22.25t17.75-12.5 21.25-6 20.75-3.25 15.75-4 6.25-8.5q0-7-3.25-14.75a963 963 0 0 0-7-16.25 240 240 0 0 1-6.75-17q-3-8.5-3-17 0-14 9.5-26.5t23-22.25T134.75 31t26.75-12h.5l8-2q4-1 8.5-1 16 0 27 8.5t19.25 19 14.75 19 13 8.5q2 0 5-1 1-1 1.75-1.5T261 67l30-36q15-17.5 37-17.5 8.5 0 20.75 4.75T373.5 30t23.75 14.5 17.75 13h.5q17 14.5 17 36.5 0 8.5-3 17t-6.25 16.75T417 143.5t-3 14q0 3.5 3.25 6.5t6.25 3.5l46 7.5q15 2.5 23.5 11t12.75 20.25 5 25 .75 25.25q0 8.5-.25 17.25a124.6 124.6 0 0 1-1.75 17.5q-1.5 8.75-4.75 16.5T495.5 322q-8 8.5-21.25 11.75t-26 5.5T426 344t-9.5 9.5q0 2 2.5 9.5t5.5 15.75 5.75 15.25 3.25 8v-.5q3 8.5 3 17 0 10.5-4.5 20T419.5 455q-7 5.5-18.25 13.25t-24 14.75-25 11.75-20.75 4.75q-16 0-26.75-8.5t-19-19T271 453t-13.5-8.5-13.5 9-14.5 19.5-19 19.5-27 9m73-121q15 0 26 4t20 11 17 16.5 17 20q9-4 16.75-9t16.25-10.5a9849 9849 0 0 0-11.25-28.5q-5.75-14.5-5.75-29.5 0-21 9.75-37.5t27.25-27q12.5-7.5 28-10.25t29.5-5.25q.5-2 .5-4V247q0-5-1-10.5l-34-6q-27.5-5-45-25.5T350 156.5q0-14.5 5.5-28.75t10-27.75a241 241 0 0 0-16.25-10.25A229 229 0 0 0 332.5 81Q324 91.5 316 101.25t-17 17.25-20 12-25.5 4.5q-15.5 0-26.25-4t-19.5-11-16.5-16.5-17.25-20a209 209 0 0 0-17 9q-8.5 5-16 10.5a9849 9849 0 0 0 11.25 28.5q5.75 14.5 5.75 30 0 9.5-2.75 18.5a99.4 99.4 0 0 1-7.25 17.5q-7.5 13-16.5 20.5T112 229.5t-22.5 6.25-26 5.25q-.5 2.5-.5 4.75v23.75q0 4.5.5 9.5l34 5.5q13 2 24.5 8.75T142 310t13.5 22.25 5 25.25q0 15-5.25 29.25T145 415q7.5 5.5 16 10.25a274 274 0 0 0 17 8.75q8.5-10.5 16.25-20T211 397t19.75-12 25.75-4.5m-62-123q0-12.5 4.75-23.5t13-19 19.25-12.75 23.5-4.75 23.5 4.75T297.75 215t13 19 4.75 23.5-4.75 23.5-13 19.25-19.25 13T255 318q-13 0-24-4.75t-19-12.75-12.75-19-4.75-24M577 901q-8.5 0-18.25 3.75t-20.25 8.5-21.25 8.5-20.75 3.75q-11.5 0-22.25-5t-17.75-14q-7-8.5-16.25-22.25t-17.75-29T408.25 825t-5.75-26q0-13 5.25-22.75a71.3 71.3 0 0 1 13.25-17.5 126.6 126.6 0 0 1 17.25-14q9.25-6.25 17.25-12.5t13.25-12.75 5.25-15q0-12.5-11.25-21.75T438 663.5t-24.75-22.75T402 609q0-10.5 6.25-25.5T423 553t18-29.5 16.5-22q7.5-8.5 18-13.5t22-5q10 0 20.5 4t21 8.5 20 8.5 18 4q9 0 15.5-5.25t8-13.75l11-59q3-16.5 12-25.5t21.5-13.25 26.75-5.25 27.75-1h4q9.5 0 20.75.25t22.5 2.25 21.25 5.75 16.5 10.25q10.5 11 14 28.75t5.75 34.5 6.75 29T829 508q10 0 20.5-3.75t21-8.5 21-8.5 21-3.75q11.5 0 22.25 4.75T952.5 502q6.5 8.5 16 22.25t17.75 29.25 14.25 30.5 6 25.5q0 13-5.25 22.75a71.3 71.3 0 0 1-13.25 17.5A142.3 142.3 0 0 1 970.75 664q-9.25 6.5-17.25 12.75t-13.25 13T935 704.5q0 12.5 11.25 21.75T971 745.5t24.75 22.75T1007 800c0 7-2.08 15.5-6.25 25.5q-6.25 15-14.75 30.5t-18.25 29.5-16.25 22q-15 18-39.5 18-10 0-21-3.75t-21.5-8.5-20.25-8.5T831.5 901q-9.5 0-14.75 4.75t-7.75 12-3.5 15.5-2 14.75l-5.5 30.5q-3 17-12.75 26.25-9.75 9.255-23.25 13.5c-9 2.83-18.583 4.5-28.75 5q-15.25.75-28.75.75c-6 0-12.667-.08-20-.25q-11-.255-22.25-2.25c-7.5-1.33-14.583-3.17-21.25-5.5q-10-3.495-16.5-10.5-7.5-7.5-11-18.25T608.25 965a542 542 0 0 1-3-23q-1.25-11.5-4-20.5T593 906.75 577 901m254.5-64q20 0 39 7.75t37 14.75q20-25.5 33-55.5a1205 1205 0 0 0-25.5-21q-12.5-10-22.25-21.25t-15.75-25-6-32.25 5.75-32.25 15.5-24.75 22.25-20.75 26-20.75a334 334 0 0 0-14.25-29q-7.75-14-17.75-27-18 6.5-37.5 14.25T831.5 572q-16 0-30.25-5.25T775.5 552t-19.25-22.5-10.75-29L737 451a208 208 0 0 0-13.5-1.5q-6.5-.5-13.5-.5-9.5 0-19 .25T672.5 451l-9 49.5q-3 16-10.75 29T633.5 552t-26 14.75T577 572q-19.5 0-39-8t-37-14.5Q481.5 575 468.5 605a1205 1205 0 0 0 25.5 21q12.5 10 22.25 21.25t15.75 25 6 32.25q0 19-5.75 32.5t-15.5 24.5-22.25 20.75-26 20.75q6.5 15 14.5 29a288 288 0 0 0 17.5 27q17.5-6.5 37.75-14.5t39.75-8a83.9 83.9 0 0 1 30 5.5q14.5 5.5 26 15t19.25 22.75 10.25 28.75L672 958a259 259 0 0 0 16 1.5q8 .5 16 .5 8.5 0 16.25-.5a310 310 0 0 0 16.25-1.5q3-15 5-29.75t6.25-28T759.5 875t21.5-22a81 81 0 0 1 24-12q13-4 26.5-4M594 704.5q0-22.5 8.75-42.75t23.75-35.25 35-23.75T704 594q23 0 43.25 8.5T782.5 626t23.75 35.25T815 704.5q0 22.5-8.75 42.75T782.5 782.5t-35.25 23.75T704.5 815t-42.75-8.75-35.25-23.75-23.75-35.25T594 704.5m110.5 46q19.5 0 33-13.25T751 704.5q0-9.5-3.75-18t-10-15-14.75-10-18-3.5-18 3.75-14.75 10-10 14.75-3.75 18q0 10 3.75 18.25t10 14.5T686.5 747t18 3.5"/></svg>