<svg width="16" height="16" viewBox="0 0 16 16" fill="none" xmlns="http://www.w3.org/2000/svg">
<path d="M3.44531 15C3.11719 15 2.80469 14.9336 2.50781 14.8008C2.21094 14.668 1.95183 14.4909 1.73047 14.2695C1.50911 14.0482 1.33203 13.7891 1.19922 13.4922C1.06641 13.1953 1 12.8828 1 12.5547V3.44531C1 3.11719 1.06641 2.80469 1.19922 2.50781C1.33203 2.21094 1.50911 1.95183 1.73047 1.73047C1.95183 1.50912 2.21094 1.33203 2.50781 1.19922C2.80469 1.06641 3.11719 1 3.44531 1H12.5547C12.8828 1 13.1953 1.06641 13.4922 1.19922C13.7891 1.33203 14.0482 1.50912 14.2695 1.73047C14.4909 1.95183 14.668 2.21094 14.8008 2.50781C14.9336 2.80469 15 3.11719 15 3.44531V12.5547C15 12.8828 14.9336 13.1953 14.8008 13.4922C14.668 13.7891 14.4909 14.0482 14.2695 14.2695C14.0482 14.4909 13.7891 14.668 13.4922 14.8008C13.1953 14.9336 12.8828 15 12.5547 15H3.44531ZM2 4H2.8125L4.8125 2H3.5C3.29688 2 3.10417 2.03906 2.92188 2.11719C2.73958 2.19531 2.57942 2.30339 2.44141 2.44141C2.30339 2.57942 2.19531 2.73958 2.11719 2.92188C2.03906 3.10417 2 3.29688 2 3.5V4ZM6.22656 2L4.22656 4H7.05469L9.05469 2H6.22656ZM8.46875 4H11.2969L13.1484 2.14844C12.9505 2.04948 12.7344 2 12.5 2H10.4688L8.46875 4ZM12.7109 4H14V3.5C14 3.28645 13.9505 3.07292 13.8516 2.85938L12.7109 4ZM10.2969 5H7.46875L2 10.4688V12.5C2 12.7344 2.04948 12.9505 2.14844 13.1484L10.2969 5ZM2 6.22656V9.05469L6.05469 5H3.22656L2 6.22656ZM5.53906 14L14 5.53906V5H11.7109L2.85156 13.8594C3.05469 13.9531 3.27083 14 3.5 14H5.53906ZM14 6.95312L6.95312 14H9.78125L14 9.78125V6.95312ZM12.5 14C12.7031 14 12.8958 13.9609 13.0781 13.8828C13.2604 13.8047 13.4206 13.6966 13.5586 13.5586C13.6966 13.4206 13.8047 13.2604 13.8828 13.0781C13.9609 12.8958 14 12.7031 14 12.5V11.1953L11.1953 14H12.5Z" fill="context-fill" fill-opacity="context-fill-opacity"/>
</svg>
