<svg height="100%" viewBox="320 320 384 384" width="100%" xmlns="http://www.w3.org/2000/svg" xmlns:xlink="http://www.w3.org/1999/xlink">
  <path d="M320,512L320,508C320,482 325.167,457.583 335.5,434.75C345.833,411.917 359.833,392 377.5,375C395.167,358 415.583,344.583 438.75,334.75C461.917,324.917 486.333,320 512,320C538.667,320 563.667,325 587,335C610.333,345 630.667,358.667 648,376C665.333,393.333 679,413.667 689,437C699,460.333 704,485.333 704,512C704,538.667 699,563.667 689,587C679,610.333 665.333,630.667 648,648C630.667,665.333 610.333,679 587,689C563.667,699 538.667,704 512,704C485.333,704 460.333,699 437,689C413.667,679 393.333,665.333 376,648C358.667,630.667 345,610.333 335,587C325,563.667 320,538.667 320,512Z" fill="context-fill" fill-opacity="context-fill-opacity">
  </path>
</svg>