<svg xmlns="http://www.w3.org/2000/svg" width="16" height="16" fill="none" viewBox="0 0 16 16"><g clip-path="url(#a)"><path fill="context-fill" fill-opacity="context-fill-opacity" d="M0 8v-.167Q0 6.21.646 4.781a8 8 0 0 1 1.75-2.49A8.4 8.4 0 0 1 4.948.616 7.7 7.7 0 0 1 8 0q1.667 0 3.125.625t2.542 1.708a8 8 0 0 1 1.708 2.542Q16 6.333 16 8a7.85 7.85 0 0 1-.625 3.125 8 8 0 0 1-1.708 2.542 8 8 0 0 1-2.542 1.708A7.85 7.85 0 0 1 8 16a7.85 7.85 0 0 1-3.125-.625 8 8 0 0 1-2.542-1.708 8 8 0 0 1-1.708-2.542A7.85 7.85 0 0 1 0 8"/></g><defs><clipPath id="a"><path d="M0 0h16v16H0z"/></clipPath></defs></svg>