<svg xmlns="http://www.w3.org/2000/svg" width="16" height="16" viewBox="0 64 960 896"><path fill="context-fill" fill-opacity="context-fill-opacity" d="M864 64q19.5 0 37 7.5t30.75 20.75T952.5 123t7.5 37v704q0 19.5-7.5 37t-20.75 30.75T901 952.5t-37 7.5H608q-38 0-71.5-17T480 895.5Q457 926 423.5 943T352 960H96q-19.5 0-37-7.5t-30.75-20.75T7.5 901 0 864V160q0-19.5 7.5-37t20.75-30.75T59 71.5 96 64h256q38 0 71.5 17t56.5 47.5Q503 98 536.5 81T608 64ZM352 896q19.5 0 37-7.5t30.75-20.75T440.5 837t7.5-37V224q0-19.5-7.5-37t-20.75-30.75T389 135.5t-37-7.5H96q-13 0-22.5 9.5T64 160v704q0 13 9.5 22.5T96 896Zm544-736q0-13-9.5-22.5T864 128H608q-19.5 0-37 7.5t-30.75 20.75T519.5 187t-7.5 37v576q0 19.5 7.5 37t20.75 30.75T571 888.5t37 7.5h256q13 0 22.5-9.5T896 864Z"/></svg>