<svg xmlns="http://www.w3.org/2000/svg" width="16" height="16" fill="none" viewBox="0 0 16 16"><path fill="context-fill" fill-opacity="context-fill-opacity" d="M4 8a4 4 0 1 1 0 8 4 4 0 0 1 0-8m8.497-7a2.5 2.5 0 0 1 2.5 2.5v9a2.5 2.5 0 0 1-2.5 2.5H8q.348-.463.583-1h3.914a1.5 1.5 0 0 0 1.5-1.5V5h-6.5a1.5 1.5 0 0 1-1.5-1.5V2h-2.5a1.5 1.5 0 0 0-1.5 1.5v3.918a5 5 0 0 0-1 .584V3.5a2.5 2.5 0 0 1 2.5-2.5zM4 9.777c-.245 0-.444.2-.444.446V12c0 .245.199.444.444.444h1.333a.444.444 0 1 0 0-.888h-.889v-1.333A.445.445 0 0 0 4 9.777M6.997 3.5a.5.5 0 0 0 .5.5h6.5v-.5a1.5 1.5 0 0 0-1.5-1.5h-5.5z"/></svg>