<svg xmlns="http://www.w3.org/2000/svg" width="16" height="16" fill="none" viewBox="0 0 16 16"><g clip-path="url(#a)"><path fill="context-fill" fill-opacity="context-fill-opacity" d="M4.085 14c.206.583.762 1 1.415 1H8c.284.379.621.716 1 1H5.5a2.5 2.5 0 0 1-2.45-2zM12 8a4 4 0 1 1 0 8 4 4 0 0 1 0-8m-1.5-8A2.5 2.5 0 0 1 13 2.5v4.6a5 5 0 0 0-1-.1V4H5.5A1.5 1.5 0 0 1 4 2.5V1H2.5A1.5 1.5 0 0 0 1 2.5v8A1.5 1.5 0 0 0 2.5 12H7q.001.514.1 1H2.5A2.5 2.5 0 0 1 0 10.5v-8A2.5 2.5 0 0 1 2.5 0zM12 9.777c-.245 0-.444.2-.444.446V12c0 .245.199.444.444.444h1.333a.444.444 0 1 0 0-.888h-.889v-1.333A.445.445 0 0 0 12 9.777m2-6.727c1.141.232 2 1.24 2 2.45V9a5 5 0 0 0-1-1V5.5c0-.653-.417-1.21-1-1.415zM5 2.5a.5.5 0 0 0 .5.5H12v-.5A1.5 1.5 0 0 0 10.5 1H5z"/></g><defs><clipPath id="a"><path d="M0 0h16v16H0z"/></clipPath></defs></svg>