<svg xmlns="http://www.w3.org/2000/svg" width="16" height="16" viewBox="64 0 832 1024"><path fill="context-fill" fill-opacity="context-fill-opacity" d="M896 32v320q0 13-9.5 22.5T864 384H544q-13 0-22.5-9.5T512 352t9.5-22.5T544 320h240L548 123q-36-30-79.25-44.5T379 64q-33.5 0-65 9.25t-59.5 26-51.25 40-40 51.25-26 59.5-9.25 65q0 60 23 111.5t69.5 90.5l536 450.5q11.5 10 11.5 24.5 0 13.005-9.5 22.5c-6.333 6.33-13.833 9.5-22.5 9.5q-11.5 0-20.5-7.5L179.5 566q-56-47-85.75-110T64 320q0-66.5 25-124.75T157.5 93.5 259.25 25 384 0q56 0 108.75 19t95.75 55L832 276.5V32q0-13 9.5-22.5T864 0t22.5 9.5T896 32"/></svg>