<svg height="16" viewBox="128 0 768 1024" width="16" xmlns="http://www.w3.org/2000/svg" xmlns:xlink="http://www.w3.org/1999/xlink">
  <path d="M512,352C512,343.333 515.167,335.833 521.5,329.5L841.5,9.5C847.833,3.16669 855.333,0 864,0C872.667,0 880.167,3.16669 886.5,9.5C892.833,15.8334 896,23.3334 896,32C896,40.6667 892.833,48.1667 886.5,54.5L589.5,352L886.5,649.5C892.833,655.833 896,663.333 896,672C896,680.667 892.833,688.167 886.5,694.5C880.167,700.833 872.667,704 864,704C855.333,704 847.833,700.833 841.5,694.5L521.5,374.5C515.167,368.167 512,360.667 512,352ZM128,992C128,983.333 131.167,975.833 137.5,969.5L434.5,672L137.5,374.5C131.167,368.167 128,360.667 128,352C128,343.333 131.167,335.833 137.5,329.5C143.833,323.167 151.333,320 160,320C168.667,320 176.167,323.167 182.5,329.5L502.5,649.5C508.833,655.833 512,663.333 512,672C512,680.667 508.833,688.167 502.5,694.5L182.5,1014.5C176.167,1020.83 168.667,1024 160,1024C151.333,1024 143.833,1020.83 137.5,1014.5C131.167,1008.17 128,1000.67 128,992Z" fill="context-fill" fill-opacity="context-fill-opacity">
  </path>
</svg>