<svg xmlns="http://www.w3.org/2000/svg" width="16" height="16" viewBox="128 0 768 1024"><path fill="context-fill" fill-opacity="context-fill-opacity" d="M512 352q0-13 9.5-22.5l320-320Q851 0 864 0t22.5 9.5T896 32t-9.5 22.5L589.5 352l297 297.5Q896 659 896 672t-9.5 22.5T864 704t-22.5-9.5l-320-320Q512 365 512 352M128 992q0-13 9.5-22.5l297-297.5-297-297.5Q128 365 128 352t9.5-22.5T160 320t22.5 9.5l320 320Q512 659 512 672t-9.5 22.5l-320 320c-6.333 6.33-13.833 9.5-22.5 9.5s-16.167-3.17-22.5-9.5q-9.5-9.495-9.5-22.5"/></svg>