<svg height="16" viewBox="73 73 878 878" width="16" xmlns="http://www.w3.org/2000/svg" xmlns:xlink="http://www.w3.org/1999/xlink">
  <path d="M216,951C197,951 178.833,947.083 161.5,939.25C144.167,931.417 129,921 116,908C103,895 92.5833,879.833 84.75,862.5C76.9167,845.167 73,827 73,808L73,216C73,197 76.9167,178.833 84.75,161.5C92.5833,144.167 103.083,128.917 116.25,115.75C129.417,102.583 144.75,92.1667 162.25,84.5C179.75,76.8334 198,73.0001 217,73L807,73C826,73.0001 844.25,76.8334 861.75,84.5C879.25,92.1667 894.583,102.583 907.75,115.75C920.917,128.917 931.417,144.167 939.25,161.5C947.083,178.833 951,197 951,216L951,808C951,827 947.083,845.167 939.25,862.5C931.417,879.833 921,895 908,908C895,921 879.833,931.417 862.5,939.25C845.167,947.083 827,951 808,951ZM804.5,877.5C814.5,877.5 824,875.583 833,871.75C842,867.917 849.75,862.75 856.25,856.25C862.75,849.75 867.917,842 871.75,833C875.583,824 877.5,814.5 877.5,804.5L877.5,219.5C877.5,209.5 875.583,200 871.75,191C867.917,182 862.75,174.25 856.25,167.75C849.75,161.25 842,156.083 833,152.25C824,148.417 814.5,146.5 804.5,146.5L219.5,146.5C209.5,146.5 200,148.417 191,152.25C182,156.083 174.25,161.25 167.75,167.75C161.25,174.25 156.083,182 152.25,191C148.417,200 146.5,209.5 146.5,219.5L146.5,804.5C146.5,814.5 148.417,824 152.25,833C156.083,842 161.25,849.75 167.75,856.25C174.25,862.75 182,867.917 191,871.75C200,875.583 209.5,877.5 219.5,877.5ZM329,548.5C319,548.5 310.417,544.917 303.25,537.75C296.083,530.583 292.5,522 292.5,512C292.5,502 296.083,493.417 303.25,486.25C310.417,479.083 319,475.5 329,475.5L695,475.5C705,475.5 713.583,479.083 720.75,486.25C727.917,493.417 731.5,502 731.5,512C731.5,522 727.917,530.583 720.75,537.75C713.583,544.917 705,548.5 695,548.5Z" fill="context-fill" fill-opacity="context-fill-opacity">
  </path>
</svg>