<svg xmlns="http://www.w3.org/2000/svg" width="16" height="16" viewBox="0 0 960 960"><path fill="context-fill" fill-opacity="context-fill-opacity" d="M0 480q0-66.5 17-127.75T65.25 237.5t75-97.25 97.25-75T352.25 17 480 0q66 0 127.25 17.25T722 65.75t97.25 75 75 97.25 48.5 114.75T960 480q0 66.5-17 127.75T894.75 722.5t-75 97.25-97.25 75T607.75 943 480 960t-128-17-114.75-48.25-97-75-75-97T17 608 0 480m896 0q0-57.5-14.75-110.75t-42-99.5-65-84-84-65-99.5-42T480 64 369.25 78.75t-99.5 42-84 65-65 84-42 99.5T64 480t14.75 110.75 41.75 99.5 65 84.25 84.25 65 99.5 41.75T480 896t110.75-14.75 99.5-42 84-65 65-84 42-99.5T896 480m-608 32q-13 0-22.5-9.5T256 480t9.5-22.5T288 448h384q13 0 22.5 9.5T704 480t-9.5 22.5T672 512Z"/></svg>