<svg xmlns="http://www.w3.org/2000/svg" width="16" height="16" viewBox="64 64 960 960"><path fill="context-fill" fill-opacity="context-fill-opacity" d="M252 896q-37.5 0-71.75-15.25t-60-41-41-60T64 708V252q0-37.5 15.25-71.75t41-60 60-41T252 64h456q37.5 0 71.75 15.25t60 41 41 60T896 252v456q0 37.5-15.25 71.75t-41 60-60 41T708 896Zm454.5-64q25 0 47.75-10.25t40-27.5 27.5-40T832 706.5v-453q0-25-10.25-47.75t-27.5-40-40-27.5T706.5 128h-453q-25 0-47.75 10.25t-40 27.5-27.5 40T128 253.5v453q0 25 10.25 47.75t27.5 40 40 27.5T253.5 832ZM241 960h531q39 0 73.25-15.5t59.75-42 40.25-61.25T960 768V241q31 27 47.5 64.5T1024 384v389c0 22.333-3.08 44-9.25 65s-14.833 40.833-26 59.5q-16.75 28-40 51.25t-51.25 40c-18.667 11.167-38.5 19.83-59.5 26s-42.667 9.25-65 9.25H384q-41 0-78.5-16.5T241 960m47-448q-13 0-22.5-9.5T256 480t9.5-22.5T288 448h384q13 0 22.5 9.5T704 480t-9.5 22.5T672 512Z"/></svg>