<svg xmlns="http://www.w3.org/2000/svg" width="16" height="16" viewBox="73 73 878 878"><path fill="context-fill" fill-opacity="context-fill-opacity" d="M216 951q-28.5 0-54.5-11.75T116 908t-31.25-45.5T73 808V216q0-28.5 11.75-54.5t31.5-45.75 46-31.25T217 73h590q28.5 0 54.75 11.5t46 31.25 31.5 45.75T951 216v592q0 28.5-11.75 54.5T908 908t-45.5 31.25T808 951Zm588.5-73.5q15 0 28.5-5.75t23.25-15.5 15.5-23.25 5.75-28.5v-585q0-15-5.75-28.5t-15.5-23.25-23.25-15.5-28.5-5.75h-585q-15 0-28.5 5.75t-23.25 15.5-15.5 23.25-5.75 28.5v585q0 15 5.75 28.5t15.5 23.25 23.25 15.5 28.5 5.75ZM329 548.5q-15 0-25.75-10.75T292.5 512t10.75-25.75T329 475.5h366q15 0 25.75 10.75T731.5 512t-10.75 25.75T695 548.5Z"/></svg>