<svg height="100%" viewBox="64 64 960 960" width="100%" xmlns="http://www.w3.org/2000/svg" xmlns:xlink="http://www.w3.org/1999/xlink">
  <path d="M252,896C227,896 203.083,890.917 180.25,880.75C157.417,870.583 137.417,856.917 120.25,839.75C103.083,822.583 89.4167,802.583 79.25,779.75C69.0833,756.917 64,733 64,708L64,252C64,227 69.0833,203.083 79.25,180.25C89.4167,157.417 103.083,137.417 120.25,120.25C137.417,103.083 157.417,89.4167 180.25,79.25C203.083,69.0834 227,64.0001 252,64L708,64C733,64.0001 756.917,69.0834 779.75,79.25C802.583,89.4167 822.583,103.083 839.75,120.25C856.917,137.417 870.583,157.417 880.75,180.25C890.917,203.083 896,227 896,252L896,708C896,733 890.917,756.917 880.75,779.75C870.583,802.583 856.917,822.583 839.75,839.75C822.583,856.917 802.583,870.583 779.75,880.75C756.917,890.917 733,896 708,896ZM706.5,832C723.167,832 739.083,828.583 754.25,821.75C769.417,814.917 782.75,805.75 794.25,794.25C805.75,782.75 814.917,769.417 821.75,754.25C828.583,739.083 832,723.167 832,706.5L832,253.5C832,236.833 828.583,220.917 821.75,205.75C814.917,190.583 805.75,177.25 794.25,165.75C782.75,154.25 769.417,145.083 754.25,138.25C739.083,131.417 723.167,128 706.5,128L253.5,128C236.833,128 220.917,131.417 205.75,138.25C190.583,145.083 177.25,154.25 165.75,165.75C154.25,177.25 145.083,190.583 138.25,205.75C131.417,220.917 128,236.833 128,253.5L128,706.5C128,723.167 131.417,739.083 138.25,754.25C145.083,769.417 154.25,782.75 165.75,794.25C177.25,805.75 190.583,814.917 205.75,821.75C220.917,828.583 236.833,832 253.5,832ZM241,960L772,960C798,960 822.417,954.833 845.25,944.5C868.083,934.167 888,920.167 905,902.5C922,884.833 935.417,864.417 945.25,841.25C955.083,818.083 960,793.667 960,768L960,241C980.667,259 996.5,280.5 1007.5,305.5C1018.5,330.5 1024,356.667 1024,384L1024,773C1024,795.333 1020.92,817 1014.75,838C1008.58,859 999.917,878.833 988.75,897.5C977.583,916.167 964.25,933.25 948.75,948.75C933.25,964.25 916.167,977.583 897.5,988.75C878.833,999.917 859,1008.58 838,1014.75C817,1020.92 795.333,1024 773,1024L384,1024C356.667,1024 330.5,1018.5 305.5,1007.5C280.5,996.5 259,980.667 241,960ZM288,512C279.333,512 271.833,508.833 265.5,502.5C259.167,496.167 256,488.667 256,480C256,471.333 259.167,463.833 265.5,457.5C271.833,451.167 279.333,448 288,448L672,448C680.667,448 688.167,451.167 694.5,457.5C700.833,463.833 704,471.333 704,480C704,488.667 700.833,496.167 694.5,502.5C688.167,508.833 680.667,512 672,512Z" fill="context-fill" fill-opacity="context-fill-opacity">
  </path>
</svg>