<svg height="16" viewBox="0 0 1024 1025" width="16" xmlns="http://www.w3.org/2000/svg" xmlns:xlink="http://www.w3.org/1999/xlink">
  <path d="M0,856C0,833.333 4.25,811.833 12.75,791.5C21.25,771.167 33.5,753 49.5,737L393.5,393C390.833,381.333 388.583,369.417 386.75,357.25C384.917,345.083 384,332.833 384,320.5C384,290.833 387.833,262.333 395.5,235C403.167,207.667 413.917,182.167 427.75,158.5C441.583,134.833 458.167,113.25 477.5,93.75C496.833,74.25 518.333,57.5834 542,43.75C565.667,29.9167 591.167,19.1667 618.5,11.5C645.833,3.83337 674.333,0 704,0C710,0 718.083,0.5 728.25,1.5C738.417,2.5 749.417,4 761.25,6C773.083,8 785.167,10.6667 797.5,14C809.833,17.3334 820.917,21.3334 830.75,26C840.583,30.6667 848.667,36.1667 855,42.5C861.333,48.8334 864.5,55.8334 864.5,63.5C864.5,72.1667 861.333,79.6667 855,86L685.5,256L768,338.5L938,169C944.333,162.667 951.833,159.5 960.5,159.5C968.5,159.5 975.583,162.667 981.75,169C987.917,175.333 993.333,183.5 998,193.5C1002.67,203.5 1006.67,214.583 1010,226.75C1013.33,238.917 1016,250.917 1018,262.75C1020,274.583 1021.5,285.583 1022.5,295.75C1023.5,305.917 1024,314 1024,320C1024,364.333 1015.67,405.917 999,444.75C982.333,483.583 959.5,517.5 930.5,546.5C901.5,575.5 867.583,598.333 828.75,615C789.917,631.667 748.333,640 704,640C691.667,640 679.417,639.083 667.25,637.25C655.083,635.417 643,633.167 631,630.5L287,975C280,982 272.167,988.5 263.5,994.5C254.833,1000.5 245.583,1005.75 235.75,1010.25C225.917,1014.75 215.917,1018.25 205.75,1020.75C195.583,1023.25 185.5,1024.5 175.5,1024.5C151.167,1024.5 128.333,1020.42 107,1012.25C85.6667,1004.08 67.0833,992.583 51.25,977.75C35.4167,962.917 22.9167,945.167 13.75,924.5C4.58333,903.833 0,881 0,856ZM622,562.5C625.333,562.5 628.5,563 631.5,564C643.5,567.667 655.5,570.583 667.5,572.75C679.5,574.917 691.833,576 704.5,576C739.833,576 773,569.25 804,555.75C835,542.25 862.083,523.917 885.25,500.75C908.417,477.583 926.667,450.5 940,419.5C953.333,388.5 960,355.333 960,320C960,307.667 959.083,295.5 957.25,283.5C955.417,271.5 952.667,259.667 949,248L790.5,406.5C784.5,412.5 777,415.5 768,415.5C759,415.5 751.5,412.5 745.5,406.5L617.5,278.5C611.167,272.167 608,264.667 608,256C608,247.333 611.167,239.833 617.5,233.5L776,75C764.333,71.3334 752.5,68.5834 740.5,66.75C728.5,64.9167 716.333,64.0001 704,64C668.667,64.0001 635.5,70.7501 604.5,84.25C573.5,97.7501 546.417,116.083 523.25,139.25C500.083,162.417 481.75,189.5 468.25,220.5C454.75,251.5 448,284.667 448,320C448,332.667 449.083,344.917 451.25,356.75C453.417,368.583 456.333,380.5 460,392.5C461,395.5 461.5,398.667 461.5,402C461.5,411 458.333,418.667 452,425L94.5,782.5C84.8333,792.167 77.3333,803.333 72,816C66.6667,828.667 64,842 64,856C64,870.333 66.75,883.75 72.25,896.25C77.75,908.75 85.25,919.75 94.75,929.25C104.25,938.75 115.25,946.25 127.75,951.75C140.25,957.25 153.667,960 168,960C182,960 195.333,957.333 208,952C220.667,946.667 231.833,939.167 241.5,929.5L599,572C605.333,565.667 613,562.5 622,562.5Z" fill="context-fill" fill-opacity="context-fill-opacity">
  </path>
</svg>