<svg xmlns="http://www.w3.org/2000/svg" width="16" height="16" viewBox="0 0 1024 1025"><path fill="context-fill" fill-opacity="context-fill-opacity" d="M0 856q0-34 12.75-64.5T49.5 737l344-344a484 484 0 0 1-6.75-35.75A246 246 0 0 1 384 320.5q0-44.5 11.5-85.5t32.25-76.5 49.75-64.75 64.5-50 76.5-32.25T704 0q9 0 24.25 1.5t33 4.5 36.25 8 33.25 12T855 42.5t9.5 21q0 13-9.5 22.5L685.5 256l82.5 82.5L938 169q9.5-9.5 22.5-9.5 12 0 21.25 9.5T998 193.5q7.005 15 12 33.25c3.33 12.167 6 24.167 8 36q3 17.75 4.5 33T1024 320c0 44.333-8.33 85.917-25 124.75Q974 503 930.5 546.5T828.75 615 704 640q-18.5 0-36.75-2.75A533 533 0 0 1 631 630.5L287 975q-10.5 10.5-23.5 19.5t-27.75 15.75-30 10.5-30.25 3.75c-24.333 0-47.167-4.08-68.5-12.25s-39.917-19.667-55.75-34.5Q27.5 955.5 13.75 924.5T0 856m622-293.5q5 0 9.5 1.5 18 5.5 36 8.75t37 3.25q53 0 99.5-20.25t81.25-55T940 419.5t20-99.5q0-18.5-2.75-36.5A238 238 0 0 0 949 248L790.5 406.5q-9 9-22.5 9t-22.5-9l-128-128Q608 269 608 256t9.5-22.5L776 75a238 238 0 0 0-35.5-8.25Q722.5 64 704 64q-53 0-99.5 20.25t-81.25 55-55 81.25T448 320q0 19 3.25 36.75T460 392.5q1.5 4.5 1.5 9.5 0 13.5-9.5 23L94.5 782.5Q80 797 72 816t-8 40q0 21.5 8.25 40.25t22.5 33 33 22.5T168 960q21 0 40-8t33.5-22.5L599 572q9.5-9.5 23-9.5"/></svg>