<svg xmlns="http://www.w3.org/2000/svg" width="16" height="16" viewBox="0 0 1024 1024"><path fill="context-fill" fill-opacity="context-fill-opacity" d="M384 192q-66.5 0-124.75 25T157.5 285.5 89 387.25 64 512q0 40.5 10.5 81.25t31 76.25q3 5.5 7.75 12a273 273 0 0 1 9.25 13.5q4.5 7 7.75 14t3.25 13q0 13-9.5 22.5t-22.5 9.5q-8.5 0-14.25-3.5T76 741q-18.5-21.5-32.75-49.5T19.5 633A442.5 442.5 0 0 1 5 571.25Q0 540 0 512q0-52.5 13.75-101.5t38.75-91.75 60-77.75 77.5-60.25 91.75-39T384 128h339l-73.5-73.5Q640 45 640 32t9.5-22.5T672 0t22.5 9.5l128 128Q832 147 832 160t-9.5 22.5l-128 128Q685 320 672 320t-22.5-9.5T640 288t9.5-22.5L723 192Zm640 320c0 35.333-4.58 69.25-13.75 101.75s-22.083 63-38.75 91.5q-25 42.75-60 77.75T834 843.25t-91.75 39T640 896H301.5l73 73.5Q384 979 384 992q0 13.005-9.5 22.5c-6.333 6.33-13.833 9.5-22.5 9.5s-16.167-3.17-22.5-9.5l-128-128Q192 877 192 864t9.5-22.5l128-128Q339 704 352 704t22.5 9.5T384 736t-9.5 22.5l-73 73.5H640q66.5 0 124.75-25t101.75-68.5T935 636.75 960 512q0-28.5-4-53t-12-47.5-19.75-45T897 321q-3.5-5.5-5-9t-1.5-10q0-13 9.25-22.75t22.75-9.75q8.5 0 14.25 3.5t11.25 9.5q18.5 21.5 32.75 49.5t23.75 58.75c6.33 20.5 11.17 41.167 14.5 62s5 40.583 5 59.25"/></svg>