<svg xmlns="http://www.w3.org/2000/svg" width="16" height="16" viewBox="0 0 1024 1024"><path fill="context-fill" fill-opacity="context-fill-opacity" d="M1024 992c0 8.67-3.17 16.17-9.5 22.5s-13.83 9.5-22.5 9.5c-8.667 0-16.167-3.17-22.5-9.5l-960-960Q0 45 0 32T9.5 9.5 32 0t22.5 9.5l960 960c6.33 6.333 9.5 13.833 9.5 22.5M384 192q-13 0-26 1a345 345 0 0 0-26 3l-53.5-53q51-15 105.5-15h339l-73.5-73.5Q640 45 640 32t9.5-22.5T672 0t22.5 9.5l128 128Q832 147 832 160t-9.5 22.5l-128 128Q685 320 672 320t-22.5-9.5T640 288t9.5-22.5L723 192Zm-227 10.5 46 45.5q-33 22-58.75 51.25t-43.5 63.25-27.25 72T64 512q0 54.5 16.25 100.5T127 703q3.5 5 5 8.75t1.5 10.25q0 13-9.5 22.75t-22.5 9.75q-8.5 0-14.25-3.5T76 741.5q-6.5-7-11.75-16T54 708.5q-27-45-40.5-94.75T0 512q0-94.5 41.25-173.75T157 202.5m713 532q43-45 66.5-102.5T960 512q0-54.5-16.25-100.5T897 321q-3.5-5-5-8.75T890.5 302q0-13 9.5-22.75t22.5-9.75q8.5 0 14.25 3.5t11.25 9.5q5.5 6.5 10.5 14.25T968 312q27.5 45.5 41.75 96.25T1024 512c0 50-9.33 98.083-28 144.25q-28 69.25-80.5 123.25ZM301.5 832H640q63 0 122.5-24.5l48 48.5q-40 19.5-82.75 29.75T640 896H301.5l73 73.5Q384 979 384 992q0 13.005-9.5 22.5c-6.333 6.33-13.833 9.5-22.5 9.5s-16.167-3.17-22.5-9.5l-128-128Q192 877 192 864t9.5-22.5l128-128Q339 704 352 704t22.5 9.5T384 736t-9.5 22.5Z"/></svg>