<svg height="100%" viewBox="0 0 1024 1024" width="100%" xmlns="http://www.w3.org/2000/svg" xmlns:xlink="http://www.w3.org/1999/xlink">
  <path d="M1024,992C1024,1000.67 1020.83,1008.17 1014.5,1014.5C1008.17,1020.83 1000.67,1024 992,1024C983.333,1024 975.833,1020.83 969.5,1014.5L9.5,54.5C3.16667,48.1667 0,40.6667 0,32C0,23.3334 3.16667,15.8334 9.5,9.5C15.8333,3.16669 23.3333,0 32,0C40.6667,0 48.1667,3.16669 54.5,9.5L1014.5,969.5C1020.83,975.833 1024,983.333 1024,992ZM384,192C375.333,192 366.667,192.333 358,193C349.333,193.667 340.667,194.667 332,196L278.5,143C312.5,133 347.667,128 384,128L723,128L649.5,54.5C643.167,48.1667 640,40.6667 640,32C640,23.3334 643.167,15.8334 649.5,9.5C655.833,3.16669 663.333,0 672,0C680.667,0 688.167,3.16669 694.5,9.5L822.5,137.5C828.833,143.833 832,151.333 832,160C832,168.667 828.833,176.167 822.5,182.5L694.5,310.5C688.167,316.833 680.667,320 672,320C663.333,320 655.833,316.833 649.5,310.5C643.167,304.167 640,296.667 640,288C640,279.333 643.167,271.833 649.5,265.5L723,192ZM157,202.5L203,248C181,262.667 161.417,279.75 144.25,299.25C127.083,318.75 112.583,339.833 100.75,362.5C88.9167,385.167 79.8333,409.167 73.5,434.5C67.1667,459.833 64,485.667 64,512C64,548.333 69.4167,581.833 80.25,612.5C91.0833,643.167 106.667,673.333 127,703C129.333,706.333 131,709.25 132,711.75C133,714.25 133.5,717.667 133.5,722C133.5,730.667 130.333,738.25 124,744.75C117.667,751.25 110.167,754.5 101.5,754.5C95.8333,754.5 91.0833,753.333 87.25,751C83.4167,748.667 79.6667,745.5 76,741.5C71.6667,736.833 67.75,731.5 64.25,725.5C60.75,719.5 57.3333,713.833 54,708.5C36,678.5 22.5,646.917 13.5,613.75C4.5,580.583 0,546.667 0,512C0,449 13.75,391.083 41.25,338.25C68.75,285.417 107.333,240.167 157,202.5ZM870,734.5C898.667,704.5 920.833,670.333 936.5,632C952.167,593.667 960,553.667 960,512C960,475.667 954.583,442.167 943.75,411.5C932.917,380.833 917.333,350.667 897,321C894.667,317.667 893,314.75 892,312.25C891,309.75 890.5,306.333 890.5,302C890.5,293.333 893.667,285.75 900,279.25C906.333,272.75 913.833,269.5 922.5,269.5C928.167,269.5 932.917,270.667 936.75,273C940.583,275.333 944.333,278.5 948,282.5C951.667,286.833 955.167,291.583 958.5,296.75C961.833,301.917 965,307 968,312C986.333,342.333 1000.25,374.417 1009.75,408.25C1019.25,442.083 1024,476.667 1024,512C1024,562 1014.67,610.083 996,656.25C977.333,702.417 950.5,743.5 915.5,779.5ZM301.5,832L640,832C682,832 722.833,823.833 762.5,807.5L810.5,856C783.833,869 756.25,878.917 727.75,885.75C699.25,892.583 670,896 640,896L301.5,896L374.5,969.5C380.833,975.833 384,983.333 384,992C384,1000.67 380.833,1008.17 374.5,1014.5C368.167,1020.83 360.667,1024 352,1024C343.333,1024 335.833,1020.83 329.5,1014.5L201.5,886.5C195.167,880.167 192,872.667 192,864C192,855.333 195.167,847.833 201.5,841.5L329.5,713.5C335.833,707.167 343.333,704 352,704C360.667,704 368.167,707.167 374.5,713.5C380.833,719.833 384,727.333 384,736C384,744.667 380.833,752.167 374.5,758.5Z" fill="context-fill" fill-opacity="context-fill-opacity">
  </path>
</svg>