<svg xmlns="http://www.w3.org/2000/svg" width="16" height="16" viewBox="0 171 1024 683"><path fill="context-fill" fill-opacity="context-fill-opacity" d="M0 554.5q0-5.5 1.5-11 15-56.5 42.75-106.25t65.5-91.25a518.4 518.4 0 0 1 83.5-74q45.75-32.5 97.5-55.25t107.75-34.5T512 170.5q57 0 112.75 11.75t107.5 34.25 98 55.25 84 74 65.5 90.75 42.75 106q1.5 5.5 1.5 11.5c0 12-4.08 22.083-12.25 30.25S993.5 596.5 981.5 596.5q-15 0-25.75-8.5T940 565.5q-4.5-14-8.75-26a996 996 0 0 0-8.75-23.75q-4.5-11.75-10-23.25T899 468q-29.5-49.5-71.25-88.75T736 312.75t-105.75-42T517.5 256h-11q-57 0-112.75 14.75T288 313t-92 66.75-71 88.75q-8 13-13.5 24.75t-10 23.25-8.75 23.5T84 566q-5 14-15.5 22.75t-26 8.75a39.05 39.05 0 0 1-16.25-3.5q-7.75-3.5-13.5-9.25t-9.25-13.5T0 554.5m256 43v-5q0-52 20.75-97.75t56-79.75 81.5-53.75T512 341.5q53 0 99.75 20t81.5 54.75 54.75 81.5 20 99.75-20 99.75-54.75 81.5-81.5 54.75-99.75 20-99.75-20-81.5-54.75-54.75-81.5-20-99.75m426.5 0V594q0-34.5-13.75-65t-37.25-53.25-54.5-36-65-13.25q-35.5 0-66.5 13.5t-54 36.75-36.5 54.5-13.5 66.25q0 35.5 13.5 66.5t36.5 54 54 36.5T512 768q35 0 66.25-13.5T632.5 718t36.5-54 13.5-66.5"/></svg>