<svg xmlns="http://www.w3.org/2000/svg" width="16" height="16" viewBox="0 0 16 16"><path fill="context-fill" fill-opacity="context-fill-opacity" d="M1 3a2 2 0 0 1 2-2h8.379a2 2 0 0 1 1.414.586l1.621 1.621A2 2 0 0 1 15 4.621V13a2 2 0 0 1-2 2H3a2 2 0 0 1-2-2zm2-1a1 1 0 0 0-1 1v10a1 1 0 0 0 1 1V9.5A1.5 1.5 0 0 1 4.5 8h7A1.5 1.5 0 0 1 13 9.5V14a1 1 0 0 0 1-1V4.621a1 1 0 0 0-.293-.707l-1.621-1.621A1 1 0 0 0 11.379 2H11v2.5A1.5 1.5 0 0 1 9.5 6h-4A1.5 1.5 0 0 1 4 4.5V2zm2 0v2.5a.5.5 0 0 0 .5.5h4a.5.5 0 0 0 .5-.5V2zm7 12V9.5a.5.5 0 0 0-.5-.5h-7a.5.5 0 0 0-.5.5V14z"/></svg>