<svg xmlns="http://www.w3.org/2000/svg" width="16" height="16" fill="none" viewBox="0 0 16 16"><path fill="context-fill" fill-opacity="context-fill-opacity" d="M16 13.5a2.5 2.5 0 0 1-2.5 2.5H8.9a2.5 2.5 0 0 1-2.5-2.5V8.9a2.5 2.5 0 0 1 2.5-2.5h4.6A2.5 2.5 0 0 1 16 8.9zM9.693 8.951a.29.29 0 0 0-.293.29v3.917a.289.289 0 0 0 .438.246l2.93-1.79a.49.49 0 0 0 .17-.651.5.5 0 0 0-.17-.177l-2.93-1.793a.3.3 0 0 0-.145-.042"/><path fill="context-fill" fill-opacity="context-fill-opacity" d="M11.379 1a2 2 0 0 1 1.414.586l1.621 1.621A2 2 0 0 1 15 4.621v1.116a3.5 3.5 0 0 0-1-.301V4.62a1 1 0 0 0-.293-.707l-1.621-1.621A1 1 0 0 0 11.379 2H11v2.5c0 .338-.114.65-.303.9H8.9c-.726 0-1.4.221-1.96.6H5.5A1.5 1.5 0 0 1 4 4.5V2H3a1 1 0 0 0-1 1v10a1 1 0 0 0 1 1V9.5A1.5 1.5 0 0 1 4.5 8h1.018c-.077.287-.118.59-.118.9V9h-.9a.5.5 0 0 0-.5.5V14h1.437c.05.353.153.69.3 1H3a2 2 0 0 1-2-2V3a2 2 0 0 1 2-2zM5 4.5a.5.5 0 0 0 .5.5h4a.5.5 0 0 0 .5-.5V2H5z"/></svg>