<svg xmlns="http://www.w3.org/2000/svg" fill="none" viewBox="0 0 16 16"><g clip-path="url(#a)"><path fill="context-fill" fill-opacity="context-fill-opacity" d="M3.2 13.867h2.292l-.267 1.066H2.092a1.9 1.9 0 0 1-.796-.17A2.23 2.23 0 0 1 .17 13.636a1.9 1.9 0 0 1-.17-.794V2.092q0-.417.17-.796A2.23 2.23 0 0 1 1.297.17Q1.675 0 2.092 0h8.45q.424 0 .816.163.392.162.692.462l2.258 2.258q.209.21.334.421.125.213.187.438.063.225.083.475t.021.533v.425a3.2 3.2 0 0 0-.833-.108h-.12a1 1 0 0 0-.113.008v-.117l.008-.225v-.116q0-.267-.058-.521a.93.93 0 0 0-.259-.454l-2.266-2.267a1.02 1.02 0 0 0-.625-.3v2.658q0 .326-.125.617a1.62 1.62 0 0 1-.859.858q-.292.125-.616.125H4.8a1.5 1.5 0 0 1-.617-.125 1.62 1.62 0 0 1-.858-.858 1.55 1.55 0 0 1-.125-.617V1.067H2.133q-.225 0-.416.083a1.08 1.08 0 0 0-.567.567 1 1 0 0 0-.083.416V12.8a1.06 1.06 0 0 0 .645.983q.196.084.421.084v-4.8q0-.326.125-.617a1.62 1.62 0 0 1 .859-.858q.292-.125.616-.125h6.609a22 22 0 0 0-.521.537q-.255.27-.53.53H3.734a.51.51 0 0 0-.375.158.51.51 0 0 0-.158.375zm5.867-9.6q.217 0 .375-.159a.51.51 0 0 0 .158-.375V1.067H4.267v2.666q0 .217.158.375.158.159.375.159zM16 8.308q0 .275-.054.5t-.159.425a2.2 2.2 0 0 1-.254.384q-.15.183-.333.375l-2.75-2.75q.183-.192.358-.35.176-.159.367-.267a1.7 1.7 0 0 1 .417-.167q.225-.058.5-.058.399 0 .75.146.35.146.608.404t.404.608q.146.351.146.75m-4.492-.125 2.75 2.75-4.141 4.142a.7.7 0 0 1-.163.125 1 1 0 0 1-.187.075 29 29 0 0 1-.887.246 177 177 0 0 1-1.27.317 18 18 0 0 1-.51.116q-.216.045-.292.046a.35.35 0 0 1-.254-.113.35.35 0 0 1-.112-.254q0-.066.045-.283.046-.217.117-.517a64 64 0 0 1 .463-1.829q.066-.237.1-.337a.8.8 0 0 1 .2-.342z"/></g><defs><clipPath id="a"><path fill="context-fill" fill-opacity="context-fill-opacity" d="M0 0h16v16H0z"/></clipPath></defs></svg>