<svg xmlns="http://www.w3.org/2000/svg" width="16" height="16" viewBox="0 0 16 16"><path fill="context-fill" fill-opacity="context-fill-opacity" d="M13.125 3.882v2.74a3 3 0 0 0-.469-.034h-.469V3.882a.91.91 0 0 0-.27-.669l-1.993-2A.9.9 0 0 0 9.375.95v2.345a1.416 1.416 0 0 1-.864 1.302 1.24 1.24 0 0 1-.542.11h-3.75c-.186 0-.37-.037-.542-.11a1.4 1.4 0 0 1-.447-.302 1.5 1.5 0 0 1-.308-.456 1.25 1.25 0 0 1-.11-.544V.941h-.937a.9.9 0 0 0-.659.272c-.086.087-.156.19-.205.301a.8.8 0 0 0-.073.368v9.412a.9.9 0 0 0 .073.368q.073.168.197.301a.8.8 0 0 0 .294.199q.18.069.373.073V8a1.42 1.42 0 0 1 .864-1.302 1.24 1.24 0 0 1 .542-.11h5.617c-.89.002-1.698.36-2.288.941H3.28A.473.473 0 0 0 2.813 8v4.235h2.812v.941h-3.75a1.8 1.8 0 0 1-.71-.146 2 2 0 0 1-.6-.397A1.79 1.79 0 0 1 0 11.33V1.882c0-.245.049-.488.146-.713C.242.946.376.741.542.565A1.831 1.831 0 0 1 1.839 0h7.419c.246 0 .49.047.718.14.23.092.436.233.607.412l1.993 2c.174.173.311.38.403.61s.142.473.146.72M3.75.942v2.352a.476.476 0 0 0 .469.47h3.75a.47.47 0 0 0 .468-.47V.941zm2.813 8.94c0-1.3 1.049-2.353 2.343-2.353h3.75A2.35 2.35 0 0 1 15 9.882v3.765c0 .48-.143.926-.388 1.298l-2.836-2.847a1.4 1.4 0 0 0-1.99 0l-2.835 2.847a2.35 2.35 0 0 1-.388-1.298zm6.562.236a.705.705 0 0 0-.703-.706.705.705 0 0 0-.703.706c0 .39.315.706.703.706a.705.705 0 0 0 .703-.706M7.614 15.61c.37.247.815.39 1.292.39h3.75c.478 0 .922-.143 1.293-.39l-2.836-2.847a.467.467 0 0 0-.663 0z"/></svg>