<svg xmlns="http://www.w3.org/2000/svg" width="16" height="16" fill="none" viewBox="0 0 16 16"><g clip-path="url(#a)"><path fill="context-fill" fill-opacity="context-fill-opacity" d="M12.87 10c1.739 0 3.149 1.342 3.149 2.998 0 1.6-1.318 2.908-2.975 2.993l-.173.005V16a.44.44 0 0 1-.452-.427c0-.21.157-.385.367-.423l.081-.006.002-.004c1.243 0 2.25-.96 2.25-2.142 0-1.135-.929-2.064-2.102-2.137l-.148-.005a.44.44 0 0 1-.45-.427c0-.21.16-.386.37-.422zm-2.701 0a.44.44 0 0 1 .45.429c0 .21-.16.384-.369.42l-.081.007c-1.243 0-2.25.96-2.25 2.142 0 1.135.929 2.064 2.103 2.137l.147.005a.44.44 0 0 1 .45.427c0 .21-.16.386-.369.422l-.081.007c-1.74 0-3.15-1.342-3.15-2.998 0-1.6 1.318-2.908 2.977-2.993zm1.21-9a2 2 0 0 1 1.414.586l1.621 1.621A2 2 0 0 1 15 4.621v4.976a4.1 4.1 0 0 0-1-.436v-4.54a1 1 0 0 0-.293-.707l-1.621-1.621A1 1 0 0 0 11.379 2H11v2.5A1.5 1.5 0 0 1 9.5 6h-4A1.5 1.5 0 0 1 4 4.5V2H3a1 1 0 0 0-1 1v10a1 1 0 0 0 1 1V9.5A1.5 1.5 0 0 1 4.5 8h7c.653 0 1.207.418 1.413 1.001L12.855 9H4.5a.5.5 0 0 0-.5.5V14h2.126c.091.355.231.69.41 1H3a2 2 0 0 1-2-2V3a2 2 0 0 1 2-2zm1.49 11.571a.44.44 0 0 1 .45.429c0 .21-.16.386-.369.422l-.08.007-2.701-.002a.44.44 0 0 1-.45-.429c0-.21.16-.386.37-.422l.08-.007zM5 4.5a.5.5 0 0 0 .5.5h4a.5.5 0 0 0 .5-.5V2H5z"/></g><defs><clipPath id="a"><path d="M0 0h16v16H0z"/></clipPath></defs></svg>