<svg xmlns="http://www.w3.org/2000/svg" width="16" height="16" viewBox="0 0 16 16"><path fill="context-fill" fill-opacity="context-fill-opacity" d="M3.867 1.935c-.237.59-.401 1.398-.44 2.315h2.426c-.038-.917-.203-1.725-.44-2.315-.136-.34-.287-.587-.435-.743C4.831 1.037 4.717 1 4.64 1s-.191.037-.338.192c-.147.156-.3.403-.435.743m-.586-.675q-.092.178-.17.373c-.28.7-.46 1.615-.498 2.617H1a3.66 3.66 0 0 1 2.28-2.99M6 1.26q.09.178.169.373c.28.7.46 1.615.498 2.617H8.28A3.66 3.66 0 0 0 6 1.26m2.28 3.802H6.667C6.63 6.066 6.45 6.98 6.17 7.68q-.077.195-.17.372a3.66 3.66 0 0 0 2.281-2.99m-3.64 3.25c.077 0 .191-.037.338-.192s.3-.403.435-.742c.237-.59.402-1.399.44-2.315H3.428c.038.916.202 1.725.439 2.315.136.34.288.587.435.742s.261.193.338.193m-1.36-.26A3.66 3.66 0 0 1 1 5.062h1.613c.038 1.003.218 1.917.498 2.618q.078.195.17.372m8.278-4.614h-2.61a4.4 4.4 0 0 0-.32-.813h2.93A2.44 2.44 0 0 1 14 5.063v6.5A2.44 2.44 0 0 1 11.558 14h-6.51a2.44 2.44 0 0 1-2.442-2.437V8.638q.387.198.813.319v2.605c0 .303.083.587.228.83l3.8-3.728a1.22 1.22 0 0 1 1.711 0l3.8 3.727c.145-.242.228-.526.228-.828v-6.5c0-.898-.729-1.625-1.628-1.625m0 2.843a1.22 1.22 0 1 1-2.44-.002 1.22 1.22 0 0 1 2.44.002m-.814 0a.407.407 0 1 0-.813 0 .407.407 0 0 0 .813 0m-5.697 6.907h6.511c.3 0 .582-.082.824-.223L8.588 9.243a.407.407 0 0 0-.57 0l-3.794 3.722c.241.141.523.223.823.223"/></svg>