<svg xmlns="http://www.w3.org/2000/svg" width="16" height="16" viewBox="64 64 961 960"><path fill="context-fill" fill-opacity="context-fill-opacity" d="M501.5 896a258 258 0 0 0 19.5 33.5 353 353 0 0 0 23.5 30.5H252q-37.5 0-71.75-15.25t-60-41-41-60T64 772V252q0-37.5 15.25-71.75t41-60 60-41T252 64h520q37.5 0 71.75 15.25t60 41 41 60T960 252v170.5a241 241 0 0 1-33-9.25 234 234 0 0 1-31-13.75V320H128v450.5q0 26 10.5 48.75t28 39.75 40.75 27T256 896Zm-248-768q-25.5 0-48.5 10.5t-40 28-27 40.75T128 256h768v-2.5q0-25-10.25-47.75t-27.5-40-40-27.5T770.5 128Zm771 569q0 60-18 111.5t-50.75 92.75-78.5 72c-30.5 20.5-64.25 36.92-101.25 49.25q-4 1.5-8 1.5-4.5 0-8-1.5c-25.333-9-49.167-19.17-71.5-30.5q-33.5-17-61.25-40.25t-49.5-53.25-35.75-69q-5-13.5-10.25-33.5T522 754.25 514.75 712 512 677.5v-160q0-11.5 7.5-19 4-4 8.25-5.5t9.75-2.5a1214 1214 0 0 1 30.25-4.5 563 563 0 0 0 29.25-4.75 342 342 0 0 0 28.75-6.75q14.25-4 28.75-10.5t26.75-14.75a348 348 0 0 0 23.75-17.5 490 490 0 0 0 22.5-19.25q11-10 22.5-20.5 4.5-4 8.25-6t9.75-2 10 2 8 6q22 22 44.75 40.5T882 464a296.5 296.5 0 0 0 44.5 16.5q23 6.5 47 8.5 6 .5 12.5.5t12.5 1c5.67.667 11.25 2.75 16.75 6.25q8.25 5.25 8.25 15.25c0 31 .17 61.833.5 92.5s.5 61.5.5 92.5"/></svg>