<svg xmlns="http://www.w3.org/2000/svg" width="16" height="16" viewBox="0 0 1025 1025"><path fill="context-fill" fill-opacity="context-fill-opacity" d="M0 160v-34.5q0-25 10.25-47.75t27.5-40 40-27.5T125.5 0l19-.5q8.5 0 17 1T176.75 5t11 9.75T192 32q0 11.5-4.25 17.75t-11 9.25-15.25 3.75-16.5.75h-7.5q-74 0-74 74L64 160q0 13-9.5 22.5T32 192t-22.5-9.5T0 160m320-96q-13 0-22.5-9.5T288 32t9.5-22.5T320 0h128q13 0 22.5 9.5T480 32t-9.5 22.5T448 64Zm288 0q-13 0-22.5-9.5T576 32t9.5-22.5T608 0h128q13 0 22.5 9.5T768 32t-9.5 22.5T736 64Zm224-32q0-13 9.5-22.5T864 0h34.5q25 0 47.75 10.25t40 27.5c11.5 11.5 20.67 24.833 27.5 40S1024 108.833 1024 125.5l.5 19c0 5.667-.33 11.333-1 17q-1.005 8.5-4.5 15.25t-9.75 11c-4.17 2.833-9.917 4.25-17.25 4.25q-11.5 0-17.75-4.25T965 177t-3.75-14.75-.75-16.75v-8q0-36-19-55t-55-19L864 64q-13 0-22.5-9.5T832 32M224 448q-19.5 0-37-7.5t-30.75-20.75T135.5 389t-7.5-37V224q0-19.5 7.5-37t20.75-30.75T187 135.5t37-7.5h128q19.5 0 37 7.5t30.75 20.75T440.5 187t7.5 37v128q0 19.5-7.5 37t-20.75 30.75T389 440.5t-37 7.5Zm448 0q-19.5 0-37-7.5t-30.75-20.75T583.5 389t-7.5-37V224q0-19.5 7.5-37t20.75-30.75T635 135.5t37-7.5h128q19.5 0 37 7.5t30.75 20.75T888.5 187t7.5 37v128q0 19.5-7.5 37t-20.75 30.75T837 440.5t-37 7.5Zm-320-64q13 0 22.5-9.5T384 352V224q0-13-9.5-22.5T352 192H224q-13 0-22.5 9.5T192 224v128q0 13 9.5 22.5T224 384Zm448 0q13 0 22.5-9.5T832 352V224q0-13-9.5-22.5T800 192H672q-13 0-22.5 9.5T640 224v128q0 13 9.5 22.5T672 384ZM0 416V288q0-13 9.5-22.5T32 256t22.5 9.5T64 288v128q0 13-9.5 22.5T32 448t-22.5-9.5T0 416m960 0V288q0-13 9.5-22.5T992 256q13.005 0 22.5 9.5c6.33 6.333 9.5 13.833 9.5 22.5v128c0 8.667-3.17 16.167-9.5 22.5q-9.495 9.5-22.5 9.5-13 0-22.5-9.5T960 416M0 704V576q0-13 9.5-22.5T32 544t22.5 9.5T64 576v128q0 13-9.5 22.5T32 736t-22.5-9.5T0 704m960 0V576q0-13 9.5-22.5T992 544q13.005 0 22.5 9.5c6.33 6.333 9.5 13.833 9.5 22.5v128c0 8.667-3.17 16.167-9.5 22.5q-9.495 9.5-22.5 9.5-13 0-22.5-9.5T960 704M224 896q-19.5 0-37-7.5t-30.75-20.75T135.5 837t-7.5-37V672q0-19.5 7.5-37t20.75-30.75T187 583.5t37-7.5h128q19.5 0 37 7.5t30.75 20.75T440.5 635t7.5 37v128q0 19.5-7.5 37t-20.75 30.75T389 888.5t-37 7.5Zm448 0q-19.5 0-37-7.5t-30.75-20.75T583.5 837t-7.5-37V672q0-19.5 7.5-37t20.75-30.75T635 583.5t37-7.5h128q19.5 0 37 7.5t30.75 20.75T888.5 635t7.5 37v128q0 19.5-7.5 37t-20.75 30.75T837 888.5t-37 7.5Zm-320-64q13 0 22.5-9.5T384 800V672q0-13-9.5-22.5T352 640H224q-13 0-22.5 9.5T192 672v128q0 13 9.5 22.5T224 832Zm448 0q13 0 22.5-9.5T832 800V672q0-13-9.5-22.5T800 640H672q-13 0-22.5 9.5T640 672v128q0 13 9.5 22.5T672 832Zm-674.5 192c-16.667 0-32.583-3.42-47.75-10.25s-28.5-16-40-27.5q-17.25-17.25-27.5-40T0 898.5l-.5-19q0-8.5 1-17t4.25-15.25 9.75-11T32 832t17.5 4.25 9.5 11 3.75 15.25.75 16.5v7.5q0 74 74 74l22.5-.5q13 0 22.5 9.5T192 992q0 13.005-9.5 22.5c-6.333 6.33-13.833 9.5-22.5 9.5ZM832 992q0-11 4.25-17.5t11-9.5 15-3.75 16.75-.75h7.5q74 0 74-74L960 864q0-13 9.5-22.5T992 832q13.005 0 22.5 9.5c6.33 6.333 9.5 13.833 9.5 22.5v34.5c0 16.667-3.42 32.583-10.25 47.75s-16 28.5-27.5 40-24.833 20.67-40 27.5S915.167 1024 898.5 1024l-19 .5c-5.667 0-11.333-.33-17-1s-10.75-2.08-15.25-4.25q-6.75-3.255-11-9.75c-2.833-4.33-4.25-10.167-4.25-17.5m-512 32c-8.667 0-16.167-3.17-22.5-9.5q-9.5-9.495-9.5-22.5 0-13 9.5-22.5T320 960h128q13 0 22.5 9.5T480 992q0 13.005-9.5 22.5c-6.333 6.33-13.833 9.5-22.5 9.5Zm288 0c-8.667 0-16.167-3.17-22.5-9.5q-9.5-9.495-9.5-22.5 0-13 9.5-22.5T608 960h128q13 0 22.5 9.5T768 992q0 13.005-9.5 22.5c-6.333 6.33-13.833 9.5-22.5 9.5Z"/></svg>