<svg xmlns="http://www.w3.org/2000/svg" width="16" height="16" fill="none" viewBox="0 0 16 16"><g clip-path="url(#a)"><path fill="context-fill" fill-opacity="context-fill-opacity" d="M5.5 5A1.5 1.5 0 0 1 7 6.5v8A1.5 1.5 0 0 1 5.5 16h-4A1.5 1.5 0 0 1 0 14.5v-8A1.5 1.5 0 0 1 1.5 5zM3 13a.5.5 0 0 0 0 1h1a.5.5 0 0 0 0-1zm12.5-1a.5.5 0 0 1 0 1H8v-1zm-2-11A1.5 1.5 0 0 1 15 2.5v7a1.5 1.5 0 0 1-1.5 1.5H8v-1h5.5a.5.5 0 0 0 .5-.5v-7a.5.5 0 0 0-.5-.5h-11a.5.5 0 0 0-.5.5V4H1V2.5A1.5 1.5 0 0 1 2.5 1z"/></g><defs><clipPath id="a"><path d="M0 0h16v16H0z"/></clipPath></defs></svg>