<svg width="16" height="16" viewBox="0 0 16 16" fill="none" xmlns="http://www.w3.org/2000/svg">
<g clip-path="url(#clip0_316_8)">
<path d="M4.69531 12.7891C4.51302 12.7891 4.33333 12.8229 4.15625 12.8906C4.02605 12.9427 3.89323 12.9974 3.75781 13.0547L3.5 13.1641C3.3698 13.2214 3.23698 13.276 3.10156 13.3281C2.92448 13.3958 2.7448 13.4297 2.5625 13.4297C2.40625 13.4297 2.26302 13.3971 2.13281 13.332C2.00261 13.2669 1.88542 13.1745 1.78125 13.0547C1.71355 12.9766 1.63411 12.8724 1.54297 12.7422C1.45182 12.612 1.35677 12.4688 1.25781 12.3125C1.15885 12.1562 1.0599 11.9909 0.960938 11.8164C0.86198 11.6419 0.774739 11.4727 0.699219 11.3086C0.623698 11.1445 0.5625 10.9896 0.515625 10.8438C0.46875 10.6979 0.445312 10.5755 0.445312 10.4766C0.445312 10.2891 0.492188 10.1211 0.585938 9.97266C0.679688 9.82422 0.795573 9.6888 0.933594 9.56641C1.07161 9.44402 1.22266 9.32812 1.38672 9.21875C1.55078 9.10938 1.70183 8.99348 1.83984 8.87109C1.97786 8.7487 2.09375 8.61848 2.1875 8.48047C2.28125 8.34245 2.32812 8.1823 2.32812 8C2.32812 7.82292 2.28125 7.66406 2.1875 7.52344C2.09375 7.38281 1.97656 7.2513 1.83594 7.12891C1.69531 7.00652 1.54427 6.88802 1.38281 6.77344C1.22135 6.65886 1.07031 6.53777 0.929688 6.41016C0.789062 6.28255 0.671875 6.14583 0.578125 6C0.484375 5.85417 0.4375 5.6875 0.4375 5.5C0.4375 5.40625 0.462239 5.28645 0.511719 5.14062C0.561198 4.9948 0.625 4.83855 0.703125 4.67188C0.78125 4.5052 0.871094 4.33464 0.972656 4.16016C1.07422 3.98567 1.17578 3.81902 1.27734 3.66016C1.37891 3.5013 1.47656 3.35677 1.57031 3.22656C1.66406 3.09636 1.7448 2.9948 1.8125 2.92188C1.91667 2.8073 2.03516 2.71875 2.16797 2.65625C2.30078 2.59375 2.4427 2.5625 2.59375 2.5625C2.77605 2.5625 2.95312 2.59636 3.125 2.66406C3.29688 2.73177 3.46875 2.80598 3.64062 2.88672C3.8125 2.96745 3.98567 3.04167 4.16016 3.10938C4.33464 3.17708 4.51302 3.21094 4.69531 3.21094C4.92969 3.21094 5.13152 3.13933 5.30078 2.99609C5.47005 2.85286 5.57552 2.66667 5.61719 2.4375L5.89844 0.90625C5.94011 0.687502 6.03516 0.507814 6.18359 0.367188C6.33203 0.226564 6.51562 0.135418 6.73438 0.09375C6.9427 0.057293 7.15364 0.0325527 7.36719 0.0195312C7.58073 0.00651073 7.79167 0 8 0C8.21875 0 8.4375 0.0078125 8.65625 0.0234375C8.875 0.0390625 9.09114 0.0677089 9.30469 0.109375C9.52344 0.151042 9.70312 0.242188 9.84375 0.382812C9.98438 0.523438 10.0755 0.703125 10.1172 0.921875C10.1432 1.04688 10.1667 1.17448 10.1875 1.30469L10.3125 2.05469C10.3385 2.17969 10.362 2.3073 10.3828 2.4375C10.4245 2.66145 10.5312 2.84636 10.7031 2.99219C10.875 3.13802 11.0755 3.21094 11.3047 3.21094C11.487 3.21094 11.6667 3.17708 11.8438 3.10938C11.9792 3.0573 12.112 3.00261 12.2422 2.94531L12.5 2.83594C12.6354 2.77864 12.7682 2.72395 12.8984 2.67188C13.0755 2.60417 13.2552 2.57031 13.4375 2.57031C13.599 2.57031 13.7435 2.60286 13.8711 2.66797C13.9987 2.73308 14.1146 2.82552 14.2188 2.94531C14.2865 3.02344 14.3659 3.12761 14.457 3.25781C14.5482 3.38802 14.6432 3.53125 14.7422 3.6875C14.8411 3.84375 14.9401 4.00911 15.0391 4.18359C15.138 4.35808 15.2253 4.52734 15.3008 4.69141C15.3763 4.85547 15.4375 5.01042 15.4844 5.15625C15.5312 5.30208 15.5547 5.42448 15.5547 5.52344C15.5547 5.71614 15.5078 5.88542 15.4141 6.03125C15.3203 6.17708 15.2044 6.3112 15.0664 6.43359C14.9284 6.55598 14.7773 6.67188 14.6133 6.78125C14.4492 6.89062 14.2982 7.00652 14.1602 7.12891C14.0221 7.2513 13.9062 7.38152 13.8125 7.51953C13.7188 7.65755 13.6719 7.8177 13.6719 8C13.6719 8.17708 13.7188 8.33594 13.8125 8.47656C13.9062 8.61719 14.0234 8.7487 14.1641 8.87109C14.3047 8.99348 14.4557 9.11198 14.6172 9.22656C14.7786 9.34114 14.9297 9.46223 15.0703 9.58984C15.2109 9.71745 15.3281 9.85417 15.4219 10C15.5156 10.1458 15.5625 10.3125 15.5625 10.5C15.5625 10.6042 15.5378 10.7279 15.4883 10.8711C15.4388 11.0143 15.375 11.1693 15.2969 11.3359C15.2188 11.5026 15.1289 11.6719 15.0273 11.8438C14.9258 12.0156 14.8242 12.1797 14.7227 12.3359C14.6211 12.4922 14.5221 12.6354 14.4258 12.7656C14.3294 12.8958 14.2474 13 14.1797 13.0781C14.0755 13.1927 13.9596 13.2812 13.832 13.3438C13.7044 13.4062 13.5651 13.4375 13.4141 13.4375C13.2422 13.4375 13.0664 13.4036 12.8867 13.3359C12.707 13.2682 12.5286 13.194 12.3516 13.1133C12.1745 13.0325 11.9974 12.9583 11.8203 12.8906C11.6432 12.8229 11.4714 12.7891 11.3047 12.7891C11.0755 12.7891 10.8984 12.8359 10.7734 12.9297C10.6484 13.0234 10.5521 13.1445 10.4844 13.293C10.4167 13.4414 10.3685 13.6055 10.3398 13.7852C10.3112 13.9648 10.2812 14.138 10.25 14.3047L10.1016 15.0938C10.0599 15.3177 9.96614 15.4987 9.82031 15.6367C9.67448 15.7747 9.48958 15.8645 9.26562 15.9062C9.0573 15.9427 8.84766 15.9675 8.63672 15.9805C8.42578 15.9934 8.21355 16 8 16C7.78125 16 7.5625 15.9922 7.34375 15.9766C7.125 15.9609 6.90886 15.9323 6.69531 15.8906C6.47656 15.8489 6.29688 15.7566 6.15625 15.6133C6.01562 15.47 5.92448 15.2891 5.88281 15.0703C5.84636 14.8828 5.8125 14.6953 5.78125 14.5078L5.71875 14.125C5.6875 13.9375 5.65364 13.75 5.61719 13.5625C5.57552 13.3385 5.46875 13.1536 5.29688 13.0078C5.125 12.862 4.92448 12.7891 4.69531 12.7891ZM9.11719 14.9219C9.13802 14.8073 9.16145 14.6654 9.1875 14.4961C9.21355 14.3268 9.24219 14.1536 9.27344 13.9766C9.30469 13.7995 9.33855 13.6302 9.375 13.4688C9.41145 13.3073 9.44792 13.1771 9.48438 13.0781C9.6302 12.6875 9.86458 12.375 10.1875 12.1406C10.5104 11.9062 10.8828 11.7891 11.3047 11.7891C11.4453 11.7891 11.6081 11.8138 11.793 11.8633C11.9779 11.9128 12.168 11.9714 12.3633 12.0391C12.5586 12.1068 12.7474 12.1771 12.9297 12.25C13.112 12.3229 13.2734 12.3854 13.4141 12.4375C13.6589 12.1458 13.875 11.8372 14.0625 11.5117C14.25 11.1862 14.4141 10.849 14.5547 10.5V10.4922L13.3594 9.47656C13.1406 9.29427 12.9714 9.07422 12.8516 8.81641C12.7318 8.55859 12.6719 8.28645 12.6719 8C12.6719 7.71355 12.7331 7.44011 12.8555 7.17969C12.9779 6.91927 13.1484 6.69792 13.3672 6.51562L14.5469 5.53125V5.52344C14.5469 5.51823 14.5365 5.48828 14.5156 5.43359C14.4948 5.37891 14.4818 5.34895 14.4766 5.34375C14.3516 5.02083 14.2018 4.71223 14.0273 4.41797C13.8529 4.1237 13.6562 3.84114 13.4375 3.57031H13.4297L11.9609 4.10156C11.7526 4.17448 11.5391 4.21094 11.3203 4.21094C10.9661 4.21094 10.6406 4.125 10.3438 3.95312C10.0938 3.8125 9.88672 3.625 9.72266 3.39062C9.55859 3.15625 9.45052 2.89844 9.39844 2.61719L9.13281 1.09375C8.75781 1.03125 8.3802 1 8 1C7.8125 1 7.625 1.00651 7.4375 1.01953C7.25 1.03255 7.06511 1.05208 6.88281 1.07812C6.83594 1.33854 6.79167 1.59636 6.75 1.85156C6.70833 2.10677 6.65886 2.36198 6.60156 2.61719C6.55469 2.84636 6.47395 3.05859 6.35938 3.25391C6.2448 3.44922 6.10417 3.61719 5.9375 3.75781C5.77083 3.89844 5.58333 4.00911 5.375 4.08984C5.16667 4.17058 4.9427 4.21094 4.70312 4.21094C4.46875 4.21094 4.24739 4.17188 4.03906 4.09375H4.03125L2.59375 3.5625H2.58594C2.34636 3.85938 2.1302 4.16797 1.9375 4.48828C1.7448 4.80859 1.58073 5.14583 1.44531 5.5V5.50781L2.64062 6.52344C2.85938 6.70573 3.02864 6.92578 3.14844 7.18359C3.26823 7.44141 3.32812 7.71355 3.32812 8C3.32812 8.28645 3.26692 8.55989 3.14453 8.82031C3.02214 9.08073 2.85156 9.30208 2.63281 9.48438L1.45312 10.4688V10.4766C1.45312 10.4818 1.46354 10.5117 1.48438 10.5664C1.50521 10.6211 1.51823 10.651 1.52344 10.6562C1.64844 10.9792 1.79817 11.2878 1.97266 11.582C2.14714 11.8763 2.34375 12.1589 2.5625 12.4297H2.57031L4.03906 11.8984C4.24739 11.8255 4.46094 11.7891 4.67969 11.7891C5.03386 11.7891 5.35938 11.875 5.65625 12.0469C5.90625 12.1875 6.11328 12.375 6.27734 12.6094C6.44141 12.8438 6.54948 13.1016 6.60156 13.3828L6.86719 14.9062C7.24219 14.9688 7.6198 15 8 15C8.1875 15 8.375 14.9935 8.5625 14.9805C8.75 14.9675 8.93489 14.9479 9.11719 14.9219ZM5 8C5 7.58333 5.07812 7.1927 5.23438 6.82812C5.39062 6.46355 5.60417 6.14583 5.875 5.875C6.14583 5.60417 6.46355 5.39062 6.82812 5.23438C7.1927 5.07812 7.58333 5 8 5C8.41667 5 8.8073 5.07812 9.17188 5.23438C9.53645 5.39062 9.85417 5.60417 10.125 5.875C10.3958 6.14583 10.6094 6.46355 10.7656 6.82812C10.9219 7.1927 11 7.58333 11 8C11 8.41667 10.9219 8.8073 10.7656 9.17188C10.6094 9.53645 10.3958 9.85417 10.125 10.125C9.85417 10.3958 9.53645 10.6094 9.17188 10.7656C8.8073 10.9219 8.41667 11 8 11C7.58333 11 7.1927 10.9219 6.82812 10.7656C6.46355 10.6094 6.14583 10.3958 5.875 10.125C5.60417 9.85417 5.39062 9.53645 5.23438 9.17188C5.07812 8.8073 5 8.41667 5 8ZM10 8C10 7.72395 9.94792 7.46484 9.84375 7.22266C9.73958 6.98047 9.59636 6.76823 9.41406 6.58594C9.23177 6.40364 9.01953 6.26042 8.77734 6.15625C8.53516 6.05208 8.27605 6 8 6C7.72395 6 7.46484 6.05208 7.22266 6.15625C6.98047 6.26042 6.76823 6.40364 6.58594 6.58594C6.40364 6.76823 6.26042 6.98047 6.15625 7.22266C6.05208 7.46484 6 7.72395 6 8C6 8.27605 6.05208 8.53516 6.15625 8.77734C6.26042 9.01953 6.40364 9.23177 6.58594 9.41406C6.76823 9.59636 6.98047 9.73958 7.22266 9.84375C7.46484 9.94792 7.72395 10 8 10C8.27605 10 8.53516 9.94792 8.77734 9.84375C9.01953 9.73958 9.23177 9.59636 9.41406 9.41406C9.59636 9.23177 9.73958 9.01953 9.84375 8.77734C9.94792 8.53516 10 8.27605 10 8Z" fill="context-fill" fill-opacity="context-fill-opacity"/>
</g>
<defs>
<clipPath id="clip0_316_8">
<rect width="16" height="16"/>
</clipPath>
</defs>
</svg>
