<svg xmlns="http://www.w3.org/2000/svg" width="16" height="16" viewBox="64 0 896 1024"><path fill="context-fill" fill-opacity="context-fill-opacity" d="M64 480V192q0-14 7.75-21t19.75-10.5q11-3 23-4.25t23-3.75a946 946 0 0 0 37.75-7.75A662 662 0 0 0 213 135q39-11 75-24.5T358.25 81 426 46t68-40.5q4.5-2.5 8.5-4T512 0t9.5 1.5 8.5 4Q564.5 27 598 46t67.75 35A974 974 0 0 0 736 110.5q36 13.5 75 24.5a662 662 0 0 0 37.75 9.75 946 946 0 0 0 37.75 7.75q11 2.5 23 3.75t23 4.25q12 3.5 19.75 10.5t7.75 21v288q0 105.5-33.5 190.25t-92.25 151T695.75 937t-172.25 85c-3 1.33-6.833 2-11.5 2-1.667 0-3.583-.17-5.75-.5q-3.25-.495-5.75-1.5-92.5-35-172.25-84.75t-138.5-116.5T97.5 669.5 64 480m832 0V219.5q-102.5-17.5-199.5-55T512 70q-87.5 57-184.5 94.5t-199.5 55V480q0 93.5 29.5 167.75T238.75 780 360.5 881.75 512 957.5q81.5-32 151.5-75.75T785.25 780t81.25-132.25T896 480"/></svg>