<svg xmlns="http://www.w3.org/2000/svg" width="16" height="16" fill="none" viewBox="0 0 16 16"><path fill="context-fill" fill-opacity="context-fill-opacity" d="M.998 1.5a.5.5 0 1 1 1 0v2.206a7.996 7.996 0 0 1 13.161 1.74.5.5 0 1 1-.896.444A6.996 6.996 0 0 0 2.252 5h3.246a.5.5 0 0 1 0 1h-4a.5.5 0 0 1-.5-.5zM8.423 15.096c1.547 0 2.577-.992 2.577-2.423 0-1.368-.962-2.33-2.33-2.33-.685 0-1.27.246-1.603.709h-.025l.21-2.121h2.959c.284 0 .468-.185.468-.462 0-.284-.184-.469-.468-.469H7.19c-.543 0-.839.24-.888.764l-.259 2.7c-.03.34.173.574.512.574.265 0 .37-.055.666-.357.283-.284.733-.463 1.159-.463.93 0 1.566.598 1.566 1.486 0 .832-.58 1.467-1.56 1.467-.678 0-1.202-.345-1.443-.943-.098-.246-.228-.345-.462-.345-.29 0-.481.185-.481.468 0 .167.03.309.099.457.382.813 1.239 1.288 2.324 1.288"/></svg>