<svg xmlns="http://www.w3.org/2000/svg" width="16" height="16" fill="none" viewBox="0 0 16 16"><path fill="context-fill" fill-opacity="context-fill-opacity" d="M10.21 8c.284 0 .47.182.47.462 0 .273-.186.457-.47.457H7.253l-.21 2.092h.024c.333-.457.92-.7 1.604-.7 1.368 0 2.33.95 2.33 2.3C11 14.02 9.97 15 8.423 15c-1.085 0-1.942-.468-2.325-1.27A1 1 0 0 1 6 13.28c0-.28.191-.464.481-.464.234 0 .364.098.462.341.24.59.765.93 1.443.93.98 0 1.56-.626 1.56-1.447 0-.875-.635-1.465-1.566-1.465-.426 0-.876.176-1.16.456-.295.298-.4.352-.666.352-.338 0-.542-.23-.511-.565l.26-2.664C6.351 8.237 6.647 8 7.19 8zM14.5 1a.5.5 0 0 1 .5.5v4a.5.5 0 0 1-.5.5h-4a.5.5 0 0 1 0-1h3.25a6.997 6.997 0 0 0-12.012.89.5.5 0 1 1-.895-.445 7.997 7.997 0 0 1 13.157-1.742V1.5a.5.5 0 0 1 .5-.5"/></svg>