<svg xmlns="http://www.w3.org/2000/svg" width="16" height="16" viewBox="64 64 896 896"><path fill="context-fill" fill-opacity="context-fill-opacity" d="M64 383q0-21 12.25-38.5t32.25-24l89-28.5q16-5.5 30.5-15t26-21q25-25 35.5-57l29-89.5q6.5-20 24.25-32.75T381.5 64t38.75 12T445 108.5l29 88.5q10.5 33 36 58.5 24.5 25 58.5 36l88 29q21.5 7 34.5 24t13 40q0 20.5-12.5 38.25t-32 24.25l-89 29q-33 10.5-58.5 36-16 16-25.75 36.5t-16.5 42T457 632.25t-15 36.25-22.5 25.75T384 704q-21 0-38.75-12.25T321 659.5l-29-89q-4-12.5-9.75-23.75a125 125 0 0 0-13.75-21.25q-17-21.5-38.75-34T185.5 471 141 457.25t-39-14.5-27.5-22.25T64 383m574.5 3.5q-38-14.5-72.75-26.75t-64.25-30-52.25-44T413 217l-28.5-88-33.5 88q-9 24-21 44.5t-30 39q-17 17-38.25 30.75T217.5 352.5L129 381q37.5 14.5 72 26.75t63.5 30T316.25 482t36.25 68.5l28.5 88 33.5-88q18.5-48.5 51.75-84T550 415ZM576 766q0-15.5 10-28.5t24.5-18l49.5-16q17-5.5 26.5-17t15.25-25.75 9.75-29.25 10.25-27.25 16.5-20.25 28.75-8q16 0 29.75 9.5t18.75 25q3 10 5.75 20.25a254 254 0 0 0 6.25 20 138 138 0 0 0 8.5 19 72 72 0 0 0 12.5 16.75q8 8.5 19.5 13.25t24 8.75a4417 4417 0 0 1 24.75 8q12.25 4 21.75 10.25t15.5 16 6 24.75q0 16.5-9.25 30t-25.25 19q-9.5 3-19.75 5.75a320 320 0 0 0-20.5 6.25Q875 832 865.75 837A72 72 0 0 0 849 849.5q-12 12.5-17.75 31.25a936 936 0 0 1-12 36.5Q813 935 802 947.5T768 960q-16 0-29.75-9.5t-18.75-25q-3-9-5.75-19.5t-6.25-20.75a138 138 0 0 0-8.5-19.75q-5-9.5-12-16.5-9-8.5-20.5-13.5a224 224 0 0 0-23.75-8.75q-12.25-3.75-24.25-7.5t-21.5-10-15.25-16.5T576 766m291.5 2q-21.5-6.5-37.25-15.25T803 732.25t-20-27.5T767 668q-6 20.5-14.75 36t-20.75 27.5-27.5 21-35.5 15.5q40.5 11.5 64 35.75T768 868q7.5-21.5 15.75-37t19.75-27 26.75-20 37.25-16"/></svg>