<svg xmlns="http://www.w3.org/2000/svg" width="16" height="16" viewBox="0 81 1024 863"><path fill="context-fill" fill-opacity="context-fill-opacity" d="M768 911.5q0-8.5 3.25-13.75T780 886.5a164 164 0 0 1 15-13.25A233 233 0 0 0 810.5 860q36-33 64-73.25t47-85.25 28.75-93T960 512q0-48-9.75-96.25a482.2 482.2 0 0 0-29-93.5 492.2 492.2 0 0 0-47-85.75q-27.75-40.5-63.75-73-7.5-7-15.5-13.25A164 164 0 0 1 780 137q-6-6-9-11t-3-14q0-13.5 9.25-22.5t22.75-9q6 0 10.5 1.75t9.5 5.25q22.5 14.5 44.5 37t41.75 48.25 36.25 52.75 28 51q26.5 55.5 40 114.75T1024 512q0 61-13.5 120.75t-40 114.75q-11.5 23.5-28 50.75t-36.5 53-42 48.25-44 37q-5.5 3.5-9.75 5.25T800 943.5q-13 0-22.5-9.5t-9.5-22.5M211 704H96q-19.5 0-37-7.5t-30.75-20.75T7.5 645 0 608V416q0-19.5 7.5-37t20.75-30.75T59 327.5t37-7.5h115l155-155.5q7-7 15.75-10.25T400 151q20.5 0 34.25 13.5t13.75 34v627q0 10-3.75 18.5t-10.5 15.25-15.5 10.5A45.9 45.9 0 0 1 400 873.5q-20 0-34-14Zm431 92.5q0-8.5 2.75-13t8.25-11q27.5-31 49-59.5t36-58.75 22.25-64.75T768 512t-7.75-77.5T738 369.75 702 311t-49-59.5q-5.5-6.5-8.25-11t-2.75-13q0-13 9.75-22.25T674.5 196q7.5 0 11.5 1.75t10 6.25q15 11.5 29.75 28.25t28 35.75T778 306.75 796.5 344Q832 424 832 512t-35.5 168q-7 16-18.25 36.25t-24.75 40T725.25 793 696 820q-5.5 3.5-10.25 5.75T674.5 828q-13 0-22.75-9.25T642 796.5m-258-10V237L246.5 374.5Q237 384 224 384H96q-13 0-22.5 9.5T64 416v192q0 13 9.5 22.5T96 640h128q13 0 22.5 9.5Zm134-112q0-7 1.75-11t5.75-9.5q11.5-17.5 21-33.75t16-33 10-35T576 512q0-21.5-3.5-40t-10-35.25-16-33-21-33.75q-4-5.5-5.75-9.5t-1.75-11q0-13 9.5-22.5t22.5-9.5q8.5 0 14 3t11 9q16 17.5 28 39.25t20.25 46a318 318 0 0 1 12.5 49.25q4.25 25 4.25 48 0 22-4.25 47.25t-12.5 50-20.5 47T575 694.5Q564.5 706 550 706q-13 0-22.5-9.25T518 674.5"/></svg>