<svg xmlns="http://www.w3.org/2000/svg" width="16" height="16" viewBox="103 196 820 818"><path fill="context-fill" fill-opacity="context-fill-opacity" d="M614.4 245.76q0-20.48-14.336-34.816-14.336-14.335-34.816-15.36t-36.864 13.312l-198.656 184.32q-8.192 6.144-16.384 6.144H178.176q-30.72 0-53.248 22.528T102.4 475.136v256q0 32.768 22.528 55.296t53.248 22.528h135.168q8.192 0 16.384 6.144l198.656 184.32q16.385 14.335 36.864 13.316 20.48-1.034 34.816-15.364Q614.4 983.04 614.4 962.56ZM364.544 430.08 563.2 245.76v716.8L364.544 778.24q-22.528-20.48-51.2-20.48H178.176q-10.24 0-17.408-7.168t-7.168-19.456v-256q0-10.24 7.168-17.408t17.408-7.168h135.168q28.672 0 51.2-20.48m415.744-100.352q8.192-8.192 19.456-7.168t17.408 9.216q69.632 75.776 93.184 174.08t0 196.608-93.184 174.08q-6.144 8.192-17.408 9.216t-18.432-6.144-8.192-17.408 5.12-18.432q61.44-67.584 81.92-153.6t0-172.032-81.92-153.6q-6.144-8.192-5.12-18.432t7.168-16.384m-59.392 423.936q-8.192-4.096-11.264-14.336t1.024-20.48q30.72-51.2 31.744-113.664t-31.744-115.712q-4.096-10.24-2.048-20.48t11.264-15.36 19.456-2.048 16.384 11.264q38.912 67.584 37.888 142.336t-37.888 140.288q-6.144 8.192-16.384 11.264t-18.432-3.072"/></svg>