<svg xmlns="http://www.w3.org/2000/svg" width="16" height="16" viewBox="0 151 832 723"><path fill="context-fill" fill-opacity="context-fill-opacity" d="M211 704H96q-19.5 0-37-7.5t-30.75-20.75T7.5 645 0 608V416q0-19.5 7.5-37t20.75-30.75T59 327.5t37-7.5h115l155-155.5q7-7 15.75-10.25T400 151q20.5 0 34.25 13.5t13.75 34v627q0 10-3.75 18.5T434 859.25t-15.25 10.5T400 873.5q-20 0-34-14Zm431 92.5q0-8 2.75-13.25T653 772.5q55-54 85-118T768 512t-30-142.5-85-118q-5.5-5.5-8.25-10.75T642 227.5q0-13 9.75-22.25T674.5 196q7 0 11.5 1.75t10 6.25q15.5 13 30.25 29.5t27.75 35 23.75 37.75T796.5 344Q832 424 832 512t-35.5 168q-7.5 17.5-18.5 37t-24.25 38.5-28 35.75T696 820q-5 4-10 6t-11.5 2q-13 0-22.75-9.25T642 796.5m-258-10V237L246.5 374.5Q237 384 224 384H96q-13 0-22.5 9.5T64 416v192q0 13 9.5 22.5T96 640h128q13 0 22.5 9.5Zm134-112q0-6.5 1.75-11t5.75-9.5q24-33 37.25-66.75T576 512t-13.25-75.25T525.5 370q-4-5-5.75-9.5t-1.75-11q0-13 9.5-22.5t22.5-9.5q15 0 25 12 16 18.5 28 40.25a297.5 297.5 0 0 1 32.75 93.5Q640 488 640 512q0 23.5-4.25 48.25t-12.5 48.5a288.4 288.4 0 0 1-20.5 45.75q-12.25 22-27.75 40-10 11.5-25 11.5-13 0-22.5-9t-9.5-22.5"/></svg>