<svg xmlns="http://www.w3.org/2000/svg" width="16" height="16" viewBox="32 64 956 832"><path fill="context-fill" fill-opacity="context-fill-opacity" d="M301 448q-11 0-18.25-5.75T271.5 426.5l-17-46.5v4h-144L94 427.5q-4 9.5-12.25 15T63.5 448Q50 448 41 438.25t-9-22.75q0-5.5 2-11l124-320q4-9.5 12.25-15T188.5 64t18 6T218 85.5l113.5 320q2 5.5 2 11 0 13-9.75 22.25T301 448m115 0q-13 0-22.5-9.5T384 416V96q0-13 9.5-22.5T416 64h96q54 0 84.5 29t30.5 83.5q0 18.5-4.75 36.25T606.5 245.5q22.5 16 31.75 39.5t9.25 50.5q0 26.5-9 47.25t-25 35.25-38 22.25T528 448Zm288-207q0-21 4.5-42t11.5-40.5Q736 114 767.75 89T848 64q27.5 0 49 5.5t38 17.25 29 30.5T986 162q2 5.5 2 11 0 13-9.25 22.25t-22.25 9.25q-14 0-21.25-8.5t-13-20A631 631 0 0 0 910 152.75q-6.5-11.75-19.5-18.25-9-4.5-19-5.5t-20-1H846q-21.5 0-36.5 11.25t-24.25 28.25-13.25 37-4 38q0 23.5 2.5 48.75T782.25 337t27 33.75T858 384q18 0 29.5-4.5t19-11.5 12.5-14.75a377 377 0 0 1 10-14.75q5-7 11-11.5t16-4.5q13 0 22.5 9T988 354q0 7-3 13.5-17 40.5-50.75 60.5T857 448q-25 0-50.5-8.5T762 415q-19.5-15.5-31-36.25t-17.5-43.5-7.75-47T704 241m-190.5-17q24 0 36.75-11.5t12.75-36q0-27.5-12-38T512 128h-64v96Zm-327-36-51 132h98ZM528 384q24.5 0 40-11t15.5-37.5q0-7.5-1.25-15.25T577 306q-2.5-4-5.75-6.5t-7.25-5q-4-2-13-3.25t-20.75-2-24.5-1-24.25-.25H448v96ZM288 718.5q0-13 9.5-22.5t22.5-9.5 22.5 9.5L463 816.5l239.5-293q4.5-5.5 11.25-8.5t13.75-3q13.5 0 22.5 9.5t9 22.5q0 11-7 20.5l-262 320Q480 896 465.5 896q-7.5 0-12.25-2T443 886.5L297.5 741q-9.5-9.5-9.5-22.5"/></svg>