<svg height="16" viewBox="32 64 956 832" width="16" xmlns="http://www.w3.org/2000/svg" xmlns:xlink="http://www.w3.org/1999/xlink">
  <path d="M301,448C293.667,448 287.583,446.083 282.75,442.25C277.917,438.417 274.167,433.167 271.5,426.5L254.5,380L254.5,384L110.5,384L94,427.5C91.3333,433.833 87.25,438.833 81.75,442.5C76.25,446.167 70.1667,448 63.5,448C54.5,448 47,444.75 41,438.25C35,431.75 32,424.167 32,415.5C32,411.833 32.6667,408.167 34,404.5L158,84.5C160.667,78.1667 164.75,73.1667 170.25,69.5C175.75,65.8334 181.833,64.0001 188.5,64C195.167,64.0001 201.167,66.0001 206.5,70C211.833,74.0001 215.667,79.1667 218,85.5L331.5,405.5C332.833,409.167 333.5,412.833 333.5,416.5C333.5,425.167 330.25,432.583 323.75,438.75C317.25,444.917 309.667,448 301,448ZM416,448C407.333,448 399.833,444.833 393.5,438.5C387.167,432.167 384,424.667 384,416L384,96C384,87.3334 387.167,79.8334 393.5,73.5C399.833,67.1667 407.333,64.0001 416,64L512,64C548,64.0001 576.167,73.6667 596.5,93C616.833,112.333 627,140.167 627,176.5C627,188.833 625.417,200.917 622.25,212.75C619.083,224.583 613.833,235.5 606.5,245.5C621.5,256.167 632.083,269.333 638.25,285C644.417,300.667 647.5,317.5 647.5,335.5C647.5,353.167 644.5,368.917 638.5,382.75C632.5,396.583 624.167,408.333 613.5,418C602.833,427.667 590.167,435.083 575.5,440.25C560.833,445.417 545,448 528,448ZM704,241C704,227 705.5,213 708.5,199C711.5,185 715.333,171.5 720,158.5C730.667,128.833 746.583,105.667 767.75,89C788.917,72.3334 815.667,64.0001 848,64C866.333,64.0001 882.667,65.8334 897,69.5C911.333,73.1667 924,78.9167 935,86.75C946,94.5834 955.667,104.75 964,117.25C972.333,129.75 979.667,144.667 986,162C987.333,165.667 988,169.333 988,173C988,181.667 984.917,189.083 978.75,195.25C972.583,201.417 965.167,204.5 956.5,204.5C947.167,204.5 940.083,201.667 935.25,196C930.417,190.333 926.083,183.667 922.25,176C918.417,168.333 914.333,160.583 910,152.75C905.667,144.917 899.167,138.833 890.5,134.5C884.5,131.5 878.167,129.667 871.5,129C864.833,128.333 858.167,128 851.5,128L846,128C831.667,128 819.5,131.75 809.5,139.25C799.5,146.75 791.417,156.167 785.25,167.5C779.083,178.833 774.667,191.167 772,204.5C769.333,217.833 768,230.5 768,242.5C768,258.167 768.833,274.417 770.5,291.25C772.167,308.083 776.083,323.333 782.25,337C788.417,350.667 797.417,361.917 809.25,370.75C821.083,379.583 837.333,384 858,384C870,384 879.833,382.5 887.5,379.5C895.167,376.5 901.5,372.667 906.5,368C911.5,363.333 915.667,358.417 919,353.25C922.333,348.083 925.667,343.167 929,338.5C932.333,333.833 936,330 940,327C944,324 949.333,322.5 956,322.5C964.667,322.5 972.167,325.5 978.5,331.5C984.833,337.5 988,345 988,354C988,358.667 987,363.167 985,367.5C973.667,394.5 956.75,414.667 934.25,428C911.75,441.333 886,448 857,448C840.333,448 823.5,445.167 806.5,439.5C789.5,433.833 774.667,425.667 762,415C749,404.667 738.667,392.583 731,378.75C723.333,364.917 717.5,350.417 713.5,335.25C709.5,320.083 706.917,304.417 705.75,288.25C704.583,272.083 704,256.333 704,241ZM513.5,224C529.5,224 541.75,220.167 550.25,212.5C558.75,204.833 563,192.833 563,176.5C563,158.167 559,145.5 551,138.5C543,131.5 530,128 512,128L448,128L448,224ZM186.5,188L135.5,320L233.5,320ZM528,384C544.333,384 557.667,380.333 568,373C578.333,365.667 583.5,353.167 583.5,335.5C583.5,330.5 583.083,325.417 582.25,320.25C581.417,315.083 579.667,310.333 577,306C575.333,303.333 573.417,301.167 571.25,299.5C569.083,297.833 566.667,296.167 564,294.5C561.333,293.167 557,292.083 551,291.25C545,290.417 538.083,289.75 530.25,289.25C522.417,288.75 514.25,288.417 505.75,288.25C497.25,288.083 489.167,288 481.5,288L448,288L448,384ZM288,718.5C288,709.833 291.167,702.333 297.5,696C303.833,689.667 311.333,686.5 320,686.5C328.667,686.5 336.167,689.667 342.5,696L463,816.5L702.5,523.5C705.5,519.833 709.25,517 713.75,515C718.25,513 722.833,512 727.5,512C736.5,512 744,515.167 750,521.5C756,527.833 759,535.333 759,544C759,551.333 756.667,558.167 752,564.5L490,884.5C483.333,892.167 475.167,896 465.5,896C460.5,896 456.417,895.333 453.25,894C450.083,892.667 446.667,890.167 443,886.5L297.5,741C291.167,734.667 288,727.167 288,718.5Z" fill="context-fill" fill-opacity="context-fill-opacity">
  </path>
</svg>