<svg height="100%" viewBox="1 25 1022 976" width="100%" xmlns="http://www.w3.org/2000/svg" xmlns:xlink="http://www.w3.org/1999/xlink">
  <path d="M216,1000C207.333,1000 199.833,996.75 193.5,990.25C187.167,983.75 184,976.167 184,967.5C184,965.167 184.167,963.333 184.5,962L238,649L10.5,427.5C4.16667,421.167 1,413.667 1,405C1,397.333 3.66667,390.333 9,384C14.3333,377.667 20.8333,373.833 28.5,372.5L342.5,327L483.5,42C486.167,36.6667 490.083,32.4167 495.25,29.25C500.417,26.0834 505.833,24.5 511.5,24.5C517.5,24.5 523.167,26 528.5,29C533.833,32 537.833,36.3334 540.5,42L681.5,327L995.5,372.5C1003.5,373.833 1010.08,377.5 1015.25,383.5C1020.42,389.5 1023,396.5 1023,404.5C1023,413.833 1019.83,421.5 1013.5,427.5L786,649L839.5,962C839.833,963.333 840,965.167 840,967.5C840,976.167 836.833,983.667 830.5,990C824.167,996.333 816.667,999.5 808,999.5C802.333,999.5 797.333,998.333 793,996L512,848L231,996C226.333,998.667 221.333,1000 216,1000Z" fill="context-fill" fill-opacity="context-fill-opacity">
  </path>
</svg>