<svg xmlns="http://www.w3.org/2000/svg" width="16" height="16" fill="none" viewBox="0 0 16 16"><g clip-path="url(#a)"><path fill="context-fill" fill-opacity="context-fill-opacity" d="M3.71 10.137.15 6.669A.48.48 0 0 1 0 6.317q0-.18.125-.329.126-.15.306-.18l4.915-.712L7.554.634a.5.5 0 0 1 .188-.2A.5.5 0 0 1 8 .36a.5.5 0 0 1 .258.074q.126.074.188.2l2.208 4.462 4.916.712a.505.505 0 0 1 .43.501q0 .21-.149.36l-3.561 3.468.837 4.9q.008.031.008.086 0 .204-.149.352-.148.15-.352.15a.5.5 0 0 1-.235-.056L8 13.252 3.6 15.57a.5.5 0 0 1-.234.055.48.48 0 0 1-.352-.149.48.48 0 0 1-.141-.438zm.321 4.07L8 12.117l3.969 2.09q-.189-1.11-.372-2.211-.184-1.1-.388-2.211l3.218-3.132-4.439-.641Q9.48 5.002 8.99 4T8 1.988Q7.499 2.998 7.01 4 6.52 5 6.012 6.012l-4.439.641 3.218 3.132q-.204 1.111-.388 2.21-.183 1.1-.372 2.212"/></g><defs><clipPath id="a"><path fill="#fff" d="M0 0h16v16H0z"/></clipPath></defs></svg>