<svg width="16" height="16" viewBox="0 0 16 16" fill="none" xmlns="http://www.w3.org/2000/svg">
<g clip-path="url(#clip0_344_2)">
<path d="M12.0005 7.81586C13.0612 7.81586 14.0785 8.24698 14.8286 9.0144C15.5786 9.78181 16 10.8226 16 11.9079C16 12.9932 15.5786 14.034 14.8286 14.8015C14.0785 15.5689 13.0612 16 12.0005 16C10.9398 16 9.92249 15.5689 9.17244 14.8015C8.42239 14.034 8.00102 12.9932 8.00102 11.9079C8.00102 10.8226 8.42239 9.78181 9.17244 9.0144C9.92249 8.24698 10.9398 7.81586 12.0005 7.81586ZM7.99902 0C8.08767 0 8.174 0.0255754 8.25799 0.0767263C8.34131 0.127195 8.40363 0.195055 8.44496 0.280307L10.6517 4.84501L15.5671 5.5734C15.6599 5.58768 15.747 5.62803 15.8187 5.68996C15.8904 5.75189 15.9439 5.83298 15.9732 5.92418C16.0026 6.01539 16.0066 6.11313 15.9848 6.20654C15.9631 6.29994 15.9164 6.38533 15.85 6.4532L15.5101 6.79284H14.0682L14.4252 6.43785L9.98677 5.7821C9.64814 5.09326 9.31552 4.40716 8.98889 3.72378C8.66105 3.03662 8.33109 2.35051 7.99902 1.66547C7.66694 2.35051 7.33699 3.03662 7.00915 3.72378C6.68252 4.40716 6.3499 5.09326 6.01127 5.7821L1.57284 6.43785L4.79043 9.64092C4.65445 10.3993 4.52513 11.1536 4.40248 11.9038C4.27983 12.654 4.15584 13.408 4.03053 14.1657L6.99915 12.5668V13.7269L3.59958 15.5601C3.52722 15.598 3.44691 15.6174 3.36561 15.6164C3.29994 15.6171 3.23482 15.6041 3.17429 15.578C3.11375 15.552 3.05908 15.5135 3.01366 15.465C2.95538 15.4081 2.91201 15.3372 2.88755 15.2587C2.86309 15.1802 2.85832 15.0967 2.87367 15.0159L3.70957 10.0031L0.148022 6.45422C0.100465 6.40763 0.0627855 6.35153 0.0373275 6.2894C0.0118695 6.22728 -0.000822375 6.16045 4.12961e-05 6.09309C4.12961e-05 5.97033 0.0417026 5.85848 0.125025 5.75754C0.208348 5.65524 0.310335 5.59386 0.430986 5.5734L5.34636 4.84501L7.55308 0.280307C7.59558 0.195634 7.66034 0.124776 7.74005 0.0757033C7.81798 0.0267057 7.90755 0.000520984 7.99902 0ZM12.0005 9.63478C11.9421 9.63478 11.8843 9.64656 11.8304 9.66946C11.7765 9.69235 11.7275 9.7259 11.6862 9.76818C11.645 9.81047 11.6123 9.86066 11.5901 9.91589C11.5678 9.97112 11.5564 10.0303 11.5566 10.09V11.4537H10.2227C10.1101 11.4614 10.0046 11.5127 9.92756 11.597C9.85048 11.6813 9.8076 11.7925 9.8076 11.9079C9.8076 12.0234 9.85048 12.1345 9.92756 12.2189C10.0046 12.3032 10.1101 12.3544 10.2227 12.3621H11.5566V13.7269C11.5641 13.8421 11.6142 13.95 11.6966 14.0289C11.779 14.1077 11.8877 14.1516 12.0005 14.1516C12.1134 14.1516 12.222 14.1077 12.3044 14.0289C12.3868 13.95 12.4369 13.8421 12.4445 13.7269V12.3621H13.7773C13.895 12.3621 14.0079 12.3143 14.0912 12.2291C14.1745 12.1439 14.2212 12.0284 14.2212 11.9079C14.2212 11.7875 14.1745 11.6719 14.0912 11.5867C14.0079 11.5016 13.895 11.4537 13.7773 11.4537H12.4445V10.09C12.4446 10.0303 12.4332 9.97112 12.4109 9.91589C12.3887 9.86066 12.356 9.81047 12.3148 9.76818C12.2735 9.7259 12.2246 9.69235 12.1706 9.66946C12.1167 9.64656 12.0589 9.63478 12.0005 9.63478Z" fill="context-fill" fill-opacity="context-fill-opacity"/>
</g>
<defs>
<clipPath id="clip0_344_2">
<rect width="16" height="16"/>
</clipPath>
</defs>
</svg>
