<svg xmlns="http://www.w3.org/2000/svg" width="16" height="16" fill="none" viewBox="0 0 16 16"><g clip-path="url(#a)"><path fill="context-fill" fill-opacity="context-fill-opacity" d="M12.002 8a4 4 0 1 1 0 8 4 4 0 0 1 0-8M8 .36q.133 0 .259.075.125.074.187.199l2.207 4.462 4.916.712a.507.507 0 0 1 .283.86l-.34.332H14.07l.357-.347-4.439-.641Q9.48 5.002 8.99 4A355 355 0 0 0 8 1.988 355 355 0 0 0 7.01 4q-.49 1.002-.998 2.012l-4.439.641 3.218 3.131q-.204 1.112-.388 2.212t-.372 2.211L7 12.644v1.134L3.6 15.57a.5.5 0 0 1-.234.055.48.48 0 0 1-.352-.148.48.48 0 0 1-.14-.439l.836-4.9L.148 6.669A.48.48 0 0 1 0 6.316q0-.18.125-.328.125-.15.306-.18l4.916-.712L7.554.634a.5.5 0 0 1 .187-.2A.5.5 0 0 1 8 .36m4.002 9.418a.444.444 0 0 0-.444.445v1.333h-1.334a.445.445 0 0 0 0 .888h1.334v1.334a.445.445 0 0 0 .888 0v-1.334h1.333a.444.444 0 1 0 0-.888h-1.333v-1.333a.444.444 0 0 0-.444-.445"/></g><defs><clipPath id="a"><path d="M0 0h16v16H0z"/></clipPath></defs></svg>