<svg height="100%" viewBox="0 128 1024 768" width="100%" xmlns="http://www.w3.org/2000/svg" xmlns:xlink="http://www.w3.org/1999/xlink">
  <path d="M156.5,896C135.5,896 115.5,891.75 96.5,883.25C77.5,874.75 60.9167,863.417 46.75,849.25C32.5833,835.083 21.25,818.5 12.75,799.5C4.25,780.5 0,760.5 0,739.5L0,284.5C0,263.5 4.25,243.5 12.75,224.5C21.25,205.5 32.5833,188.917 46.75,174.75C60.9167,160.583 77.5,149.25 96.5,140.75C115.5,132.25 135.5,128 156.5,128L867.5,128C888.5,128 908.5,132.25 927.5,140.75C946.5,149.25 963.083,160.583 977.25,174.75C991.417,188.917 1002.75,205.5 1011.25,224.5C1019.75,243.5 1024,263.5 1024,284.5L1024,739.5C1024,760.5 1019.75,780.5 1011.25,799.5C1002.75,818.5 991.417,835.083 977.25,849.25C963.083,863.417 946.5,874.75 927.5,883.25C908.5,891.75 888.5,896 867.5,896ZM864,832C877,832 889.333,829.5 901,824.5C912.667,819.5 922.917,812.583 931.75,803.75C940.583,794.917 947.5,784.667 952.5,773C957.5,761.333 960,749 960,736L960,288C960,275 957.5,262.667 952.5,251C947.5,239.333 940.583,229.083 931.75,220.25C922.917,211.417 912.667,204.5 901,199.5C889.333,194.5 877,192 864,192L160,192C147,192 134.667,194.5 123,199.5C111.333,204.5 101.083,211.417 92.25,220.25C83.4167,229.083 76.5,239.333 71.5,251C66.5,262.667 64,275 64,288L64,736C64,749 66.5,761.333 71.5,773C76.5,784.667 83.4167,794.917 92.25,803.75C101.083,812.583 111.333,819.5 123,824.5C134.667,829.5 147,832 160,832ZM160,640C151.333,640 143.833,636.833 137.5,630.5C131.167,624.167 128,616.667 128,608C128,599.333 131.167,591.833 137.5,585.5C143.833,579.167 151.333,576 160,576L608,576C616.667,576 624.167,579.167 630.5,585.5C636.833,591.833 640,599.333 640,608C640,616.667 636.833,624.167 630.5,630.5C624.167,636.833 616.667,640 608,640ZM736,640C727.333,640 719.833,636.833 713.5,630.5C707.167,624.167 704,616.667 704,608C704,599.333 707.167,591.833 713.5,585.5C719.833,579.167 727.333,576 736,576L864,576C872.667,576 880.167,579.167 886.5,585.5C892.833,591.833 896,599.333 896,608C896,616.667 892.833,624.167 886.5,630.5C880.167,636.833 872.667,640 864,640ZM160,768C151.333,768 143.833,764.833 137.5,758.5C131.167,752.167 128,744.667 128,736C128,727.333 131.167,719.833 137.5,713.5C143.833,707.167 151.333,704 160,704L352,704C360.667,704 368.167,707.167 374.5,713.5C380.833,719.833 384,727.333 384,736C384,744.667 380.833,752.167 374.5,758.5C368.167,764.833 360.667,768 352,768ZM480,768C471.333,768 463.833,764.833 457.5,758.5C451.167,752.167 448,744.667 448,736C448,727.333 451.167,719.833 457.5,713.5C463.833,707.167 471.333,704 480,704L864,704C872.667,704 880.167,707.167 886.5,713.5C892.833,719.833 896,727.333 896,736C896,744.667 892.833,752.167 886.5,758.5C880.167,764.833 872.667,768 864,768Z" fill="context-fill" fill-opacity="context-fill-opacity">
  </path>
</svg>