<svg xmlns="http://www.w3.org/2000/svg" width="16" height="16" viewBox="0 128 1024 768"><path fill="context-fill" fill-opacity="context-fill-opacity" d="M156.5 896q-31.5 0-60-12.75t-49.75-34-34-49.75T0 739.5v-455q0-31.5 12.75-60t34-49.75 49.75-34 60-12.75h711q31.5 0 60 12.75t49.75 34 34 49.75 12.75 60v455q0 31.5-12.75 60t-34 49.75-49.75 34-60 12.75ZM864 832q19.5 0 37-7.5t30.75-20.75T952.5 773t7.5-37V288q0-19.5-7.5-37t-20.75-30.75T901 199.5t-37-7.5H160q-19.5 0-37 7.5t-30.75 20.75T71.5 251 64 288v448q0 19.5 7.5 37t20.75 30.75T123 824.5t37 7.5ZM160 640q-13 0-22.5-9.5T128 608t9.5-22.5T160 576h448q13 0 22.5 9.5T640 608t-9.5 22.5T608 640Zm576 0q-13 0-22.5-9.5T704 608t9.5-22.5T736 576h128q13 0 22.5 9.5T896 608t-9.5 22.5T864 640ZM160 768q-13 0-22.5-9.5T128 736t9.5-22.5T160 704h192q13 0 22.5 9.5T384 736t-9.5 22.5T352 768Zm320 0q-13 0-22.5-9.5T448 736t9.5-22.5T480 704h384q13 0 22.5 9.5T896 736t-9.5 22.5T864 768Z"/></svg>