<svg xmlns="http://www.w3.org/2000/svg" width="16" height="16" fill="none" viewBox="0 0 16 16"><g clip-path="url(#a)"><path fill="url(#b)" stroke="url(#c)" d="M15.5 8a7.5 7.5 0 1 0-15 0 7.5 7.5 0 0 0 15 0Z"/><path fill="#fff" d="M3.377 8.498a.61.61 0 0 1 .38-.574.602.602 0 0 1 .686.135L6.5 10.115l5.057-5.056a.61.61 0 0 1 .685-.135.55.55 0 0 1 .2.135.6.6 0 0 1 .134.205.54.54 0 0 1 .053.234q0 .258-.188.445L6.94 11.44a.599.599 0 0 1-.44.188.6.6 0 0 1-.438-.188L3.559 8.943a.6.6 0 0 1-.182-.445"/></g><defs><linearGradient id="b" x1="1" x2="16" y1="0" y2="15" gradientUnits="userSpaceOnUse"><stop stop-color="#56ba0a"/><stop offset="1" stop-color="#127e0f"/></linearGradient><linearGradient id="c" x1="1" x2="16" y1="0" y2="15" gradientUnits="userSpaceOnUse"><stop stop-color="#56ba0a"/><stop offset="1" stop-color="#127e0f"/></linearGradient><clipPath id="a"><path fill="#fff" d="M0 0h16v16H0z"/></clipPath></defs></svg>