<svg xmlns="http://www.w3.org/2000/svg" width="16" height="16" viewBox="128 0 768 1024"><path fill="context-fill" fill-opacity="context-fill-opacity" d="M128 288q0-13 9.5-22.5T160 256h627L585.5 54.5Q576 45 576 32t9.5-22.5T608 0t22.5 9.5L885 264q5.5 5.5 8.25 11t2.75 13-2.75 13-8.25 11L630.5 566.5Q621 576 608 576t-22.5-9.5T576 544t9.5-22.5L787 320H160q-13 0-22.5-9.5T128 288m768 448q0 13-9.5 22.5T864 768H237.5l201 201.5Q448 979 448 992q0 13.005-9.5 22.5c-6.333 6.33-13.833 9.5-22.5 9.5s-16.167-3.17-22.5-9.5L139 760q-5.5-5.5-8.25-11T128 736t2.75-13 8.25-11l254.5-254.5Q403 448 416 448t22.5 9.5T448 480t-9.5 22.5L237.5 704H864q13 0 22.5 9.5T896 736"/></svg>