<svg height="100%" viewBox="128 0 768 1024" width="100%" xmlns="http://www.w3.org/2000/svg" xmlns:xlink="http://www.w3.org/1999/xlink">
  <path d="M128,288C128,279.333 131.167,271.833 137.5,265.5C143.833,259.167 151.333,256 160,256L787,256L585.5,54.5C579.167,48.1667 576,40.6667 576,32C576,23.3334 579.167,15.8334 585.5,9.5C591.833,3.16669 599.333,0 608,0C616.667,0 624.167,3.16669 630.5,9.5L885,264C888.667,267.667 891.417,271.333 893.25,275C895.083,278.667 896,283 896,288C896,293 895.083,297.333 893.25,301C891.417,304.667 888.667,308.333 885,312L630.5,566.5C624.167,572.833 616.667,576 608,576C599.333,576 591.833,572.833 585.5,566.5C579.167,560.167 576,552.667 576,544C576,535.333 579.167,527.833 585.5,521.5L787,320L160,320C151.333,320 143.833,316.833 137.5,310.5C131.167,304.167 128,296.667 128,288ZM896,736C896,744.667 892.833,752.167 886.5,758.5C880.167,764.833 872.667,768 864,768L237.5,768L438.5,969.5C444.833,975.833 448,983.333 448,992C448,1000.67 444.833,1008.17 438.5,1014.5C432.167,1020.83 424.667,1024 416,1024C407.333,1024 399.833,1020.83 393.5,1014.5L139,760C135.333,756.333 132.583,752.667 130.75,749C128.917,745.333 128,741 128,736C128,731 128.917,726.667 130.75,723C132.583,719.333 135.333,715.667 139,712L393.5,457.5C399.833,451.167 407.333,448 416,448C424.667,448 432.167,451.167 438.5,457.5C444.833,463.833 448,471.333 448,480C448,488.667 444.833,496.167 438.5,502.5L237.5,704L864,704C872.667,704 880.167,707.167 886.5,713.5C892.833,719.833 896,727.333 896,736Z" fill="context-fill" fill-opacity="context-fill-opacity">
  </path>
</svg>