<svg xmlns="http://www.w3.org/2000/svg" width="16" height="16" viewBox="0 0 1024 1024"><path fill="context-fill" fill-opacity="context-fill-opacity" d="M1024 96v256c0 8.667-3.17 16.167-9.5 22.5q-9.495 9.5-22.5 9.5H736q-13 0-22.5-9.5T704 352t9.5-22.5T736 320h180.5q-27.5-60-70.25-107.5T750 132 634.75 81.5 507.5 64Q452 64 398.25 78.5t-101.75 41-89 64T136 267q-19.5 29.5-33.5 62.5a177 177 0 0 0-6.25 16.5 118 118 0 0 1-6.75 16.5q-5.5 10-11.5 15.75T59.5 384q-13 0-22.5-9.5T27.5 352q0-6 1.5-10.5 26.5-75 74.5-137.5t111-108 137.75-70.75T506.5 0Q577 0 644 18t125.75 51.75 107.5 83T960 264V96q0-13 9.5-22.5T992 64q13.005 0 22.5 9.5c6.33 6.333 9.5 13.833 9.5 22.5m-34 576q0 8.5-6.75 25.25T967.5 732t-18.25 34.5T934.5 791q-35.5 53-82.25 96T751 960.5t-115.25 47T510.5 1024c-46 0-90.75-5.58-134.25-16.75q-65.25-16.75-123-49T147 879 64 772v156q0 13-9.5 22.5T32 960t-22.5-9.5T0 928V672q0-13 9.5-22.5T32 640h256q13 0 22.5 9.5T320 672t-9.5 22.5T288 704H100.5Q128 764 171 811.5t96.25 80.5 115 50.5T509.5 960q55.5 0 109-14.25T720.25 905t89.25-64 71.5-84q19.5-29.5 33.5-62.5a177 177 0 0 0 6.25-16.5 118 118 0 0 1 6.75-16.5q5.5-10 11.5-15.75t18.5-5.75q13.5 0 23 9.25T990 672"/></svg>