<svg xmlns="http://www.w3.org/2000/svg" width="16" height="16" viewBox="0 1 1024 1027"><path fill="context-fill" fill-opacity="context-fill-opacity" d="M324 606q-22.5 0-41 9a406 406 0 0 0-36.25 20A372 372 0 0 1 210 655q-19 9-42 9-31 0-59-15t-50.5-34.5Q28 588 14 553.75T0 479.5t11-79.75T38 324q17.5-39 40.5-75.5t50-69.5a673 673 0 0 1 52-56.75Q208 95.5 241 74.5q56.5-36 120.25-55T492 .5Q555.5.5 617 17t117.5 46.5Q803 101 856.75 151t91 111 56.75 131.75T1024 543c0 32-2.42 63.75-7.25 95.25s-11.92 62.583-21.25 93.25q-11 35.5-27.75 71.25a482 482 0 0 1-39.25 68.5 491.5 491.5 0 0 1-50 61.5Q851 961.5 818.75 982.5t-69 33-77.25 12c-15 0-29.75-1.33-44.25-4a275 275 0 0 1-42.75-11.5c-29.333-10.33-54.5-23.167-75.5-38.5q-31.5-23-52.25-53.5t-31.5-68.5T412.5 768a1215 1215 0 0 1-2.75-55q-.75-27.5-7.25-54.5-2-7.5-4.5-16t-8-14q-5.5-6-13.5-10.5t-17-7a136 136 0 0 0-18.25-3.75Q332 606 324 606m348.5 357.5q37.5 0 71.5-14.25t63-37.75q39.5-32 68.5-75.5t48-92.75 28-101.5 9-101.75q0-69.5-17.25-131.5T893 293.25t-80.5-96.75-108-76.5Q656 93.5 602 78.5t-110-15q-69 0-129.25 22T252.5 146.25t-89.5 91T96.5 350a438.6 438.6 0 0 0-23.25 63Q64 445.5 64 479.5q0 26 8 47.25t27.5 38.75q5.5 5 13.75 11t17.25 11.25 18 9 16.5 3.75q14 0 30-9.25t35.25-20 42.25-20T324 542q15.5 0 31 2.75t30 7.25q32.5 10.5 50 30t25.75 44.75 10.25 55a5688 5688 0 0 1 3.75 60.75 652 652 0 0 0 6.5 62q4.75 31 18.25 58.75t39 50.75 68.5 38q32 11.5 65.5 11.5M448 240q0-20 14-34t34-14 34 14 14 34-14 34-34 14-34-14-14-34m192 64q0-20 14-34t34-14 34 14 14 34-14 34-34 14-34-14-14-34m112 144q0-20 14-34t34-14 34 14 14 34-14 34-34 14-34-14-14-34m0 192q0-20 14-34t34-14 34 14 14 34-14 34-34 14-34-14-14-34M624 768q0-20 14-34t34-14 34 14 14 34-14 34-34 14-34-14-14-34"/></svg>