<svg xmlns="http://www.w3.org/2000/svg" width="16" height="16" viewBox="64 64 896 896"><path fill="context-fill" fill-opacity="context-fill-opacity" d="M160 448q-19.5 0-37-7.5t-30.75-20.75T71.5 389 64 352V160q0-19.5 7.5-37t20.75-30.75T123 71.5t37-7.5h320q19.5 0 37 7.5t30.75 20.75T568.5 123t7.5 37v192q0 19.5-7.5 37t-20.75 30.75T517 440.5t-37 7.5Zm640 0q-19.5 0-37-7.5t-30.75-20.75T711.5 389t-7.5-37V160q0-19.5 7.5-37t20.75-30.75T763 71.5t37-7.5h64q19.5 0 37 7.5t30.75 20.75T952.5 123t7.5 37v192q0 19.5-7.5 37t-20.75 30.75T901 440.5t-37 7.5Zm-320-64q13 0 22.5-9.5T512 352V160q0-13-9.5-22.5T480 128H160q-13 0-22.5 9.5T128 160v192q0 13 9.5 22.5T160 384Zm384 0q13 0 22.5-9.5T896 352V160q0-13-9.5-22.5T864 128h-64q-13 0-22.5 9.5T768 160v192q0 13 9.5 22.5T800 384ZM160 960q-19.5 0-37-7.5t-30.75-20.75T71.5 901 64 864V672q0-19.5 7.5-37t20.75-30.75T123 583.5t37-7.5h64q19.5 0 37 7.5t30.75 20.75T312.5 635t7.5 37v192q0 19.5-7.5 37t-20.75 30.75T261 952.5t-37 7.5Zm384 0q-19.5 0-37-7.5t-30.75-20.75T455.5 901t-7.5-37V672q0-19.5 7.5-37t20.75-30.75T507 583.5t37-7.5h320q19.5 0 37 7.5t30.75 20.75T952.5 635t7.5 37v192q0 19.5-7.5 37t-20.75 30.75T901 952.5t-37 7.5Zm-320-64q13 0 22.5-9.5T256 864V672q0-13-9.5-22.5T224 640h-64q-13 0-22.5 9.5T128 672v192q0 13 9.5 22.5T160 896Zm640 0q13 0 22.5-9.5T896 864V672q0-13-9.5-22.5T864 640H544q-13 0-22.5 9.5T512 672v192q0 13 9.5 22.5T544 896Z"/></svg>