<svg xmlns="http://www.w3.org/2000/svg" width="16" height="16" viewBox="32 0 864 1024"><path fill="context-fill" fill-opacity="context-fill-opacity" d="M544 230.5q0 58.5-25.25 110.75T448 430v437.5q0 32.5-13 61t-35 49.75c-14.667 14.167-31.667 25.33-51 33.5S309.333 1024 288 1024c-22.333 0-43.167-4.17-62.5-12.5s-36.25-19.75-50.75-34.25Q153 955.5 140.5 926.5T128 864V430q-45.5-36.5-70.75-88.75T32 230.5q0-33.5 8.75-66.25t25.25-62 40.25-53.5T160 8.5q8-4 15.5-6.25T192 0q13.5 0 25 5t20.25 13.75T251 39t5 25v134.5h64V64q0-13.5 5-25t13.75-20.25T359 5t25-5q9 0 16.5 2.25T416 8.5q29.5 16 53.25 40.25t40.25 53.5T535 164.5t9 66M896 544v323.5q0 32.5-13 61t-35 49.75c-14.667 14.167-31.667 25.33-51 33.5S757.333 1024 736 1024s-41.667-4.08-61-12.25-36.333-19.333-51-33.5Q602 957 589 928.5t-13-61V544q0-11 4.25-17.25t11-9.5 15-4.25 16.75-1h17V199.5q-3-5.5-8.25-15.25T621.25 164 612 143.75 608 128q0-5.5 4.5-20.25t10-31.5a1174 1174 0 0 1 11-32 8495 8495 0 0 0 8-22.25q3-9.5 11.75-15.75T672 0h128q10.5 0 18.75 6t11.75 16q2 7 7.75 22.25t11.25 32 10 31.5T864 128q0 6-4 15.75T850.75 164t-10.5 20.25T832 199.5V512h17q8.5 0 16.75 1t15 4.25 11 9.5T896 544M384 396.5q22.5-12.5 40.25-30.5t30.25-39.5 19-46 6.5-50q0-53-25.25-96.25T384 64v198.5H192V64q-45.5 27-70.75 70.25T96 230.5q0 25.5 6.5 50t19 46 30.25 39.5T192 396.5V864q0 19.5 7.5 37t20.75 30.75T251 952.5t37 7.5 37-7.5 30.75-20.75T376.5 901t7.5-37ZM704 512h64V192q0-7.5 3.5-14.5l26-52L777 64h-82l-20.5 61.5 26 52q3.5 7 3.5 14.5Zm-64 64v64h192v-64Zm192 288V704H640v160q0 19.5 7.5 37t20.75 30.75T699 952.5t37 7.5 37-7.5 30.75-20.75T824.5 901t7.5-37"/></svg>