<svg xmlns="http://www.w3.org/2000/svg" width="16" height="16" fill="none" viewBox="0 0 16 16"><g clip-path="url(#a)"><path fill="context-fill" fill-opacity="context-fill-opacity" d="M4 2.5V4H2a2 2 0 0 0-2 2v7a2 2 0 0 0 2 2h12.003a2 2 0 0 0 2-2V6a2 2 0 0 0-2-2H12V2.5A1.5 1.5 0 0 0 10.5 1h-5A1.5 1.5 0 0 0 4 2.5M5.5 2h5a.5.5 0 0 1 .5.5V4H5V2.5a.5.5 0 0 1 .5-.5M2 5h12.003a1 1 0 0 1 1 1v2H12v-.5a.5.5 0 0 0-1 0V8H5v-.5a.5.5 0 0 0-1 0V8H1V6a1 1 0 0 1 1-1m9 4v.5a.5.5 0 0 0 1 0V9h3.003v4a1 1 0 0 1-1 1H2a1 1 0 0 1-1-1V9h3v.5a.5.5 0 0 0 1 0V9z"/></g><defs><clipPath id="a"><path d="M0 0h16v16H0z"/></clipPath></defs></svg>