<svg xmlns="http://www.w3.org/2000/svg" width="16" height="16" viewBox="128 0 832 1024"><path fill="context-fill" fill-opacity="context-fill-opacity" d="M960 320q0 72-30.25 135.75T844.5 566l-536 450.5q-9 7.5-20.5 7.5c-8.667 0-16.167-3.17-22.5-9.5q-9.5-9.495-9.5-22.5 0-7 3-13.5t8.5-11l536-450.5q46.5-39 69.5-90.5T896 315q0-33.5-9.25-65t-26-59.5-40-51.25-51.25-40-59.5-26T645 64q-47 0-89.75 14.5T476.5 123L240 320h240q13 0 22.5 9.5T512 352t-9.5 22.5T480 384H160q-13 0-22.5-9.5T128 352V32q0-13 9.5-22.5T160 0t22.5 9.5T192 32v244.5L435.5 74q43-36 95.75-55T640 0q66.5 0 124.75 25T866.5 93.5 935 195.25 960 320"/></svg>