<svg width="16" height="16" viewBox="0 0 16 16" fill="none" xmlns="http://www.w3.org/2000/svg">
<g clip-path="url(#clip0_311_7)">
<path d="M14.0235 7.92955V14.0196C14.0235 14.2805 13.97 14.5297 13.863 14.7671C13.756 15.0046 13.6125 15.2133 13.4325 15.3933C13.2524 15.5734 13.0437 15.7169 12.8063 15.8239C12.5688 15.9308 12.3196 15.9843 12.0587 15.9843H3.96477C3.70384 15.9843 3.45467 15.9308 3.21722 15.8239C2.97977 15.7169 2.77104 15.5734 2.591 15.3933C2.41096 15.2133 2.26744 15.0046 2.16047 14.7671C2.0535 14.5297 2 14.2805 2 14.0196V7.92955C2 7.67385 2.05218 7.42857 2.15656 7.19374C2.26093 6.9589 2.40183 6.75017 2.57926 6.56751C2.75668 6.38486 2.96282 6.23875 3.19765 6.12916C3.43249 6.01957 3.67776 5.96477 3.93346 5.96477H4.00391V3.96086C4.00391 3.39726 4.10829 2.8741 4.31703 2.39139C4.52576 1.90868 4.81018 1.48989 5.17025 1.13503C5.53033 0.780171 5.95433 0.50098 6.44227 0.297456C6.93021 0.0939344 7.45335 -0.00782685 8.01174 -0.00782779C8.40834 -0.00782685 8.79452 0.0469677 9.17025 0.156556C9.54599 0.266146 9.89694 0.424006 10.2231 0.630137C10.5492 0.836269 10.8389 1.08806 11.092 1.38552C11.3451 1.68297 11.5473 2.01695 11.6986 2.38748C11.7247 2.45531 11.7378 2.52055 11.7378 2.58317C11.7378 2.72928 11.6921 2.84932 11.6008 2.94325C11.5095 3.03718 11.3907 3.08415 11.2446 3.08415C11.1246 3.08415 11.0307 3.05545 10.9628 2.99804C10.895 2.94063 10.8324 2.86759 10.775 2.77886C10.6706 2.61187 10.5753 2.4488 10.4892 2.28963C10.4031 2.13046 10.287 1.97782 10.1409 1.8317C9.8591 1.54469 9.53295 1.33073 9.16243 1.18982C8.79191 1.04893 8.40834 0.978475 8.01174 0.978474C7.59425 0.978475 7.20286 1.05545 6.83757 1.20939C6.47228 1.36334 6.15394 1.57339 5.88258 1.83953C5.61123 2.10568 5.39726 2.42009 5.2407 2.78278C5.08415 3.14547 5.00587 3.53816 5.00587 3.96086V5.96477H12.0587C12.3196 5.96477 12.5688 6.01827 12.8063 6.12524C13.0437 6.23222 13.2524 6.37573 13.4325 6.55577C13.6125 6.73581 13.756 6.94455 13.863 7.182C13.97 7.41944 14.0235 7.66862 14.0235 7.92955ZM13.0215 7.96869C13.0215 7.833 12.9954 7.70384 12.9432 7.58121C12.8911 7.45858 12.8193 7.35159 12.728 7.26027C12.6367 7.16895 12.5297 7.09719 12.407 7.04501C12.2844 6.99283 12.1553 6.96673 12.0196 6.96673H4.00391C3.86301 6.96673 3.73256 6.99283 3.61252 7.04501C3.49249 7.09719 3.38682 7.16895 3.2955 7.26027C3.20418 7.35159 3.13241 7.45727 3.08023 7.5773C3.02805 7.69733 3.00196 7.82779 3.00196 7.96869V13.9804C3.00196 14.1213 3.02805 14.2531 3.08023 14.3757C3.13241 14.4984 3.20286 14.604 3.29159 14.6928C3.38031 14.7815 3.48598 14.8519 3.60861 14.9041C3.73124 14.9563 3.86301 14.9824 4.00391 14.9824H12.0196C12.1605 14.9824 12.2909 14.9563 12.411 14.9041C12.531 14.8519 12.6367 14.7802 12.728 14.6888C12.8193 14.5975 12.8911 14.4919 12.9432 14.3718C12.9954 14.2518 13.0215 14.1213 13.0215 13.9804V7.96869ZM9.0137 10.9746C9.0137 11.1155 8.9876 11.2459 8.93542 11.3659C8.88324 11.486 8.81148 11.5917 8.72016 11.683C8.62884 11.7743 8.52316 11.8461 8.40313 11.8982C8.2831 11.9504 8.15264 11.9765 8.01174 11.9765C7.87084 11.9765 7.73907 11.9504 7.61644 11.8982C7.49381 11.8461 7.38813 11.7756 7.29941 11.6869C7.21069 11.5982 7.14024 11.4925 7.08806 11.3699C7.03588 11.2472 7.00978 11.1155 7.00978 10.9746C7.00978 10.8337 7.03588 10.7032 7.08806 10.5832C7.14024 10.4631 7.21201 10.3575 7.30333 10.2661C7.39465 10.1748 7.50032 10.1031 7.62035 10.0509C7.74038 9.9987 7.87084 9.9726 8.01174 9.9726C8.14743 9.9726 8.27659 9.9987 8.39922 10.0509C8.52185 10.1031 8.62884 10.1748 8.72016 10.2661C8.81148 10.3575 8.88324 10.4645 8.93542 10.5871C8.9876 10.7097 9.0137 10.8389 9.0137 10.9746Z" fill="context-fill" fill-opacity="context-fill-opacity"/>
</g>
<defs>
<clipPath id="clip0_311_7">
<rect width="16" height="16"/>
</clipPath>
</defs>
</svg>
