<svg xmlns="http://www.w3.org/2000/svg" width="16" height="16" viewBox="0 0 1025 1024"><path fill="context-fill" fill-opacity="context-fill-opacity" d="M1024.5 992c0 8.67-3.17 16.17-9.5 22.5s-13.83 9.5-22.5 9.5c-9 0-16.667-3.17-23-9.5L648 693l-73.5 244q-3 10-11.25 16.5T544 960q-13 0-22.5-9.5L320 749 45 1024H0v-45.5L275 704 73.5 502.5q-9.5-9.5-9.5-23 0-10 5.5-17.5T84 450.5l229.5-92-304-304Q0 45 0 32 0 18.5 9.75 9.25T32.5 0 55 9.5l960 960c6.33 6.333 9.5 13.833 9.5 22.5m-562-665.5-48-48 94-207.5q11.5-26 35.25-41.25T596 14.5q19 0 36.75 7.25T664 42.5L979 358q13.5 13.5 20.75 31.5c4.83 12 7.25 24.333 7.25 37 0 19-5.42 36.583-16.25 52.75Q974.5 503.5 948 514.5L738 602l-49-49 234.5-98q9-4 14.25-11.75T943 425.5q0-13.5-9-22.5L618.5 88q-4-4-10.5-6.75t-12-2.75q-9.5 0-17.25 5.25T567 97.5ZM153 491.5l375.5 376 68-226-234-234Z"/></svg>