<svg height="100%" viewBox="0 0 1025 1024" width="100%" xmlns="http://www.w3.org/2000/svg" xmlns:xlink="http://www.w3.org/1999/xlink">
  <path d="M1024.5,992C1024.5,1000.67 1021.33,1008.17 1015,1014.5C1008.67,1020.83 1001.17,1024 992.5,1024C983.5,1024 975.833,1020.83 969.5,1014.5L648,693L574.5,937C572.5,943.667 568.75,949.167 563.25,953.5C557.75,957.833 551.333,960 544,960C535.333,960 527.833,956.833 521.5,950.5L320,749L45,1024L0,1024L0,978.5L275,704L73.5,502.5C67.1667,496.167 64,488.5 64,479.5C64,472.833 65.8333,467 69.5,462C73.1667,457 78,453.167 84,450.5L313.5,358.5L9.5,54.5C3.16667,48.1667 0,40.6667 0,32C0,23 3.25,15.4167 9.75,9.25C16.25,3.08337 23.8333,0 32.5,0C41.1667,0 48.6667,3.16669 55,9.5L1015,969.5C1021.33,975.833 1024.5,983.333 1024.5,992ZM462.5,326.5L414.5,278.5L508.5,71C516.167,53.6667 527.917,39.9167 543.75,29.75C559.583,19.5834 577,14.5001 596,14.5C608.667,14.5001 620.917,16.9167 632.75,21.75C644.583,26.5834 655,33.5 664,42.5L979,358C988,367 994.917,377.5 999.75,389.5C1004.58,401.5 1007,413.833 1007,426.5C1007,445.5 1001.58,463.083 990.75,479.25C979.917,495.417 965.667,507.167 948,514.5L738,602L689,553L923.5,455C929.5,452.333 934.25,448.417 937.75,443.25C941.25,438.083 943,432.167 943,425.5C943,416.5 940,409 934,403L618.5,88C615.833,85.3334 612.333,83.0834 608,81.25C603.667,79.4167 599.667,78.5 596,78.5C589.667,78.5 583.917,80.25 578.75,83.75C573.583,87.25 569.667,91.8334 567,97.5ZM153,491.5L528.5,867.5L596.5,641.5L362.5,407.5Z" fill="context-fill" fill-opacity="context-fill-opacity">
  </path>
</svg>