<svg xmlns="http://www.w3.org/2000/svg" width="16" height="16" viewBox="64 64 896 896"><path fill="context-fill" fill-opacity="context-fill-opacity" d="M772 64q37.5 0 71.75 15.25t60 41 41 60T960 252v520q0 37.5-15.25 71.75t-41 60-60 41T772 960H608q-13 0-22.5-9.5T576 928t9.5-22.5T608 896h162.5q25 0 47.75-10.25t40-27.5 27.5-40T896 770.5V512H700q-39 0-73.25-15.5t-59.75-42-40.25-61.25T512 320V128H253.5q-26 0-48.75 10.5t-39.75 28-27 40.75T128 256v160q0 13-9.5 22.5T96 448t-22.5-9.5T64 416V252q0-37.5 15.25-71.75t41-60 60-41T252 64Zm124 384V253.5q0-25-10.25-47.75t-27.5-40-40-27.5T770.5 128H576v194.5q0 25 10.25 47.75t27.5 40 40 27.5T701.5 448ZM448 928q0 13-9.5 22.5T416 960H96q-13 0-22.5-9.5T64 928V608q0-13 9.5-22.5T96 576t22.5 9.5T128 608v243l265.5-265.5Q403 576 416 576t22.5 9.5T448 608t-9.5 22.5L173 896h243q13 0 22.5 9.5T448 928"/></svg>