<svg height="100%" viewBox="64 64 896 896" width="100%" xmlns="http://www.w3.org/2000/svg" xmlns:xlink="http://www.w3.org/1999/xlink">
  <path d="M772,64C797,64.0001 820.917,69.0834 843.75,79.25C866.583,89.4167 886.583,103.083 903.75,120.25C920.917,137.417 934.583,157.417 944.75,180.25C954.917,203.083 960,227 960,252L960,772C960,797 954.917,820.917 944.75,843.75C934.583,866.583 920.917,886.583 903.75,903.75C886.583,920.917 866.583,934.583 843.75,944.75C820.917,954.917 797,960 772,960L608,960C599.333,960 591.833,956.833 585.5,950.5C579.167,944.167 576,936.667 576,928C576,919.333 579.167,911.833 585.5,905.5C591.833,899.167 599.333,896 608,896L770.5,896C787.167,896 803.083,892.583 818.25,885.75C833.417,878.917 846.75,869.75 858.25,858.25C869.75,846.75 878.917,833.417 885.75,818.25C892.583,803.083 896,787.167 896,770.5L896,512L700,512C674,512 649.583,506.833 626.75,496.5C603.917,486.167 584,472.167 567,454.5C550,436.833 536.583,416.417 526.75,393.25C516.917,370.083 512,345.667 512,320L512,128L253.5,128C236.167,128 219.917,131.5 204.75,138.5C189.583,145.5 176.333,154.833 165,166.5C153.667,178.167 144.667,191.75 138,207.25C131.333,222.75 128,239 128,256L128,416C128,424.667 124.833,432.167 118.5,438.5C112.167,444.833 104.667,448 96,448C87.3333,448 79.8333,444.833 73.5,438.5C67.1667,432.167 64,424.667 64,416L64,252C64,227 69.0833,203.083 79.25,180.25C89.4167,157.417 103.083,137.417 120.25,120.25C137.417,103.083 157.417,89.4167 180.25,79.25C203.083,69.0834 227,64.0001 252,64ZM896,448L896,253.5C896,236.833 892.583,220.917 885.75,205.75C878.917,190.583 869.75,177.25 858.25,165.75C846.75,154.25 833.417,145.083 818.25,138.25C803.083,131.417 787.167,128 770.5,128L576,128L576,322.5C576,339.167 579.417,355.083 586.25,370.25C593.083,385.417 602.25,398.75 613.75,410.25C625.25,421.75 638.583,430.917 653.75,437.75C668.917,444.583 684.833,448 701.5,448ZM448,928C448,936.667 444.833,944.167 438.5,950.5C432.167,956.833 424.667,960 416,960L96,960C87.3333,960 79.8333,956.833 73.5,950.5C67.1667,944.167 64,936.667 64,928L64,608C64,599.333 67.1667,591.833 73.5,585.5C79.8333,579.167 87.3333,576 96,576C104.667,576 112.167,579.167 118.5,585.5C124.833,591.833 128,599.333 128,608L128,851L393.5,585.5C399.833,579.167 407.333,576 416,576C424.667,576 432.167,579.167 438.5,585.5C444.833,591.833 448,599.333 448,608C448,616.667 444.833,624.167 438.5,630.5L173,896L416,896C424.667,896 432.167,899.167 438.5,905.5C444.833,911.833 448,919.333 448,928Z" fill="context-fill" fill-opacity="context-fill-opacity">
  </path>
</svg>