<svg xmlns="http://www.w3.org/2000/svg" width="16" height="16" fill="none" viewBox="0 0 16 16"><g fill="context-fill" clip-path="url(#a)"><path d="M2.795 16q-.562 0-1.072-.228a3 3 0 0 1-.888-.607 3 3 0 0 1-.607-.888A2.6 2.6 0 0 1 0 13.205V2.795q0-.562.228-1.072.227-.51.607-.888.38-.38.888-.607Q2.233 0 2.795 0h10.41q.562 0 1.072.228.51.227.888.607.38.38.607.888.228.51.228 1.072v10.41q0 .562-.228 1.072t-.607.888q-.38.38-.888.607-.51.228-1.072.228zM1.143 3.429h13.714v-.572a1.7 1.7 0 0 0-.134-.66 1.74 1.74 0 0 0-.92-.92 1.7 1.7 0 0 0-.66-.134H2.857a1.7 1.7 0 0 0-.66.134 1.74 1.74 0 0 0-.92.92 1.7 1.7 0 0 0-.134.66zm12 11.428q.348 0 .66-.134a1.74 1.74 0 0 0 .92-.92 1.7 1.7 0 0 0 .134-.66V4.57H1.143v8.572q0 .348.134.66a1.74 1.74 0 0 0 .92.92q.312.135.66.134z"/><path d="M1 4h4v11H1z"/></g><defs><clipPath id="a"><path d="M0 0h16v16H0z"/></clipPath></defs></svg>