<svg xmlns="http://www.w3.org/2000/svg" width="16" height="16" viewBox="0 0 16 16"><path fill="context-fill" fill-opacity="context-fill-opacity" d="M13 1c1.1 0 2 .901 2 2v10c0 1.1-.9 2-2 2h-2.737c.147-.31.25-.647.3-1H13c.563 0 1-.437 1-1V5H7.5C6.677 5 6 4.323 6 3.5V2H3c-.563 0-1 .437-1 1v2.436c-.353.05-.69.153-1 .3V3c0-1.1.901-2 2-2zM7 2v1.5a.493.493 0 0 0 .5.5H14V3c0-.563-.437-1-1-1z"/><path fill="context-fill" fill-opacity="context-fill-opacity" d="M9.6 13.5A2.5 2.5 0 0 1 7.1 16H2.5A2.5 2.5 0 0 1 0 13.5V8.9a2.5 2.5 0 0 1 2.5-2.5h4.6a2.5 2.5 0 0 1 2.5 2.5zM3.293 8.951a.29.29 0 0 0-.293.29v3.917a.289.289 0 0 0 .438.246l2.93-1.79a.49.49 0 0 0 .17-.651.5.5 0 0 0-.17-.177l-2.93-1.793a.3.3 0 0 0-.145-.042"/></svg>