<svg xmlns="http://www.w3.org/2000/svg" fill="none" viewBox="0 0 16 16"><path fill="context-fill" fill-opacity="context-fill-opacity" d="m14.259 10.934-4.142 4.141a.7.7 0 0 1-.163.125 1 1 0 0 1-.187.075 31 31 0 0 1-.888.245l-.642.164-.629.154q-.291.07-.508.116-.216.045-.291.046a.35.35 0 0 1-.255-.112.35.35 0 0 1-.113-.254q0-.068.046-.284.046-.217.117-.517a65 65 0 0 1 .462-1.83q.068-.236.101-.336a.83.83 0 0 1 .2-.342l4.142-4.141zM12.5 1A2.5 2.5 0 0 1 15 3.499v2.042a3 3 0 0 0-.908-.14H14V3.5A1.5 1.5 0 0 0 12.5 2h-9A1.5 1.5 0 0 0 2 3.5v9A1.5 1.5 0 0 0 3.5 14h2.276a66 66 0 0 0-.235 1H3.5A2.5 2.5 0 0 1 1 12.5v-9A2.5 2.5 0 0 1 3.5 1zM5.513 5a.5.5 0 0 1 .252.076l4 2.503a.5.5 0 0 1 .011.84l-4 2.648A.503.503 0 0 1 5 10.65V5.5a.5.5 0 0 1 .513-.5m8.579 1.4q.399 0 .75.146A1.86 1.86 0 0 1 16 8.309q0 .275-.054.5a2 2 0 0 1-.159.424q-.104.2-.254.383c-.15.183-.21.248-.333.375l-2.75-2.75q.183-.19.359-.35.174-.158.366-.266a1.7 1.7 0 0 1 .417-.167q.225-.058.5-.058"/></svg>