<svg xmlns="http://www.w3.org/2000/svg" width="16" height="16" viewBox="0 0 16 16"><path fill="context-fill" fill-opacity="context-fill-opacity" d="M5.765 5.076A.5.5 0 0 0 5 5.5v5.15a.5.5 0 0 0 .776.417l4-2.648a.5.5 0 0 0-.01-.84z"/><path fill="context-fill" fill-opacity="context-fill-opacity" fill-rule="evenodd" d="M12.85 10c1.74 0 3.15 1.342 3.15 2.998 0 1.6-1.318 2.908-2.975 2.994l-.173.004V16a.44.44 0 0 1-.452-.426.435.435 0 0 1 .367-.423l.08-.008.003-.004c1.243 0 2.25-.958 2.25-2.141 0-1.135-.928-2.064-2.102-2.137l-.148-.005a.44.44 0 0 1-.45-.428c0-.21.16-.385.37-.421zm-2.7 0a.44.44 0 0 1 .45.428c0 .21-.16.385-.37.422l-.08.007c-1.243 0-2.25.958-2.25 2.141 0 1.135.928 2.064 2.102 2.137l.148.004a.44.44 0 0 1 .45.429c0 .21-.16.385-.37.421l-.08.007c-1.74 0-3.15-1.342-3.15-2.998 0-1.6 1.318-2.908 2.977-2.993zm0 2.57 2.7.002a.44.44 0 0 1 .45.428c0 .21-.16.385-.37.421l-.08.007-2.7-.002a.44.44 0 0 1-.45-.428c0-.21.16-.385.37-.421z" clip-rule="evenodd"/><path fill="context-fill" fill-opacity="context-fill-opacity" d="M12.5 1A2.5 2.5 0 0 1 15 3.5v6.036a4 4 0 0 0-1-.41V3.5A1.5 1.5 0 0 0 12.5 2h-9A1.5 1.5 0 0 0 2 3.5v9A1.5 1.5 0 0 0 3.5 14h2.626c.091.355.231.69.41 1H3.5l-.256-.013a2.5 2.5 0 0 1-2.231-2.231L1 12.5v-9A2.5 2.5 0 0 1 3.5 1z"/></svg>