<svg xmlns="http://www.w3.org/2000/svg" width="16" height="16" viewBox="8 16 945 945"><path fill="context-fill" fill-opacity="context-fill-opacity" d="M103.5 961q-19.5 0-36.75-7.5T36.25 933t-21-30.25T7.5 866q0-23 10-44L394 69q12-24 35.5-38.5T480 16t50.5 14.5T566 69l376.5 753q10 21 10 44 0 19.5-7.75 36.75T924 933t-30.5 20.5-37 7.5Zm753-64q12 0 22-9t10-21.5q0-9-3.5-16l-376.5-753q-4-8.5-11.75-13T480 80t-16.75 4.75T451.5 97.5L75 850.5q-3.5 7-3.5 15.5 0 13 9.75 22t22.25 9ZM448 608V352q0-13 9.5-22.5T480 320t22.5 9.5T512 352v256q0 13-9.5 22.5T480 640t-22.5-9.5T448 608m-16 128q0-20 14-34t34-14 34 14 14 34-14 34-34 14-34-14-14-34"/></svg>