<svg xmlns="http://www.w3.org/2000/svg" width="16" height="16" viewBox="123 206 802 430"><path fill="context-fill" fill-opacity="context-fill-opacity" d="M382.5 609q0 3-1.5 7t-4 8-5.75 6.75-6.25 2.75q-6.5 0-10.25-4.5t-6-11a61 61 0 0 1-3-13.5q-.75-7-.75-11.5 0-26.5 1-52.5t1-52.5q0-5.5-1.25-10.5T340 469q-13.5 23-31.75 51.75A431 431 0 0 1 267.5 575q-22.5 25.5-49.25 42.75T161.5 635q-19 0-29-12t-10-30q0-15 10-39t26.5-51 37.5-54.25 42.75-49 42.25-35.5T318 350.5q8.5 0 16.25 4T348 365.25t9.5 15 3.5 16.25q0 18.5-10 34 1-.5 5.25-1.75t4.75-1.25q3 0 5 5.25t2.75 12.5 1 14.75.25 12v17.25q0 9.75.25 21.75t.5 25.25.75 24.75 1 20.25T374 593q1 4 4.75 8.5t3.75 7.5M339 408.5q0-11.5-7-20.75t-19.5-9.25-29 12-34.25 31.25-34.75 42.75-30.75 46.5-22 43-8.25 32q0 8 3.75 12.75t12.25 4.75q16.5 0 33.25-8t32.75-20.75 30.75-29.5 27.5-34.25 22.5-34.5T332 446q4-9 5.5-18.25t1.5-19.25M656.5 361q20.5 0 30.5 13t10 32q0 30.5-13.25 60.75T650 524.5a413 413 0 0 1-45.25 51.25Q580 599.5 557.5 616.5q-7.5 5.5-18 12.25T519 635.5q-6.5 0-10.5-4.75t-4-10.75q0-7.5 5.5-13 4-4.5 7.5-6.5t9-4.5q21-10 38.75-21.75T599.5 546q12.5-12 25-27.75A264.6 264.6 0 0 0 647 485q10-17.5 16.25-36t6.25-36.5q0-11-4.75-16.5t-16.25-5.5q-14.5 0-28.25 6.5T594 414t-23.75 24.25a331 331 0 0 0-20.75 28.25Q540 481 532.25 495T519 520.5q-8.5 17.5-13.5 35.25a2208 2208 0 0 0-10 36.75 52.2 52.2 0 0 1-6 14q-4 6.5-13.5 6.5-2.5 0-5-2.25t-4.5-5.75-3-6.75-1-5.75q0-49.5-1.25-98.5T458 395.5q-1-37.5-2.5-74.5t-4-74.5q-.5-7-2-13.5t-1.5-13.5q0-6 2.75-9.75T460 206t10.75 4.5 6.75 11a62.2 62.2 0 0 1 3.5 13.25q1 6.75 1 11.75v34q0 23.5.25 53.25t.75 62 1.5 60.25 2.5 48.25 4 25.25q4.5-14.5 13.75-32.75t22-37 28.25-36.5 32.5-31.5T622 369.5t34.5-8.5m261 136.5q2.5 0 4.75 1.25t2.25 4.25q0 4.5-5.5 13.5t-14 20.25T886 560t-20.5 22.75-18.25 18.75T834.5 613q-11.5 8.5-23.5 14t-26.5 5.5q-12 0-21.5-5.75T747.25 612t-9.5-20.25-3.25-22.25q0-14.5 4.75-37.5t13-49 20.25-52.25 26.25-47.5 30.75-34.5T864 335.5q6.5 0 13.25 3.75T889 348.5t8.25 12.5 3.25 13.5q0 2-.5 7.75t-1.75 12-2.75 11.25-3 5q-6 0-8-7.5t-2.75-16.25-2-16.25T874 363q-15 0-29.25 11.5t-26.5 30-22.5 41.5-17.5 45.5T767 533.75 763 566q0 6.5 1 13.25t3.75 12.25 7.75 9 13 3.5q15 0 30-8t28.5-19.75 25.5-25.5 21.25-25.5a6969 6969 0 0 0 15.5-19.75q6.25-8 8.25-8"/></svg>