<svg xmlns="http://www.w3.org/2000/svg" width="16" height="16" viewBox="0 128 1024 768"><path fill="context-fill" fill-opacity="context-fill-opacity" d="M0 272v-2.5q0-28.5 11.5-54t31-45 45-31 54-11.5q18 0 35.75 4.25T211 144.5t29.75 20T264 192q5 8 5 17.5 0 13-9.25 22.75T237.5 242q-12 0-19.75-7.75T201 217t-22-17.25-35-7.75q-16.5 0-31 6.5t-25.25 17.25T70.5 241 64 272t6.5 31 17.25 25.25T113 345.5t31 6.5q2.5 0 4 .5 1.5-.5 4.5-.5H864q13 0 22.5 9.5T896 384t-9.5 22.5T864 416H152.5q-3 0-4.5-.5-1.5.5-3.25.5h-3.25q-29.5 0-55.25-11.75t-44.75-31.5T11.25 327 0 272m416-16q-13 0-22.5-9.5T384 224t9.5-22.5T416 192h576q13.005 0 22.5 9.5c6.33 6.333 9.5 13.833 9.5 22.5s-3.17 16.167-9.5 22.5q-9.495 9.5-22.5 9.5ZM224 576q-13 0-22.5-9.5T192 544t9.5-22.5T224 512h768q13.005 0 22.5 9.5c6.33 6.333 9.5 13.833 9.5 22.5s-3.17 16.167-9.5 22.5q-9.495 9.5-22.5 9.5ZM32 736q-13 0-22.5-9.5T0 704t9.5-22.5T32 672h768q13 0 22.5 9.5T832 704t-9.5 22.5T800 736Zm192 160q-13 0-22.5-9.5T192 864t9.5-22.5T224 832h768q13.005 0 22.5 9.5c6.33 6.333 9.5 13.833 9.5 22.5s-3.17 16.167-9.5 22.5q-9.495 9.5-22.5 9.5Z"/></svg>