<svg height="16" viewBox="64 64 896 896" width="16" xmlns="http://www.w3.org/2000/svg" xmlns:xlink="http://www.w3.org/1999/xlink">
  <path d="M641.5,686.5C609.5,712.833 574.25,733 535.75,747C497.25,761 457.333,768 416,768C367,768 321.167,758.833 278.5,740.5C235.833,722.167 198.583,697.083 166.75,665.25C134.917,633.417 109.833,596.167 91.5,553.5C73.1667,510.833 64,465 64,416C64,383.667 68.1667,352.417 76.5,322.25C84.8333,292.083 96.6667,264 112,238C127.333,212 145.667,188.333 167,167C188.333,145.667 212,127.333 238,112C264,96.6667 292,84.8334 322,76.5C352,68.1667 383.333,64.0001 416,64C448.333,64.0001 479.5,68.1667 509.5,76.5C539.5,84.8334 567.583,96.6667 593.75,112C619.917,127.333 643.667,145.667 665,167C686.333,188.333 704.667,212.083 720,238.25C735.333,264.417 747.167,292.5 755.5,322.5C763.833,352.5 768,383.667 768,416C768,457.333 761,497.25 747,535.75C733,574.25 712.833,609.5 686.5,641.5L950.5,905.5C956.833,911.833 960,919.333 960,928C960,936.667 956.833,944.167 950.5,950.5C944.167,956.833 936.667,960 928,960C919.333,960 911.833,956.833 905.5,950.5ZM704,416C704,389.667 700.583,364.25 693.75,339.75C686.917,315.25 677.25,292.333 664.75,271C652.25,249.667 637.167,230.167 619.5,212.5C601.833,194.833 582.333,179.75 561,167.25C539.667,154.75 516.75,145.083 492.25,138.25C467.75,131.417 442.333,128 416,128C376.333,128 339,135.583 304,150.75C269,165.917 238.5,186.5 212.5,212.5C186.5,238.5 165.917,269 150.75,304C135.583,339 128,376.333 128,416C128,456 135.5,493.5 150.5,528.5C165.5,563.5 186,594 212,620C238,646 268.5,666.5 303.5,681.5C338.5,696.5 376,704 416,704C455.667,704 493,696.417 528,681.25C563,666.083 593.5,645.5 619.5,619.5C645.5,593.5 666.083,563 681.25,528C696.417,493 704,455.667 704,416ZM384,448L256,448C247.333,448 239.833,444.833 233.5,438.5C227.167,432.167 224,424.667 224,416C224,407.333 227.167,399.833 233.5,393.5C239.833,387.167 247.333,384 256,384L384,384L384,256C384,247.333 387.167,239.833 393.5,233.5C399.833,227.167 407.333,224 416,224C424.667,224 432.167,227.167 438.5,233.5C444.833,239.833 448,247.333 448,256L448,384L576,384C584.667,384 592.167,387.167 598.5,393.5C604.833,399.833 608,407.333 608,416C608,424.667 604.833,432.167 598.5,438.5C592.167,444.833 584.667,448 576,448L448,448L448,576C448,584.667 444.833,592.167 438.5,598.5C432.167,604.833 424.667,608 416,608C407.333,608 399.833,604.833 393.5,598.5C387.167,592.167 384,584.667 384,576Z" fill="context-fill" fill-opacity="context-fill-opacity">
  </path>
</svg>