<svg xmlns="http://www.w3.org/2000/svg" width="16" height="16" viewBox="64 64 896 896"><path fill="context-fill" fill-opacity="context-fill-opacity" d="M641.5 686.5q-48 39.5-105.75 60.5T416 768q-73.5 0-137.5-27.5t-111.75-75.25T91.5 553.5 64 416q0-48.5 12.5-93.75T112 238a355.1 355.1 0 0 1 55-71 355.1 355.1 0 0 1 71-55q39-23 84-35.5T416 64q48.5 0 93.5 12.5t84.25 35.5T665 167t55 71.25 35.5 84.25T768 416q0 62-21 119.75T686.5 641.5l264 264Q960 915 960 928t-9.5 22.5T928 960t-22.5-9.5ZM704 416q0-39.5-10.25-76.25t-29-68.75-45.25-58.5-58.5-45.25-68.75-29T416 128q-59.5 0-112 22.75t-91.5 61.75-61.75 91.5T128 416q0 60 22.5 112.5T212 620t91.5 61.5T416 704q59.5 0 112-22.75t91.5-61.75 61.75-91.5T704 416m-320 32H256q-13 0-22.5-9.5T224 416t9.5-22.5T256 384h128V256q0-13 9.5-22.5T416 224t22.5 9.5T448 256v128h128q13 0 22.5 9.5T608 416t-9.5 22.5T576 448H448v128q0 13-9.5 22.5T416 608t-22.5-9.5T384 576Z"/></svg>