<svg height="100%" viewBox="0 0 1024 1024" width="100%" xmlns="http://www.w3.org/2000/svg" xmlns:xlink="http://www.w3.org/1999/xlink">
  <path d="M1024,512C1024,559 1017.92,604.333 1005.75,648C993.583,691.667 976.333,732.417 954,770.25C931.667,808.083 904.917,842.583 873.75,873.75C842.583,904.917 808.083,931.667 770.25,954C732.417,976.333 691.667,993.583 648,1005.75C604.333,1017.92 559,1024 512,1024C465,1024 419.667,1017.92 376,1005.75C332.333,993.583 291.583,976.333 253.75,954C215.917,931.667 181.417,904.917 150.25,873.75C119.083,842.583 92.3333,808.083 70,770.25C47.6667,732.417 30.4167,691.667 18.25,648C6.08333,604.333 0,559 0,512C0,465 6.08333,419.667 18.25,376C30.4167,332.333 47.6667,291.583 70,253.75C92.3333,215.917 119.083,181.417 150.25,150.25C181.417,119.083 215.917,92.3334 253.75,70C291.583,47.6667 332.333,30.4167 376,18.25C419.667,6.08337 465,0 512,0C549,0 585.25,3.83337 620.75,11.5C656.25,19.1667 690.333,30.4167 723,45.25C755.667,60.0834 786.583,78.25 815.75,99.75C844.917,121.25 871.667,145.833 896,173.5L896,32C896,23.3334 899.167,15.8334 905.5,9.5C911.833,3.16669 919.333,0 928,0C936.667,0 944.167,3.16669 950.5,9.5C956.833,15.8334 960,23.3334 960,32L960,288C960,296.667 956.833,304.167 950.5,310.5C944.167,316.833 936.667,320 928,320L672,320C663.333,320 655.833,316.833 649.5,310.5C643.167,304.167 640,296.667 640,288C640,279.333 643.167,271.833 649.5,265.5C655.833,259.167 663.333,256 672,256L880,256C859,226 834.917,199.083 807.75,175.25C780.583,151.417 751.167,131.25 719.5,114.75C687.833,98.25 654.5,85.6667 619.5,77C584.5,68.3334 548.667,64.0001 512,64C470.667,64.0001 430.917,69.3334 392.75,80C354.583,90.6667 318.917,105.75 285.75,125.25C252.583,144.75 222.417,168.083 195.25,195.25C168.083,222.417 144.75,252.583 125.25,285.75C105.75,318.917 90.6667,354.583 80,392.75C69.3333,430.917 64,470.667 64,512C64,553.333 69.3333,593.083 80,631.25C90.6667,669.417 105.75,705.083 125.25,738.25C144.75,771.417 168.083,801.583 195.25,828.75C222.417,855.917 252.583,879.25 285.75,898.75C318.917,918.25 354.583,933.333 392.75,944C430.917,954.667 470.667,960 512,960C552.333,960 591.417,954.917 629.25,944.75C667.083,934.583 702.583,919.833 735.75,900.5C768.917,881.167 799.333,857.75 827,830.25C854.667,802.75 878.833,771.5 899.5,736.5C939.833,667.167 960,592.333 960,512C960,503.333 963.167,495.833 969.5,489.5C975.833,483.167 983.333,480 992,480C1000.67,480 1008.17,483.167 1014.5,489.5C1020.83,495.833 1024,503.333 1024,512ZM777,512C777,526.667 773.25,540.25 765.75,552.75C758.25,565.25 748.167,575 735.5,582L502.5,709.5C490.833,715.833 478,719 464,719C452.667,719 442.167,716.917 432.5,712.75C422.833,708.583 414.417,702.917 407.25,695.75C400.083,688.583 394.417,680.083 390.25,670.25C386.083,660.417 384,650 384,639L384,385C384,374 386.083,363.583 390.25,353.75C394.417,343.917 400.083,335.417 407.25,328.25C414.417,321.083 422.917,315.333 432.75,311C442.583,306.667 453,304.5 464,304.5C478,304.5 490.833,307.833 502.5,314.5L735.5,442C748.167,449 758.25,458.75 765.75,471.25C773.25,483.75 777,497.333 777,512ZM713,512C713,505.667 710.333,501 705,498L471.5,371C469.167,369.667 466.667,369 464,369C459.333,369 455.5,370.5 452.5,373.5C449.5,376.5 448,380.333 448,385L448,639C448,643.667 449.5,647.5 452.5,650.5C455.5,653.5 459.333,655 464,655C466.667,655 469.167,654.333 471.5,653L705,526C710.333,523 713,518.333 713,512Z" fill="context-fill" fill-opacity="context-fill-opacity">
  </path>
</svg>