<svg height="100%" viewBox="0 0 1024 1024" width="100%" xmlns="http://www.w3.org/2000/svg" xmlns:xlink="http://www.w3.org/1999/xlink">
  <path d="M96,1024C83,1024 70.6667,1021.5 59,1016.5C47.3333,1011.5 37.0833,1004.58 28.25,995.75C19.4167,986.917 12.5,976.667 7.5,965C2.5,953.333 0,941 0,928L0,826.5C0,813.833 2.41667,801.583 7.25,789.75C12.0833,777.917 19,767.5 28,758.5L310,477C316,471 320.5,463.917 323.5,455.75C326.5,447.583 328,439.333 328,431C328,426.333 327.5,421.5 326.5,416.5C324.833,405.833 323.333,395.167 322,384.5C320.667,373.833 320,363.167 320,352.5C320,321.5 324.333,291.25 333,261.75C341.667,232.25 353.917,204.5 369.75,178.5C385.583,152.5 404.333,128.5 426,106.5C447.667,84.5 471.583,65.6667 497.75,50C523.917,34.3334 551.667,22.0834 581,13.25C610.333,4.41669 640.5,0 671.5,0C703.833,0 735.083,4.16669 765.25,12.5C795.417,20.8334 823.5,32.6667 849.5,48C875.5,63.3334 899.25,81.75 920.75,103.25C942.25,124.75 960.667,148.5 976,174.5C991.333,200.5 1003.17,228.583 1011.5,258.75C1019.83,288.917 1024,320.167 1024,352.5C1024,384.833 1019.83,416 1011.5,446C1003.17,476 991.333,504 976,530C960.667,556 942.25,579.667 920.75,601C899.25,622.333 875.5,640.667 849.5,656C823.5,671.333 795.5,683.167 765.5,691.5C735.5,699.833 704.333,704 672,704C639,704 607,699.5 576,690.5L576,691.5C576,708.833 573.667,722.583 569,732.75C564.333,742.917 558,750.667 550,756C542,761.333 532.667,764.75 522,766.25C511.333,767.75 499.833,768.5 487.5,768.5C481.167,768.5 474.667,768.417 468,768.25C461.333,768.083 454.667,768 448,768L448,832C448,849.667 441.667,864.833 429,877.5C416.667,889.833 401.667,896 384,896L320,896L320,928C320,941 317.5,953.333 312.5,965C307.5,976.667 300.583,986.917 291.75,995.75C282.917,1004.58 272.667,1011.5 261,1016.5C249.333,1021.5 237,1024 224,1024ZM224,960C231.333,960 237.167,958.583 241.5,955.75C245.833,952.917 249,949.333 251,945C253,940.667 254.25,935.75 254.75,930.25C255.25,924.75 255.5,919.167 255.5,913.5L255.5,905.5C255.5,895.5 256.833,886.083 259.5,877.25C262.167,868.417 266.167,860.667 271.5,854C276.833,847.333 283.5,842 291.5,838C299.5,834 309,832 320,832L384,832L384,768C384,750.333 390.167,735.333 402.5,723C415.167,710.333 430.333,704 448,704L512,704L512,645C512,636 515.083,628.417 521.25,622.25C527.417,616.083 535,613 544,613C548.333,613 552.667,613.833 557,615.5C567.333,619.167 577.083,622.5 586.25,625.5C595.417,628.5 604.417,631.083 613.25,633.25C622.083,635.417 631.25,637.083 640.75,638.25C650.25,639.417 660.667,640 672,640C698.333,640 723.75,636.583 748.25,629.75C772.75,622.917 795.667,613.25 817,600.75C838.333,588.25 857.833,573.25 875.5,555.75C893.167,538.25 908.25,518.833 920.75,497.5C933.25,476.167 942.917,453.25 949.75,428.75C956.583,404.25 960,378.833 960,352.5C960,325.833 956.583,300.25 949.75,275.75C942.917,251.25 933.25,228.333 920.75,207C908.25,185.667 893.25,166.167 875.75,148.5C858.25,130.833 838.833,115.75 817.5,103.25C796.167,90.75 773.25,81.0834 748.75,74.25C724.25,67.4167 698.667,64.0001 672,64L661.5,64C651.833,64.0001 642.167,64.8334 632.5,66.5C622.833,68.1667 613.167,70.3334 603.5,73C573.5,81.3334 545.167,94.5834 518.5,112.75C491.833,130.917 468.583,152.5 448.75,177.5C428.917,202.5 413.167,229.917 401.5,259.75C389.833,289.583 384,320.333 384,352C384,365.333 385.333,378.5 388,391.5C390.667,404.5 392,417.667 392,431C392,448 388.833,464.417 382.5,480.25C376.167,496.083 367,510 355,522L73.5,804C67.1667,810.333 64,817.833 64,826.5L64,928C64,936.667 67.1667,944.167 73.5,950.5C79.8333,956.833 87.3333,960 96,960ZM704,256C704,247 705.667,238.667 709,231C712.333,223.333 716.917,216.583 722.75,210.75C728.583,204.917 735.333,200.333 743,197C750.667,193.667 759,192 768,192C776.667,192 784.917,193.667 792.75,197C800.583,200.333 807.417,204.917 813.25,210.75C819.083,216.583 823.667,223.417 827,231.25C830.333,239.083 832,247.333 832,256C832,265 830.333,273.333 827,281C823.667,288.667 819.083,295.417 813.25,301.25C807.417,307.083 800.667,311.667 793,315C785.333,318.333 777,320 768,320C759,320 750.583,318.333 742.75,315C734.917,311.667 728.167,307.167 722.5,301.5C716.833,295.833 712.333,289.083 709,281.25C705.667,273.417 704,265 704,256Z" fill="context-fill" fill-opacity="context-fill-opacity">
  </path>
</svg>