<svg width="16" height="16" viewBox="0 0 16 16" xmlns="http://www.w3.org/2000/svg">
  <style>
    path {
      fill: black;
    }

    @media (prefers-color-scheme: dark) {
      path {
        fill: white;
      }
    }
  </style>
  <path d="M8 0.351562C7.87283 0.351839 7.74689 0.376366 7.62891 0.423829L2.62891 2.42383C2.44342 2.49797 2.28438 2.62596 2.17228 2.79132C2.06019 2.95667 2.00019 3.1518 2 3.35156V10.3516C2 11.2682 2.49969 11.9648 3.0547 12.5528C3.60971 13.1408 4.2854 13.6464 4.9492 14.084C6.2768 14.9593 7.582 15.5567 7.582 15.5567C7.71309 15.617 7.85568 15.6482 7.99997 15.6482C8.14426 15.6482 8.28685 15.617 8.41794 15.5567C8.41794 15.5567 9.72314 14.9594 11.0507 14.084C11.7145 13.6463 12.3902 13.1407 12.9452 12.5528C13.5002 11.9648 13.9999 11.2683 13.9999 10.3516V3.35156C13.9998 3.1518 13.9397 2.95667 13.8277 2.79132C13.7156 2.62596 13.5565 2.49797 13.371 2.42383L8.37103 0.423829C8.25305 0.376366 8.12717 0.351839 8 0.351562ZM8 1.35156L13 3.35156V10.3516C13 12.3516 8 14.6485 8 14.6485V1.35156Z" />
</svg>